<svg width="34" height="34" viewBox="0 0 34 34" fill="none" xmlns="http://www.w3.org/2000/svg">
<path d="M23.1581 10.4296C23.4266 10.6981 23.4492 11.1195 23.2255 11.4135L23.1584 11.4903L18.0326 16.6178L23.1613 21.7465C23.4542 22.0394 23.4542 22.5143 23.1613 22.8072C22.8928 23.0757 22.4714 23.098 22.1775 22.8744L22.1007 22.8072L16.9719 17.6785L11.8475 22.8058C11.5547 23.0987 11.0797 23.0989 10.7868 22.806C10.5183 22.5376 10.4958 22.1162 10.7195 21.8222L10.7866 21.7453L15.9113 16.6178L10.7855 11.492C10.4926 11.1991 10.4926 10.7242 10.7855 10.4313C11.054 10.1628 11.4754 10.1405 11.7694 10.3642L11.8461 10.4313L16.9719 15.5571L22.0975 10.4299C22.3903 10.1369 22.8653 10.1367 23.1581 10.4296Z" fill="#121212"/>
</svg>
