<svg width="22" height="22" viewBox="0 0 128 124" fill="current" xmlns="http://www.w3.org/2000/svg">
<path d="M36 55.89C40.6944 55.89 44.5 52.0844 44.5 47.39C44.5 42.6956 40.6944 38.89 36 38.89C31.3056 38.89 27.5 42.6956 27.5 47.39C27.5 52.0844 31.3056 55.89 36 55.89Z"/>
<path d="M36 39.39C40.41 39.39 44 42.98 44 47.39C44 51.8 40.41 55.39 36 55.39C31.59 55.39 28 51.8 28 47.39C28 42.98 31.59 39.39 36 39.39ZM36 38.39C31.03 38.39 27 42.42 27 47.39C27 52.36 31.03 56.39 36 56.39C40.97 56.39 45 52.36 45 47.39C45 42.42 40.97 38.39 36 38.39Z"/>
<path d="M64 55.89C68.6944 55.89 72.5 52.0844 72.5 47.39C72.5 42.6956 68.6944 38.89 64 38.89C59.3056 38.89 55.5 42.6956 55.5 47.39C55.5 52.0844 59.3056 55.89 64 55.89Z"/>
<path d="M64 39.39C68.41 39.39 72 42.98 72 47.39C72 51.8 68.41 55.39 64 55.39C59.59 55.39 56 51.8 56 47.39C56 42.98 59.59 39.39 64 39.39ZM64 38.39C59.03 38.39 55 42.42 55 47.39C55 52.36 59.03 56.39 64 56.39C68.97 56.39 73 52.36 73 47.39C73 42.42 68.97 38.39 64 38.39Z"/>
<path d="M92 55.89C96.6944 55.89 100.5 52.0844 100.5 47.39C100.5 42.6956 96.6944 38.89 92 38.89C87.3056 38.89 83.5 42.6956 83.5 47.39C83.5 52.0844 87.3056 55.89 92 55.89Z"/>
<path d="M92 39.39C96.41 39.39 100 42.98 100 47.39C100 51.8 96.41 55.39 92 55.39C87.59 55.39 84 51.8 84 47.39C84 42.98 87.59 39.39 92 39.39ZM92 38.39C87.03 38.39 83 42.42 83 47.39C83 52.36 87.03 56.39 92 56.39C96.97 56.39 101 52.36 101 47.39C101 42.42 96.97 38.39 92 38.39Z"/>
<path d="M110.5 4.39001C117.94 4.39001 124 11.29 124 19.78V74.07C124 82.55 117.94 89.46 110.5 89.46H85.78H80.25L81.98 94.71L89.45 117.35L47.61 90.1L46.61 89.45H45.42H17.5C10.06 89.45 4 82.55 4 74.06V19.77C4 11.29 10.06 4.38001 17.5 4.38001H110.5M110.5 0.390015H17.5C7.83 0.390015 0 9.07002 0 19.77V74.06C0 84.77 7.83 93.45 17.5 93.45H45.43L91.19 123.24C91.58 123.49 91.99 123.61 92.38 123.61C93.89 123.61 95.18 121.93 94.58 120.11L85.78 93.45H110.5C120.16 93.45 128 84.77 128 74.06V19.77C128 9.07002 120.17 0.390015 110.5 0.390015Z"/>
</svg>
