<?xml version="1.0" encoding="utf-8"?>
<!-- Generator: Adobe Illustrator 27.9.0, SVG Export Plug-In . SVG Version: 6.00 Build 0)  -->
<svg version="1.1" xmlns="http://www.w3.org/2000/svg" xmlns:xlink="http://www.w3.org/1999/xlink" x="0px" y="0px"
	 viewBox="0 -10 96 96" style="enable-background:new 0 0 96 96;" xml:space="preserve">
<style type="text/css">
	.st0{display:none;}
	.st1{display:inline;}
	.st2{fill:url(#SVGID_1_);}
	.st3{fill:#FFFFFF;}
	.st4{fill:url(#SVGID_00000126310443925042913050000018147264933417009840_);}
	.st5{opacity:0.4;}
	.st6{fill:#F0DEFC;}
	.st7{fill:url(#SVGID_00000065792288280700647960000017913208179204938918_);}
</style>
<g id="레이어_1" class="st0">
	<g class="st1">
		<g>
			<linearGradient id="SVGID_1_" gradientUnits="userSpaceOnUse" x1="0" y1="45.9556" x2="96" y2="45.9556">
				<stop  offset="1.065558e-08" style="stop-color:#D0A7E8"/>
				<stop  offset="1" style="stop-color:#6DABE8"/>
			</linearGradient>
			<path class="st2" d="M48,6C73.9,6,95,23.9,95,46S73.9,85.9,48,85.9S1,68,1,46S22.1,6,48,6 M48,5C21.5,5,0,23.4,0,46
				s21.5,40.9,48,40.9S96,68.6,96,46S74.5,5,48,5L48,5z"/>
		</g>
		<g>
			<path class="st3" d="M48,83.6c-18.6,0-33.8-12.1-33.8-27.1c0-3.8,1-7.4,2.8-10.9l0.2-0.4L17,45.1c-2-1.7-3.2-4.2-3.2-6.9
				c0-5,4.1-9,9-9c3,0,5.7,1.5,7.4,3.9l0.2,0.3l0.4-0.2c5.2-2.4,11.1-3.7,17.1-3.7c6,0,11.9,1.3,17.1,3.7l0.4,0.2l0.2-0.3
				c1.7-2.4,4.5-3.9,7.4-3.9c5,0,9,4.1,9,9c0,2.6-1.2,5.1-3.2,6.9l-0.3,0.3l0.2,0.4c1.9,3.4,2.8,7.1,2.8,10.9
				C81.8,71.5,66.6,83.6,48,83.6z"/>
			<g>
				<path class="st3" d="M73.2,29.6c4.7,0,8.5,3.8,8.5,8.5c0,2.5-1.1,4.9-3,6.5l-0.6,0.5l0.4,0.7c1.8,3.4,2.8,6.9,2.8,10.6
					c0,14.7-14.9,26.6-33.3,26.6S14.7,71.2,14.7,56.6c0-3.7,0.9-7.3,2.8-10.6l0.4-0.7l-0.6-0.5c-1.9-1.6-3-4-3-6.5
					c0-4.7,3.8-8.5,8.5-8.5c2.8,0,5.4,1.4,7,3.7l0.5,0.7l0.8-0.4c5.1-2.4,11-3.7,16.9-3.7s11.8,1.3,16.9,3.7l0.8,0.4l0.5-0.7
					C67.7,31,70.4,29.6,73.2,29.6 M73.2,28.6c-3.3,0-6.1,1.6-7.8,4.1C60.2,30.4,54.3,29,48,29s-12.2,1.4-17.3,3.8
					c-1.7-2.5-4.6-4.1-7.8-4.1c-5.3,0-9.5,4.3-9.5,9.5c0,2.9,1.3,5.5,3.4,7.3c-1.9,3.4-2.9,7.2-2.9,11.1c0,15.2,15.3,27.6,34.3,27.6
					s34.3-12.3,34.3-27.6c0-4-1-7.7-2.9-11.1c2.1-1.7,3.4-4.3,3.4-7.3C82.7,32.9,78.4,28.6,73.2,28.6L73.2,28.6z"/>
			</g>
		</g>
		<g>
			
				<linearGradient id="SVGID_00000005235198781235695890000012926533204590633091_" gradientUnits="userSpaceOnUse" x1="18.3453" y1="82.8993" x2="77.6547" y2="82.8993">
				<stop  offset="1.065558e-08" style="stop-color:#D0A7E8"/>
				<stop  offset="1" style="stop-color:#6DABE8"/>
			</linearGradient>
			<path style="fill:url(#SVGID_00000005235198781235695890000012926533204590633091_);" d="M70.5,75.1c-0.2,0.1-0.3,0.1-0.5,0.2
				c-14.2,5.8-30,5.8-44.2,0c-0.1-0.1-0.3-0.1-0.5-0.2c-1.7-0.7-3.6-0.2-4.7,1.2c-2,2.3-4,5.8-0.4,8.1c0,0,11.1,6.5,27.7,6.5
				c16.7,0,27.7-6.5,27.7-6.5c3.5-2.3,1.5-5.9-0.4-8.1C74.1,74.9,72.2,74.5,70.5,75.1z"/>
		</g>
		<g class="st5">
			<circle class="st6" cx="28.9" cy="62.9" r="7"/>
			<circle class="st6" cx="67.1" cy="62.9" r="7"/>
		</g>
		<g>
			<path d="M57.5,49.8c1.3,0,2.4,1.1,2.4,2.5c0,1.3-1.1,2.4-2.4,2.4c-1.3,0-2.4-1.1-2.4-2.5C55,50.9,56.1,49.8,57.5,49.8z"/>
			<path d="M40.8,52.1c0,1.4-1,2.4-2.4,2.5c-1.4,0-2.4-1.1-2.4-2.4c0-1.4,1.1-2.4,2.5-2.4C39.7,49.7,40.8,50.7,40.8,52.1z"/>
			<path d="M47.9,59.6c-1.3,0-2.3-0.8-2.4-1.8c0-1,1-1.9,2.3-1.9c1.4,0,2.5,0.8,2.4,1.8C50.3,58.8,49.2,59.6,47.9,59.6z"/>
		</g>
		<path class="st3" d="M36.4,9.5"/>
		<ellipse transform="matrix(0.8663 -0.4996 0.4996 0.8663 -5.8093 14.1211)" class="st3" cx="23.5" cy="17.9" rx="8.8" ry="1.8"/>
		<ellipse transform="matrix(0.9526 -0.3042 0.3042 0.9526 -2.1646 10.7804)" class="st3" cx="33.5" cy="12.3" rx="1.3" ry="0.9"/>
	</g>
</g>
<g id="레이어_2">
	<path class="st3" d="M50.1,46.6"/>
	<g>
		<g>
			<path class="st3" d="M96,22.8c0-7.3-5.9-13.2-13.2-13.2c-4.5,0-8.5,2.3-10.8,5.7c-7-3.3-15.2-5.2-24-5.2S31.1,12,24,15.3
				c-2.4-3.4-6.3-5.7-10.8-5.7C5.9,9.6,0,15.5,0,22.8c0,4,1.8,7.6,4.6,10c-2.6,4.7-4,9.9-4,15.4c0,21.1,21.2,38.2,47.4,38.2
				s47.4-17.1,47.4-38.2c0-5.5-1.4-10.7-4-15.4C94.2,30.4,96,26.8,96,22.8z"/>
			<g>
				
					<linearGradient id="SVGID_00000145761988107962979200000015889041994439985337_" gradientUnits="userSpaceOnUse" x1="0" y1="48" x2="96" y2="48">
					<stop  offset="1.065558e-08" style="stop-color:#D0A7E8"/>
					<stop  offset="1" style="stop-color:#6DABE8"/>
				</linearGradient>
				<path style="fill:url(#SVGID_00000145761988107962979200000015889041994439985337_);" d="M82.8,11.3c6.4,0,11.5,5.2,11.5,11.5
					c0,3.4-1.5,6.6-4.1,8.8l-1,0.9l0.6,1.2c2.5,4.6,3.8,9.5,3.8,14.6c0,20.1-20.5,36.5-45.7,36.5S2.3,68.3,2.3,48.2
					c0-5.1,1.3-10,3.8-14.6l0.6-1.2l-1-0.9c-2.6-2.2-4.1-5.4-4.1-8.8c0-6.4,5.2-11.5,11.5-11.5c3.8,0,7.3,1.9,9.5,5l0.8,1.2l1.3-0.6
					c7-3.3,15.1-5.1,23.3-5.1c8.2,0,16.2,1.8,23.3,5.1l1.3,0.6l0.8-1.2C75.5,13.1,79,11.3,82.8,11.3 M82.8,9.6
					c-4.5,0-8.5,2.3-10.8,5.7c-7-3.3-15.2-5.2-24-5.2S31.1,12,24,15.3c-2.4-3.4-6.3-5.7-10.8-5.7C5.9,9.6,0,15.5,0,22.8
					c0,4,1.8,7.6,4.6,10c-2.6,4.7-4,9.9-4,15.4c0,21.1,21.2,38.2,47.4,38.2s47.4-17.1,47.4-38.2c0-5.5-1.4-10.7-4-15.4
					c2.8-2.4,4.6-6,4.6-10C96,15.5,90.1,9.6,82.8,9.6L82.8,9.6z"/>
			</g>
		</g>
		<g class="st5">
			<circle class="st6" cx="21.6" cy="57.1" r="9.7"/>
			<circle class="st6" cx="74.4" cy="57.1" r="9.7"/>
		</g>
		<g>
			<path d="M61.1,38.9c1.9,0,3.4,1.6,3.3,3.4c0,1.8-1.5,3.3-3.4,3.3c-1.9,0-3.4-1.5-3.4-3.4C57.7,40.4,59.2,38.9,61.1,38.9z"/>
			<path d="M38,42c0,1.9-1.5,3.4-3.4,3.4c-1.9,0-3.4-1.5-3.4-3.4c0-1.9,1.5-3.4,3.4-3.3C36.5,38.7,38,40.2,38,42z"/>
			<path d="M47.8,52.5c-1.8,0-3.2-1.1-3.3-2.4c0-1.4,1.4-2.6,3.2-2.6c1.9,0,3.4,1.1,3.4,2.5C51.1,51.3,49.7,52.4,47.8,52.5z"/>
		</g>
	</g>
</g>
</svg>
