<?xml version="1.0" encoding="utf-8"?>
<!-- Generator: Adobe Illustrator 27.9.0, SVG Export Plug-In . SVG Version: 6.00 Build 0)  -->
<svg version="1.1" xmlns="http://www.w3.org/2000/svg" xmlns:xlink="http://www.w3.org/1999/xlink" x="0px" y="0px"
	 viewBox="0 0 120 120" style="enable-background:new 0 0 120 120;" xml:space="preserve">
<style type="text/css">
	.st0{display:none;}
	.st1{display:inline;}
	.st2{fill:#FFFFFF;stroke:#FFFFFF;stroke-miterlimit:10;}
	.st3{fill:url(#SVGID_1_);}
	.st4{fill:#FFFFFF;}
	.st5{opacity:0.4;}
	.st6{fill:#F0DEFC;}
	.st7{opacity:0.6;fill:#F0DEFC;}
	.st8{fill:url(#SVGID_00000003785911253595323200000016582475109819755186_);}
	.st9{fill:#F7E997;}
	.st10{opacity:0.4;fill:#F0DEFC;}
	.st11{fill:url(#SVGID_00000026135801370965584820000017818203770781080741_);}
	.st12{fill:url(#SVGID_00000153667828830155214370000012768775221024584369_);}
</style>
<g id="레이어_1" class="st0">
	<g class="st1">
		<path class="st2" d="M79.9,109.5c1.3-4.9,4.8-20.9-3-31.6l-7.2,1.4c-6.3,1.2-12.9,1.2-19.3,0L43.1,78c0,0-8.6,12-3.1,31.2"/>
		<g>
			<linearGradient id="SVGID_1_" gradientUnits="userSpaceOnUse" x1="12.6959" y1="40.3346" x2="107.3041" y2="40.3346">
				<stop  offset="1.065558e-08" style="stop-color:#D0A7E8"/>
				<stop  offset="1" style="stop-color:#6DABE8"/>
			</linearGradient>
			<path class="st3" d="M60,1c25.5,0,46.3,17.6,46.3,39.3S85.5,79.7,60,79.7S13.7,62,13.7,40.3S34.5,1,60,1 M60,0
				C33.9,0,12.7,18.1,12.7,40.3S33.9,80.7,60,80.7s47.3-18.1,47.3-40.3S86.1,0,60,0L60,0z"/>
		</g>
		<g>
			<path class="st4" d="M60,77.5c-18.3,0-33.3-12-33.3-26.7c0-3.7,0.9-7.3,2.8-10.7l0.2-0.4l-0.3-0.3c-2-1.7-3.1-4.2-3.1-6.8
				c0-4.9,4-8.9,8.9-8.9c2.9,0,5.7,1.4,7.3,3.8l0.2,0.3l0.4-0.2c5.1-2.4,10.9-3.7,16.9-3.7c5.9,0,11.8,1.3,16.9,3.7l0.4,0.2l0.2-0.3
				c1.7-2.4,4.4-3.8,7.3-3.8c4.9,0,8.9,4,8.9,8.9c0,2.6-1.1,5.1-3.1,6.8l-0.3,0.3l0.2,0.4c1.9,3.4,2.8,7,2.8,10.7
				C93.3,65.5,78.3,77.5,60,77.5z"/>
			<g>
				<path class="st4" d="M84.8,24.3c4.6,0,8.4,3.8,8.4,8.4c0,2.5-1.1,4.8-3,6.4l-0.6,0.5l0.4,0.7c1.8,3.3,2.7,6.8,2.7,10.5
					C92.8,65.2,78.1,77,60,77S27.2,65.2,27.2,50.8c0-3.6,0.9-7.2,2.7-10.5l0.4-0.7l-0.6-0.5c-1.9-1.6-3-3.9-3-6.4
					c0-4.6,3.8-8.4,8.4-8.4c2.8,0,5.3,1.4,6.9,3.6l0.5,0.7l0.8-0.4c5-2.4,10.8-3.6,16.6-3.6s11.6,1.3,16.6,3.6l0.8,0.4l0.5-0.7
					C79.5,25.6,82,24.3,84.8,24.3 M84.8,23.3c-3.2,0-6,1.6-7.7,4.1c-5-2.4-10.8-3.7-17.1-3.7c-6.2,0-12.1,1.4-17.1,3.7
					c-1.7-2.4-4.5-4.1-7.7-4.1c-5.2,0-9.4,4.2-9.4,9.4c0,2.9,1.3,5.4,3.3,7.1c-1.8,3.4-2.9,7.1-2.9,11C26.2,65.8,41.4,78,60,78
					s33.8-12.2,33.8-27.2c0-3.9-1-7.6-2.9-11c2-1.7,3.3-4.3,3.3-7.1C94.2,27.5,90,23.3,84.8,23.3L84.8,23.3z"/>
			</g>
		</g>
		<g class="st5">
			<circle class="st6" cx="41.2" cy="57.1" r="6.9"/>
			<circle class="st6" cx="78.8" cy="57.1" r="6.9"/>
		</g>
		<g>
			<path d="M69.3,44.1c1.3,0,2.4,1.1,2.4,2.5c0,1.3-1.1,2.4-2.4,2.4c-1.3,0-2.4-1.1-2.4-2.4C66.9,45.2,68,44.1,69.3,44.1z"/>
			<path d="M52.9,46.4c0,1.4-1,2.4-2.4,2.4c-1.4,0-2.4-1.1-2.4-2.4c0-1.4,1.1-2.4,2.4-2.4C51.8,44,52.9,45,52.9,46.4z"/>
			<path d="M59.9,53.8c-1.3,0-2.3-0.7-2.3-1.7c0-1,1-1.8,2.3-1.9c1.3,0,2.4,0.8,2.4,1.8C62.2,53,61.2,53.8,59.9,53.8z"/>
		</g>
		<path class="st4" d="M48.6,4.4"/>
		<ellipse transform="matrix(0.8663 -0.4996 0.4996 0.8663 -1.5517 19.5966)" class="st4" cx="35.8" cy="12.7" rx="8.6" ry="1.7"/>
		
			<ellipse transform="matrix(0.9526 -0.3042 0.3042 0.9526 -2.403010e-02 14.2517)" class="st4" cx="45.7" cy="7.2" rx="1.3" ry="0.9"/>
		<g>
			<path class="st4" d="M59.8,118.6c-1,0-2-0.2-3-0.6l-12.4-4.9c-4.3-1.7-6.4-6.6-4.7-11l0.1-0.3c1.2-3.2,4.4-5.4,7.8-5.4
				c1,0,2,0.2,3,0.6l12.4,4.9c4.3,1.7,6.4,6.6,4.7,11l-0.1,0.3C66.4,116.4,63.2,118.6,59.8,118.6L59.8,118.6z"/>
			<g>
				<path class="st4" d="M47.6,96.9c1,0,1.9,0.2,2.8,0.5l12.4,4.9c4,1.6,6,6.2,4.4,10.3l-0.1,0.3c-1.2,3-4.1,5.1-7.3,5.1
					c-1,0-1.9-0.2-2.8-0.5l-12.4-4.9c-4-1.6-6-6.2-4.4-10.3l0.1-0.3C41.4,99,44.4,96.9,47.6,96.9 M47.6,95.9c-3.5,0-6.9,2.2-8.3,5.7
					l-0.1,0.3c-1.8,4.6,0.5,9.8,5,11.6l12.4,4.9c1,0.4,2.1,0.6,3.2,0.6c3.5,0,6.9-2.2,8.3-5.7l0.1-0.3c1.8-4.6-0.5-9.8-5-11.6
					l-12.4-4.9C49.7,96.1,48.7,95.9,47.6,95.9L47.6,95.9z"/>
			</g>
		</g>
		<g>
			<path class="st4" d="M88.9,115.6c-1,0-2-0.2-3-0.6l-12.4-4.9c-4.3-1.7-6.4-6.6-4.7-11l0.1-0.3c1.2-3.2,4.4-5.4,7.8-5.4
				c1,0,2,0.2,3,0.6l12.4,4.9c4.3,1.7,6.4,6.6,4.7,11l-0.1,0.3C95.5,113.4,92.4,115.6,88.9,115.6C88.9,115.6,88.9,115.6,88.9,115.6z
				"/>
			<g>
				<path class="st4" d="M76.7,93.9c1,0,1.9,0.2,2.8,0.5l12.4,4.9c4,1.6,6,6.2,4.4,10.3l-0.1,0.3c-1.2,3-4.1,5.1-7.3,5.1
					c-1,0-1.9-0.2-2.8-0.5l-12.4-4.9c-4-1.6-6-6.2-4.4-10.3l0.1-0.3C70.6,96,73.5,93.9,76.7,93.9 M76.7,92.9c-3.5,0-6.9,2.2-8.3,5.7
					L68.3,99c-1.8,4.6,0.5,9.8,5,11.6l12.4,4.9c1,0.4,2.1,0.6,3.2,0.6c3.5,0,6.9-2.2,8.3-5.7l0.1-0.3c1.8-4.6-0.5-9.8-5-11.6
					l-12.4-4.9C78.9,93.1,77.8,92.9,76.7,92.9L76.7,92.9z"/>
			</g>
		</g>
		<path class="st7" d="M95.2,112.1c-2,2.5-5,3.7-6.2,2.7c-1.2-0.9-0.5-3.8,1.5-6.3s4.6-3.8,5.8-2.8S97.2,109.6,95.2,112.1z"/>
		<path class="st7" d="M66,115.1c-2,2.5-5,3.7-6.2,2.7c-1.2-0.9-0.5-3.8,1.5-6.3c2-2.5,4.6-3.8,5.8-2.8S68,112.6,66,115.1z"/>
		<g>
			
				<linearGradient id="SVGID_00000168797989670413015120000009137646468085395076_" gradientUnits="userSpaceOnUse" x1="30.7752" y1="76.7427" x2="89.2248" y2="76.7427">
				<stop  offset="1.065558e-08" style="stop-color:#D0A7E8"/>
				<stop  offset="1" style="stop-color:#6DABE8"/>
			</linearGradient>
			<path style="fill:url(#SVGID_00000168797989670413015120000009137646468085395076_);" d="M82.2,69.1c-0.1,0.1-0.3,0.1-0.4,0.2
				c-14,5.7-29.5,5.7-43.5,0c-0.1-0.1-0.3-0.1-0.4-0.2c-1.6-0.7-3.5-0.2-4.7,1.2c-1.9,2.3-3.9,5.7-0.4,8c0,0,10.9,6.4,27.3,6.4
				c16.4,0,27.3-6.4,27.3-6.4c3.5-2.3,1.5-5.8-0.4-8C85.7,68.9,83.8,68.4,82.2,69.1z"/>
		</g>
		<path class="st9" d="M96.8,105.6l-13-0.4c-1.7-0.1-3.3,0.7-4.3,2.1l-7.7,10.5c-2.5,3.5-8,2.5-9.2-1.6l-3.7-12.5
			c-0.5-1.6-1.7-2.9-3.4-3.5l-12.4-4.1c-4.1-1.4-4.9-6.8-1.3-9.2l10.8-7.3c1.4-1,2.3-2.6,2.3-4.3l0.1-13.1c0-4.3,5-6.7,8.4-4.1
			l10.3,8c1.4,1,3.1,1.4,4.8,0.8l12.4-4c4.1-1.3,7.9,2.7,6.5,6.7L92.8,82c-0.6,1.6-0.3,3.4,0.7,4.8l7.6,10.6
			C103.6,100.9,101.1,105.8,96.8,105.6z"/>
		<circle class="st2" cx="92.1" cy="87" r="6.4"/>
		<g>
			<path class="st4" d="M50.4,95c-0.7,0-1.4-0.1-2.1-0.3l-10-3.4c-3.4-1.1-5.2-4.8-4.1-8.2l0.1-0.2c0.9-2.6,3.3-4.4,6.1-4.4
				c0.7,0,1.4,0.1,2.1,0.3l10,3.4c3.4,1.1,5.2,4.8,4.1,8.2l-0.1,0.2C55.6,93.2,53.1,95,50.4,95C50.4,95,50.4,95,50.4,95z"/>
			<g>
				<path class="st4" d="M40.4,79c0.6,0,1.3,0.1,1.9,0.3l10,3.4c3.1,1.1,4.8,4.5,3.8,7.6L56,90.4c-0.8,2.4-3,4-5.6,4
					c-0.6,0-1.3-0.1-1.9-0.3l-10-3.4c-3.1-1.1-4.8-4.5-3.8-7.6l0.1-0.2C35.6,80.6,37.9,79,40.4,79 M40.4,78c-2.9,0-5.6,1.8-6.5,4.7
					l-0.1,0.2c-1.2,3.6,0.8,7.6,4.4,8.8l10,3.4c0.7,0.2,1.5,0.4,2.2,0.4c2.9,0,5.6-1.8,6.5-4.7l0.1-0.2c1.2-3.6-0.8-7.6-4.4-8.8
					l-10-3.4C41.9,78.1,41.1,78,40.4,78L40.4,78z"/>
			</g>
		</g>
		<path class="st10" d="M86.9,90.7c1.2,1.5,2.8,2.2,3.5,1.7s0.2-2.1-0.9-3.6c-1.2-1.5-2.6-2.2-3.3-1.7
			C85.5,87.6,85.7,89.3,86.9,90.7z"/>
	</g>
</g>
<g id="레이어_2">
	<g>
		<g>
			
				<linearGradient id="SVGID_00000072973296159245330310000016927680822282214845_" gradientUnits="userSpaceOnUse" x1="12.907" y1="40.1546" x2="107.093" y2="40.1546">
				<stop  offset="1.065558e-08" style="stop-color:#D0A7E8"/>
				<stop  offset="1" style="stop-color:#6DABE8"/>
			</linearGradient>
			<path style="fill:url(#SVGID_00000072973296159245330310000016927680822282214845_);" d="M60,1c25.4,0,46.1,17.6,46.1,39.2
				S85.4,79.3,60,79.3S13.9,61.7,13.9,40.2S34.6,1,60,1 M60,0C34,0,12.9,18,12.9,40.2S34,80.3,60,80.3s47.1-18,47.1-40.2S86,0,60,0
				L60,0z"/>
		</g>
		<g>
			<path class="st4" d="M60,77.1c-18.3,0-33.1-11.9-33.1-26.6c0-3.7,0.9-7.3,2.8-10.7l0.2-0.4l-0.3-0.3c-2-1.7-3.1-4.1-3.1-6.7
				c0-4.9,4-8.9,8.9-8.9c2.9,0,5.6,1.4,7.3,3.8l0.2,0.3l0.4-0.2C48.3,25.3,54.1,24,60,24s11.7,1.3,16.8,3.7l0.4,0.2l0.2-0.3
				c1.7-2.4,4.4-3.8,7.3-3.8c4.9,0,8.9,4,8.9,8.9c0,2.6-1.1,5-3.1,6.7l-0.3,0.3l0.2,0.4c1.8,3.4,2.8,7,2.8,10.7
				C93.1,65.2,78.3,77.1,60,77.1z"/>
			<g>
				<path class="st4" d="M84.7,24.2c4.6,0,8.4,3.7,8.4,8.4c0,2.4-1.1,4.8-2.9,6.4l-0.6,0.5l0.4,0.7c1.8,3.3,2.7,6.8,2.7,10.4
					C92.6,64.9,78,76.6,60,76.6S27.4,64.9,27.4,50.5c0-3.6,0.9-7.1,2.7-10.4l0.4-0.7l-0.6-0.5C28,37.3,27,35,27,32.5
					c0-4.6,3.7-8.4,8.4-8.4c2.7,0,5.3,1.3,6.9,3.6l0.5,0.7l0.8-0.4c5-2.4,10.7-3.6,16.6-3.6c5.8,0,11.6,1.3,16.6,3.6l0.8,0.4
					l0.5-0.7C79.4,25.5,82,24.2,84.7,24.2 M84.7,23.2c-3.2,0-6,1.6-7.7,4c-5-2.4-10.8-3.7-17-3.7s-12,1.4-17,3.7
					c-1.7-2.4-4.5-4-7.7-4c-5.2,0-9.4,4.2-9.4,9.4c0,2.9,1.3,5.4,3.3,7.1c-1.8,3.3-2.9,7-2.9,10.9c0,14.9,15,27.1,33.6,27.1
					s33.6-12.1,33.6-27.1c0-3.9-1-7.6-2.9-10.9c2-1.7,3.3-4.3,3.3-7.1C94,27.4,89.9,23.2,84.7,23.2L84.7,23.2z"/>
			</g>
		</g>
		<g>
			<path class="st4" d="M35.3,93.5c-1.4,0-2.7-0.4-3.8-1.2l-0.2-0.1c-2.8-2.1-3.5-6.1-1.4-9l6.1-8.5c1.2-1.7,3.1-2.6,5.2-2.6
				c1.4,0,2.7,0.4,3.8,1.2l0.2,0.1c2.8,2.1,3.5,6.1,1.4,9l-6.1,8.5C39.3,92.6,37.3,93.5,35.3,93.5z"/>
			<g>
				<path class="st4" d="M41.3,72.5c1.3,0,2.4,0.4,3.5,1.1l0.2,0.1c2.6,1.9,3.2,5.7,1.3,8.3l-6.1,8.5C39,92.1,37.2,93,35.3,93
					c-1.3,0-2.4-0.4-3.5-1.1l-0.2-0.1c-2.6-1.9-3.2-5.7-1.3-8.3l6.1-8.5C37.6,73.5,39.4,72.5,41.3,72.5 M41.3,71.5
					c-2.1,0-4.2,1-5.6,2.8l-6.1,8.5c-2.2,3.1-1.6,7.5,1.5,9.7l0.2,0.1c1.2,0.9,2.6,1.3,4,1.3c2.1,0,4.2-1,5.6-2.8l6.1-8.5
					c2.2-3.1,1.6-7.5-1.5-9.7l-0.2-0.1C44.1,72,42.7,71.5,41.3,71.5L41.3,71.5z"/>
			</g>
		</g>
		<g>
			<path class="st4" d="M84.7,93.5c-2,0-4-1-5.2-2.6l-6.1-8.5c-2.1-2.9-1.5-6.9,1.4-9l0.2-0.1c1.1-0.8,2.4-1.2,3.8-1.2
				c2,0,4,1,5.2,2.6l6.1,8.5c2.1,2.9,1.5,6.9-1.4,9l-0.2,0.1C87.4,93.1,86.1,93.5,84.7,93.5C84.7,93.5,84.7,93.5,84.7,93.5z"/>
			<g>
				<path class="st4" d="M78.7,72.5c1.9,0,3.7,0.9,4.8,2.4l6.1,8.5c1.9,2.7,1.3,6.4-1.3,8.3l-0.2,0.1c-1,0.7-2.2,1.1-3.5,1.1
					c-1.9,0-3.7-0.9-4.8-2.4l-6.1-8.5c-1.9-2.7-1.3-6.4,1.3-8.3l0.2-0.1C76.3,72.9,77.5,72.5,78.7,72.5 M78.7,71.5
					c-1.4,0-2.8,0.4-4,1.3L74.5,73c-3.1,2.3-3.7,6.6-1.5,9.7l6.1,8.5c1.3,1.9,3.4,2.8,5.6,2.8c1.4,0,2.8-0.4,4-1.3l0.2-0.1
					c3.1-2.3,3.7-6.6,1.5-9.7l-6.1-8.5C83,72.5,80.9,71.5,78.7,71.5L78.7,71.5z"/>
			</g>
		</g>
		<g>
			<path class="st4" d="M49.7,119.5c-5,0-9.1-4.8-9.1-10.8c0-0.4,0-0.7,0-1.1l0-0.1l0-0.1c-4.9-17.1,1.6-28.5,2.8-30.3l6.9,1.3
				c3.2,0.6,6.4,0.9,9.7,0.9c3.3,0,6.5-0.3,9.7-0.9l6.8-1.3c7.5,10.5,4,26.2,2.8,30.8l0,0.1l0,0.3c0,0.1,0,0.3,0,0.4
				c0,6-4.1,10.8-9.1,10.8c-4.9,0-9-4.7-9.1-10.5l0-0.2l-0.2-0.1c-0.2-0.2-0.6-0.5-1-0.5c-0.4,0-0.8,0.3-1,0.5l-0.2,0.1l0,0.2
				C58.7,114.9,54.7,119.5,49.7,119.5z"/>
			<path class="st4" d="M76.3,77.7c7.1,10.3,3.7,25.6,2.5,30.1l0,0.2l0,0.2l0,0.2c0,0.1,0,0.3,0,0.4c0,5.7-3.9,10.3-8.6,10.3
				c-4.6,0-8.5-4.5-8.6-10l0-0.4l-0.3-0.3c-0.2-0.2-0.7-0.6-1.4-0.6c-0.7,0-1.2,0.5-1.4,0.6l-0.3,0.3l0,0.4
				c-0.1,5.6-3.8,10.1-8.6,10.1c-4.7,0-8.6-4.6-8.6-10.3c0-0.3,0-0.7,0-1l0-0.2l0-0.2c-4.6-16.2,1.1-27.2,2.6-29.6l6.6,1.3
				c3.2,0.6,6.5,0.9,9.7,0.9c3.3,0,6.6-0.3,9.8-0.9L76.3,77.7 M76.8,76.6l-7.2,1.4c-3.2,0.6-6.4,0.9-9.6,0.9c-3.2,0-6.4-0.3-9.6-0.9
				l-7.3-1.4c0,0-8.5,11.9-3.1,31c0,0.4,0,0.7,0,1.1c0,6.2,4.3,11.3,9.6,11.3c5.3,0,9.5-4.9,9.6-11c0.2-0.2,0.5-0.3,0.7-0.3
				c0.2,0,0.4,0.1,0.7,0.4c0.1,6.1,4.4,11,9.6,11c5.3,0,9.6-5.1,9.6-11.3c0-0.2,0-0.5,0-0.7C81.1,103.2,84.6,87.2,76.8,76.6
				L76.8,76.6z"/>
		</g>
		<g>
			
				<linearGradient id="SVGID_00000140698822548259874180000002098176776576821422_" gradientUnits="userSpaceOnUse" x1="30.9056" y1="76.4003" x2="89.0944" y2="76.4003">
				<stop  offset="1.065558e-08" style="stop-color:#D0A7E8"/>
				<stop  offset="1" style="stop-color:#6DABE8"/>
			</linearGradient>
			<path style="fill:url(#SVGID_00000140698822548259874180000002098176776576821422_);" d="M82.1,68.8c-0.1,0.1-0.3,0.1-0.4,0.2
				c-13.9,5.7-29.4,5.7-43.3,0c-0.1-0.1-0.3-0.1-0.4-0.2c-1.6-0.7-3.5-0.2-4.6,1.2c-1.9,2.2-3.9,5.7-0.4,8c0,0,10.9,6.4,27.2,6.4
				c16.3,0,27.2-6.4,27.2-6.4c3.5-2.3,1.5-5.7-0.4-8C85.6,68.6,83.7,68.1,82.1,68.8z"/>
		</g>
		<g class="st5">
			<circle class="st6" cx="41.3" cy="56.8" r="6.9"/>
			<circle class="st6" cx="78.7" cy="56.8" r="6.9"/>
		</g>
		<g>
			<path d="M69.3,43.9c1.3,0,2.4,1.1,2.4,2.4c0,1.3-1.1,2.3-2.4,2.4c-1.3,0-2.4-1.1-2.4-2.4C66.9,45,67.9,43.9,69.3,43.9z"/>
			<path d="M52.9,46.1c0,1.4-1,2.4-2.4,2.4c-1.3,0-2.4-1-2.4-2.4c0-1.3,1.1-2.4,2.4-2.4C51.9,43.8,52.9,44.8,52.9,46.1z"/>
			<path d="M59.9,53.6c-1.3,0-2.3-0.7-2.3-1.7c0-1,1-1.8,2.3-1.9c1.3,0,2.4,0.8,2.4,1.8C62.2,52.8,61.2,53.5,59.9,53.6z"/>
		</g>
		<path class="st4" d="M48.6,4.4"/>
		<ellipse transform="matrix(0.8663 -0.4996 0.4996 0.8663 -1.509 19.6429)" class="st4" cx="35.9" cy="12.6" rx="8.6" ry="1.7"/>
		
			<ellipse transform="matrix(0.9526 -0.3042 0.3042 0.9526 -1.123472e-02 14.2695)" class="st4" cx="45.8" cy="7.2" rx="1.3" ry="0.9"/>
	</g>
</g>
</svg>
