<svg width="22" height="22" viewBox="0 0 128 128" fill="current" xmlns="http://www.w3.org/2000/svg">
<g clip-path="url(#clip0_38_3556)">
<path d="M112.5 13.81C114.15 13.81 115.5 15.16 115.5 16.81C115.5 18.46 114.15 19.81 112.5 19.81C110.85 19.81 109.5 18.46 109.5 16.81C109.5 15.16 110.85 13.81 112.5 13.81ZM112.5 9.81C108.63 9.81 105.5 12.94 105.5 16.81C105.5 20.68 108.63 23.81 112.5 23.81C116.37 23.81 119.5 20.68 119.5 16.81C119.5 12.94 116.37 9.81 112.5 9.81Z"/>
<path d="M63.62 4.01C63.69 4.01 63.77 4.01 63.84 4.01L65.22 4.06C66.13 4.21 67 4.6 67.71 5.19L122.09 50.27C122.31 50.45 122.54 50.65 122.78 50.86C123.55 51.55 124 52.52 124 53.53V116.56C124 120.65 120.67 123.98 116.58 123.98H93.7C89.61 123.98 86.28 120.65 86.28 116.56V86.84C86.28 85.54 86.16 84.23 85.9 82.84C84.69 71.85 75.15 62.94 64.57 62.94C64.28 62.94 64 62.95 63.71 62.96C51.4 63.51 41.75 73.24 41.75 85.1V85.91V85.97C41.73 86.26 41.72 86.55 41.72 86.85V116.58C41.72 120.67 38.39 124 34.3 124H11.42C7.33 124 4 120.67 4 116.58V53.56C4 52.55 4.44 51.57 5.22 50.88C5.46 50.67 5.69 50.47 5.91 50.29L60.29 5.2C61.22 4.43 62.4 4.01 63.62 4.01ZM64.38 0C64.26 0 64.13 0 64 0.01V0.02C63.87 0.01 63.74 0.01 63.62 0.01C61.53 0.01 59.44 0.71 57.74 2.12L3.35 47.21C3.1 47.42 2.83 47.65 2.56 47.89C0.94 49.33 0 51.39 0 53.56V116.59C0 122.89 5.11 128 11.42 128H34.3C40.61 128 45.72 122.89 45.72 116.58V86.85C45.72 86.57 45.74 86.3 45.75 86.02V85.1C45.75 74.93 54.06 67.39 63.9 66.95C64.13 66.94 64.36 66.93 64.58 66.93C73.51 66.93 81.07 74.77 81.95 83.41C82.16 84.53 82.29 85.67 82.29 86.83V116.56C82.29 122.87 87.4 127.98 93.71 127.98H116.59C122.9 127.98 128.01 122.87 128.01 116.56V53.55C128.01 51.38 127.07 49.32 125.45 47.88C125.18 47.64 124.91 47.41 124.66 47.2L70.27 2.11C68.56 0.7 66.47 0 64.38 0Z"/>
</g>
</svg>
