<svg width="22" height="22" viewBox="0 0 128 124" fill="current" xmlns="http://www.w3.org/2000/svg">
<path fill-rule="evenodd" clip-rule="evenodd" d="M91.46 122.82C91.76 123.01 92.06 123.11 92.38 123.11C92.92 123.11 93.45 122.82 93.81 122.33C94.23 121.74 94.34 120.99 94.1 120.27L85.09 92.95H110.5C119.87 92.95 127.5 84.47 127.5 74.06V19.77C127.5 9.35 119.87 0.880005 110.5 0.880005H17.5C8.13 0.880005 0.5 9.36 0.5 19.77V74.06C0.5 84.48 8.13 92.95 17.5 92.95H45.58L91.46 122.82ZM44.5 47.39C44.5 52.0844 40.6944 55.89 36 55.89C31.3056 55.89 27.5 52.0844 27.5 47.39C27.5 42.6956 31.3056 38.89 36 38.89C40.6944 38.89 44.5 42.6956 44.5 47.39ZM64 55.89C68.6944 55.89 72.5 52.0844 72.5 47.39C72.5 42.6956 68.6944 38.89 64 38.89C59.3056 38.89 55.5 42.6956 55.5 47.39C55.5 52.0844 59.3056 55.89 64 55.89ZM100.5 47.39C100.5 52.0844 96.6944 55.89 92 55.89C87.3056 55.89 83.5 52.0844 83.5 47.39C83.5 42.6956 87.3056 38.89 92 38.89C96.6944 38.89 100.5 42.6956 100.5 47.39Z"/>
<path d="M110.5 1.39001C119.6 1.39001 127 9.64002 127 19.78V74.07C127 84.21 119.6 92.46 110.5 92.46H85.78H84.4L84.83 93.77L93.63 120.43C93.82 121 93.74 121.58 93.41 122.04C93.15 122.41 92.76 122.62 92.38 122.62C92.16 122.62 91.95 122.55 91.74 122.41L45.97 92.61L45.72 92.45H45.42H17.5C8.4 92.45 1 84.2 1 74.06V19.77C1 9.64002 8.4 1.39001 17.5 1.39001H110.5ZM110.5 0.390015H17.5C7.83 0.390015 0 9.07002 0 19.77V74.06C0 84.77 7.83 93.45 17.5 93.45H45.43L91.19 123.24C91.58 123.49 91.99 123.61 92.38 123.61C93.89 123.61 95.18 121.93 94.58 120.11L85.78 93.45H110.5C120.16 93.45 128 84.77 128 74.06V19.77C128 9.07002 120.17 0.390015 110.5 0.390015Z"/>
<path fill-rule="evenodd" clip-rule="evenodd" d="M36 39.39C40.41 39.39 44 42.98 44 47.39C44 51.8 40.41 55.39 36 55.39C31.59 55.39 28 51.8 28 47.39C28 42.98 31.59 39.39 36 39.39ZM36 38.39C31.03 38.39 27 42.42 27 47.39C27 52.36 31.03 56.39 36 56.39C40.97 56.39 45 52.36 45 47.39C45 42.42 40.97 38.39 36 38.39ZM64 39.39C68.41 39.39 72 42.98 72 47.39C72 51.8 68.41 55.39 64 55.39C59.59 55.39 56 51.8 56 47.39C56 42.98 59.59 39.39 64 39.39ZM64 38.39C59.03 38.39 55 42.42 55 47.39C55 52.36 59.03 56.39 64 56.39C68.97 56.39 73 52.36 73 47.39C73 42.42 68.97 38.39 64 38.39ZM100 47.39C100 42.98 96.41 39.39 92 39.39C87.59 39.39 84 42.98 84 47.39C84 51.8 87.59 55.39 92 55.39C96.41 55.39 100 51.8 100 47.39ZM83 47.39C83 42.42 87.03 38.39 92 38.39C96.97 38.39 101 42.42 101 47.39C101 52.36 96.97 56.39 92 56.39C87.03 56.39 83 52.36 83 47.39Z"/>
</svg>