<svg width="22" height="22" viewBox="0 0 128 123" fill="current" xmlns="http://www.w3.org/2000/svg">
<path d="M63.7 71.3C68.9467 71.3 73.1999 67.0467 73.1999 61.8C73.1999 56.5533 68.9467 52.3 63.7 52.3C58.4532 52.3 54.2 56.5533 54.2 61.8C54.2 67.0467 58.4532 71.3 63.7 71.3Z"/>
<path d="M55 116.9L60.2999 107.7C61.3999 107.8 62.5 107.8 63.7 107.8C64.8999 107.8 66 107.7 67.1 107.7L72.4 116.9C75.7 122.6 83 124.6 88.7 121.3L102.7 113.2C108.4 109.9 110.4 102.6 107.1 96.9L101.8 87.7C103.1 85.8 104.2 83.9 105.2 81.8H115.8C122.4 81.8 127.7 76.5 127.7 69.9V53.8C127.7 47.2 122.4 41.9 115.8 41.9H105.2C104.2 39.9 103.1 37.9 101.8 36L107.1 26.8C110.4 21.1 108.4 13.8 102.7 10.5L88.7 2.39999C83 -0.900012 75.7 0.999988 72.4 6.79999L67.1 16C66 15.9 64.8999 15.9 63.7 15.9C62.5 15.9 61.3999 16 60.2999 16L55 6.79999C51.7 0.999988 44.4 -0.900012 38.7 2.39999L24.7 10.5C19 13.7 17 21 20.2999 26.8L25.6 36C24.3 37.9 23.2 39.8 22.2 41.9H11.6C4.99995 41.8 -0.300049 47.2 -0.300049 53.8V69.9C-0.300049 76.5 4.99995 81.8 11.6 81.8H22.2C23.2 83.8 24.3 85.8 25.6 87.7L20.2999 96.9C17 102.6 19 109.9 24.7 113.2L38.7 121.3C44.4 124.6 51.7 122.6 55 116.9ZM63.7 82.3C52.4 82.3 43.2999 73.1 43.2999 61.9C43.2999 50.7 52.5 41.5 63.7 41.5C74.8999 41.5 84.1 50.7 84.1 61.9C84.1 73.1 75 82.3 63.7 82.3Z"/>
</svg>
