<svg width="380" height="720" viewBox="0 0 380 720" fill="none" xmlns="http://www.w3.org/2000/svg">
<path d="M73.1016 87.2188V89.9688H75.0234V91.6094H73.1016V94.3281H71.1016V87.2188H73.1016ZM69.0703 87.8906V93.7969H62.2422V87.8906H69.0703ZM64.2109 89.4531V92.2188H67.1016V89.4531H64.2109ZM73.1016 94.8906V98.7656H65.6484V99.7188H73.5078V101.281H63.6953V97.3281H71.1172V96.4219H63.6641V94.8906H73.1016ZM86.9297 87.1875V90.2812H88.8516V91.875H86.9297V94.8906H84.9297V87.1875H86.9297ZM86.9297 95.4688V99.0625H79.4766V99.875H87.3359V101.344H77.5234V97.7031H84.9453V96.9062H77.4922V95.4688H86.9297ZM84.0859 88.2812V89.7969H75.6484V88.2812H78.8828V87.125H80.8672V88.2812H84.0859ZM79.8672 90.1406C81.9922 90.1406 83.3672 91.0469 83.3672 92.4688C83.3672 93.9219 81.9922 94.7969 79.8672 94.7969C77.7422 94.7969 76.3359 93.9219 76.3359 92.4688C76.3359 91.0469 77.7422 90.1406 79.8672 90.1406ZM79.8672 91.5469C78.8828 91.5469 78.2734 91.875 78.2891 92.4688C78.2734 93.0781 78.8828 93.375 79.8672 93.375C80.8516 93.375 81.4766 93.0781 81.4766 92.4688C81.4766 91.875 80.8516 91.5469 79.8672 91.5469ZM100.711 88.3281C100.711 90 102.414 91.8594 105.68 92.2656L104.898 93.875C102.414 93.5156 100.594 92.3672 99.6641 90.8281C98.7266 92.3672 96.9219 93.5156 94.4609 93.875L93.6641 92.2656C96.8984 91.8594 98.6172 90 98.6172 88.3281V87.6406H100.711V88.3281ZM106.133 94.9531V96.5781H100.602V101.438H98.6328V96.5781H93.1641V94.9531H106.133ZM114.102 95.5312V96.9531H115.633V95.5312H117.477V99.8438C119.055 99.1406 119.727 97.8125 119.727 96.5156V95.4219H121.727V96.5156C121.711 97.9688 122.414 99.3438 124.195 99.9219L123.164 101.406C121.938 100.984 121.148 100.172 120.695 99.1562C120.219 100.141 119.438 100.961 118.289 101.406L117.477 100.172V101.281H112.258V95.5312H114.102ZM114.102 99.7656H115.633V98.4219H114.102V99.7656ZM114.648 87.75C116.461 87.75 117.906 88.7578 118.305 90.2656H120.68V87.2188H122.664V94.75H120.68V91.9062H118.305C117.922 93.4453 116.469 94.4688 114.648 94.4688C112.461 94.4688 110.852 93.0781 110.867 91.0938C110.852 89.1406 112.461 87.75 114.648 87.75ZM114.648 89.3906C113.539 89.3906 112.742 90.0469 112.758 91.0938C112.742 92.1719 113.539 92.8281 114.648 92.8438C115.727 92.8281 116.508 92.1719 116.508 91.0938C116.508 90.0469 115.727 89.3906 114.648 89.3906ZM136.055 91.0938V92.6562H126.117V87.7188H128.102V91.0938H136.055ZM137.508 94.1875V95.75H124.492V94.1875H137.508ZM136.148 99.5312V101.125H125.992V96.9062H127.992V99.5312H136.148ZM153.742 88.4531V89.7969C153.742 91.5781 153.742 93.5781 153.164 96.5938L151.164 96.3906C151.703 93.7031 151.727 91.7031 151.742 90.0312H143.367V88.4531H153.742ZM154.992 98.0781V99.7031H142.023V98.0781H146.664V93.1875H148.648V98.0781H154.992ZM163.523 88.3594V95.2188H156.57V88.3594H163.523ZM158.539 89.9375V93.6406H161.539V89.9375H158.539ZM167.758 87.2344V97.3438H165.758V87.2344H167.758ZM168.133 99.5156V101.125H158.227V96.4062H160.242V99.5156H168.133ZM181.586 87.2188V101.469H179.57V87.2188H181.586ZM173.867 88.2188C176.008 88.2188 177.602 90.1875 177.602 93.2812C177.602 96.4062 176.008 98.3594 173.867 98.3594C171.68 98.3594 170.086 96.4062 170.102 93.2812C170.086 90.1875 171.68 88.2188 173.867 88.2188ZM173.867 90.0156C172.758 90.0156 172.023 91.1719 172.023 93.2812C172.023 95.4062 172.758 96.5469 173.867 96.5469C174.945 96.5469 175.68 95.4062 175.68 93.2812C175.68 91.1719 174.945 90.0156 173.867 90.0156ZM192.367 96.3438C192.367 97.4922 192.844 98.6719 194.008 99.4531C195.18 98.625 195.695 97.3984 195.695 96.3438V95.8594H197.664V96.3438C197.648 97.8281 198.445 99.2031 200.336 99.7812L199.367 101.234C198.008 100.773 197.117 99.9062 196.633 98.8125C196.156 99.9062 195.328 100.859 194.055 101.359C192.711 100.875 191.875 99.9531 191.414 98.8594C190.914 99.9219 190.039 100.781 188.742 101.234L187.758 99.7812C189.633 99.1406 190.414 97.7344 190.43 96.3438V95.8594H192.367V96.3438ZM199.102 87.2344V95.2656H197.102V87.2344H199.102ZM191.305 87.9531C193.523 87.9531 195.195 89.3594 195.195 91.375C195.195 93.3594 193.523 94.7656 191.305 94.7656C189.086 94.7656 187.414 93.3594 187.414 91.375C187.414 89.3594 189.086 87.9531 191.305 87.9531ZM191.305 89.625C190.164 89.625 189.352 90.2812 189.367 91.375C189.352 92.4531 190.164 93.1094 191.305 93.1094C192.414 93.1094 193.227 92.4531 193.227 91.375C193.227 90.2812 192.414 89.625 191.305 89.625ZM212.57 91.0938V92.6562H202.633V87.7188H204.617V91.0938H212.57ZM214.023 94.1875V95.75H201.008V94.1875H214.023ZM212.664 99.5312V101.125H202.508V96.9062H204.508V99.5312H212.664ZM230.523 87.2344V98.0625H228.539V95.375H226.617V93.7969H228.539V92.375H226.617V90.7656H228.539V87.2344H230.523ZM226.477 88.7188V90.2969H218.57V88.7188H221.633V87.2031H223.617V88.7188H226.477ZM222.602 90.7969C224.555 90.7969 225.961 91.9531 225.977 93.5938C225.961 95.2344 224.555 96.375 222.602 96.375C220.664 96.375 219.258 95.2344 219.273 93.5938C219.258 91.9531 220.664 90.7969 222.602 90.7969ZM222.602 92.3438C221.727 92.3594 221.117 92.7969 221.133 93.5938C221.117 94.4062 221.727 94.8594 222.602 94.8594C223.461 94.8594 224.086 94.4062 224.102 93.5938C224.086 92.7969 223.461 92.3594 222.602 92.3438ZM230.82 99.5938V101.188H221.055V97.1406H223.07V99.5938H230.82ZM244.664 87.2188V101.438H242.773V94.2969H241.398V100.75H239.57V87.4531H241.398V92.7031H242.773V87.2188H244.664ZM238.07 88.8594V90.4688H234.773V96.5312C236.148 96.5234 237.367 96.4531 238.742 96.2031L238.883 97.8281C237.148 98.1562 235.633 98.2031 233.758 98.2188H232.773V88.8594H238.07ZM258.102 87.2344V97.4531H256.102V87.2344H258.102ZM258.477 99.5938V101.188H248.57V96.4219H250.586V99.5938H258.477ZM250.305 88.1406C252.492 88.1406 254.195 89.6406 254.195 91.7188C254.195 93.8438 252.492 95.3281 250.305 95.3281C248.117 95.3281 246.414 93.8438 246.414 91.7188C246.414 89.6406 248.117 88.1406 250.305 88.1406ZM250.305 89.875C249.195 89.8594 248.352 90.5625 248.367 91.7188C248.352 92.9062 249.195 93.5938 250.305 93.5938C251.383 93.5938 252.227 92.9062 252.227 91.7188C252.227 90.5625 251.383 89.8594 250.305 89.875ZM273.023 92.7656V94.3281H260.023V92.7656H273.023ZM271.477 90.4219V91.9844H261.648V87.5H271.367V89.0938H263.633V90.4219H271.477ZM271.414 95.1719V98.8906H263.492V99.7656H271.789V101.312H261.539V97.4688H269.445V96.6719H261.523V95.1719H271.414ZM280.336 87.4219C283.602 87.4219 285.492 88.2812 285.508 89.8438C285.492 91.4219 283.602 92.2812 280.336 92.2812C277.055 92.2812 275.148 91.4219 275.148 89.8438C275.148 88.2812 277.055 87.4219 280.336 87.4219ZM280.336 88.875C278.242 88.875 277.227 89.2188 277.242 89.8438C277.227 90.5469 278.242 90.8125 280.336 90.8125C282.445 90.8125 283.445 90.5469 283.445 89.8438C283.445 89.2188 282.445 88.875 280.336 88.875ZM286.82 92.9531V94.5312H273.852V92.9531H286.82ZM285.242 95.3594V98.9844H277.32V99.8438H285.617V101.344H275.367V97.5938H283.273V96.8125H275.352V95.3594H285.242ZM296.008 87.8125C298.18 87.7969 299.758 89.0312 299.758 90.8281C299.758 92.6094 298.18 93.8594 296.008 93.8438C293.836 93.8594 292.258 92.6094 292.273 90.8281C292.258 89.0312 293.836 87.7969 296.008 87.8125ZM296.008 89.4062C294.945 89.4062 294.195 89.9219 294.195 90.8281C294.195 91.7188 294.945 92.2344 296.008 92.2188C297.102 92.2344 297.867 91.7188 297.867 90.8281C297.867 89.9219 297.102 89.4062 296.008 89.4062ZM303.352 87.2344V101.438H301.383V87.2344H303.352ZM291.398 94.7188C293.914 94.7188 297.492 94.6562 300.523 94.2031L300.648 95.6719C299.477 95.9062 298.273 96.0547 297.086 96.1406V101.016H295.102V96.2656C293.852 96.3203 292.672 96.3281 291.648 96.3438L291.398 94.7188ZM316.477 87.2344V91.5938H318.398V93.2188H316.477V97.8438H314.477V87.2344H316.477ZM313.633 88.7188V90.2969H305.195V88.7188H308.43V87.2031H310.414V88.7188H313.633ZM309.414 90.7969C311.477 90.7969 312.914 91.9062 312.914 93.5469C312.914 95.1875 311.477 96.2656 309.414 96.2656C307.336 96.2656 305.883 95.1875 305.883 93.5469C305.883 91.9062 307.336 90.7969 309.414 90.7969ZM309.414 92.3125C308.461 92.3281 307.82 92.7656 307.836 93.5469C307.82 94.3281 308.461 94.75 309.414 94.75C310.367 94.75 311.023 94.3281 311.023 93.5469C311.023 92.7656 310.367 92.3281 309.414 92.3125ZM316.992 99.5938V101.188H307.258V97.0312H309.242V99.5938H316.992ZM231.93 109.219V117.969H230.023V109.219H231.93ZM229.18 109.453V117.953H227.305V117.469H225.164V116.141H227.305V109.453H229.18ZM219.445 114.484C221.305 114.484 224.414 114.438 226.695 114.094L226.836 115.422C226.016 115.602 225.117 115.727 224.211 115.812V117.891H222.305V115.922C221.305 115.961 220.375 115.969 219.633 115.969L219.445 114.484ZM223.742 118.422V119.375H229.945V118.422H231.93V123.281H221.773V118.422H223.742ZM223.742 121.75H229.945V120.891H223.742V121.75ZM223.164 109.703C225.023 109.703 226.305 110.516 226.305 111.828C226.305 113.125 225.023 113.953 223.164 113.969C221.305 113.953 220.039 113.125 220.039 111.828C220.039 110.516 221.305 109.703 223.164 109.703ZM223.164 111.078C222.336 111.078 221.852 111.312 221.852 111.828C221.852 112.344 222.336 112.578 223.164 112.578C223.992 112.578 224.523 112.344 224.523 111.828C224.523 111.312 223.992 111.078 223.164 111.078ZM238.602 112.438C238.586 114.984 239.68 117.562 241.961 118.656L240.758 120.25C239.234 119.5 238.211 118.094 237.617 116.375C237 118.219 235.898 119.727 234.289 120.516L233.055 118.906C235.461 117.797 236.602 115.078 236.602 112.438V110.312H238.602V112.438ZM244.586 109.219V114.703H246.68V116.391H244.586V123.438H242.586V109.219H244.586ZM259.102 109.219V123.469H257.086V109.219H259.102ZM251.383 110.219C253.523 110.219 255.117 112.188 255.117 115.281C255.117 118.406 253.523 120.359 251.383 120.359C249.195 120.359 247.602 118.406 247.617 115.281C247.602 112.188 249.195 110.219 251.383 110.219ZM251.383 112.016C250.273 112.016 249.539 113.172 249.539 115.281C249.539 117.406 250.273 118.547 251.383 118.547C252.461 118.547 253.195 117.406 253.195 115.281C253.195 113.172 252.461 112.016 251.383 112.016ZM272.617 116.562V118.141H262.555V110.266H272.508V111.875H264.586V113.375H272.18V114.938H264.586V116.562H272.617ZM274.039 120.156V121.781H261.023V120.156H274.039Z" fill="white"/>
<path d="M111.336 110.688V122H108.977V112.922H108.914L106.32 114.547V112.469L109.117 110.688H111.336ZM115.336 120.625C114.602 120.625 114.008 120.031 114.023 119.312C114.008 118.594 114.602 118.016 115.336 118.016C116.023 118.016 116.633 118.594 116.633 119.312C116.633 120.031 116.023 120.625 115.336 120.625ZM115.336 114.672C114.602 114.672 114.008 114.078 114.023 113.359C114.008 112.641 114.602 112.062 115.336 112.062C116.023 112.062 116.633 112.641 116.633 113.359C116.633 114.078 116.023 114.672 115.336 114.672ZM123.352 110.688V122H120.992V112.922H120.93L118.336 114.547V112.469L121.133 110.688H123.352ZM141.102 118.234V123.438H139.102V119.828H131.32V118.234H141.102ZM141.102 109.219V117.562H139.102V109.219H141.102ZM133.305 110C135.523 109.984 137.195 111.453 137.195 113.453C137.195 115.5 135.523 116.938 133.305 116.938C131.086 116.938 129.414 115.5 129.414 113.453C129.414 111.453 131.086 109.984 133.305 110ZM133.305 111.703C132.164 111.703 131.352 112.344 131.367 113.453C131.352 114.594 132.164 115.25 133.305 115.25C134.414 115.25 135.227 114.594 135.227 113.453C135.227 112.344 134.414 111.703 133.305 111.703ZM155.008 109.219V117.547H153.023V115.734H150.367V116.766H143.617V110.266H150.367V111.297H153.023V109.219H155.008ZM145.602 111.844V115.188H148.414V111.844H145.602ZM150.148 117.922C153.18 117.922 155.039 118.938 155.055 120.688C155.039 122.438 153.18 123.438 150.148 123.438C147.117 123.438 145.258 122.438 145.258 120.688C145.258 118.938 147.117 117.922 150.148 117.922ZM150.148 119.438C148.258 119.438 147.242 119.844 147.242 120.688C147.242 121.5 148.258 121.922 150.148 121.922C152.039 121.922 153.07 121.5 153.07 120.688C153.07 119.844 152.039 119.438 150.148 119.438ZM150.367 114.125H153.023V112.875H150.367V114.125ZM172.258 110.453V111.797C172.258 113.578 172.258 115.578 171.68 118.594L169.68 118.391C170.219 115.703 170.242 113.703 170.258 112.031H161.883V110.453H172.258ZM173.508 120.078V121.703H160.539V120.078H165.18V115.188H167.164V120.078H173.508ZM182.039 110.359V117.219H175.086V110.359H182.039ZM177.055 111.938V115.641H180.055V111.938H177.055ZM186.273 109.234V119.344H184.273V109.234H186.273ZM186.648 121.516V123.125H176.742V118.406H178.758V121.516H186.648ZM194.602 118.078C197.711 118.078 199.664 119.062 199.68 120.766C199.664 122.438 197.711 123.438 194.602 123.438C191.523 123.438 189.539 122.438 189.539 120.766C189.539 119.062 191.523 118.078 194.602 118.078ZM194.602 119.562C192.648 119.562 191.523 119.969 191.523 120.766C191.523 121.531 192.648 121.922 194.602 121.922C196.555 121.922 197.695 121.531 197.695 120.766C197.695 119.969 196.555 119.562 194.602 119.562ZM199.602 109.859V111.016C199.602 112.141 199.602 113.359 199.195 114.828L197.242 114.641C197.555 113.352 197.594 112.391 197.617 111.422H189.68V109.859H199.602ZM201.133 115.562V117.172H188.227V115.562H193.07V113.078H195.039V115.562H201.133ZM215.023 117.125V118.734H211.977V123.438H209.945V118.734H207.039V123.438H204.992V118.734H202.008V117.125H215.023ZM208.477 109.688C211.523 109.688 213.664 110.953 213.664 112.906C213.664 114.828 211.523 116.031 208.477 116.031C205.43 116.031 203.305 114.828 203.32 112.906C203.305 110.953 205.43 109.688 208.477 109.688ZM208.477 111.281C206.57 111.281 205.352 111.859 205.367 112.906C205.352 113.906 206.57 114.469 208.477 114.469C210.398 114.469 211.602 113.906 211.602 112.906C211.602 111.859 210.398 111.281 208.477 111.281Z" fill="#FED56B"/>
<path d="M234.424 242.618H195.593C190.349 242.618 186.145 238.413 186.145 233.17V219.984C186.145 214.741 190.349 210.536 195.593 210.536H234.424C239.667 210.536 243.872 214.741 243.872 219.984V233.17C243.976 238.413 239.667 242.618 234.424 242.618Z" fill="#E88439" stroke="white" stroke-width="2.5" stroke-miterlimit="10"/>
<path d="M241.696 188.888C266.562 188.888 278.399 192.729 278.97 196.519C279.437 199.374 273.519 204.929 255.453 211.418C238.893 217.44 216.518 222.683 192.431 226.317C172.911 229.276 154.171 230.73 138.129 230.73C113.263 230.73 101.427 226.888 100.856 223.098C100.389 220.243 106.307 214.689 124.373 208.199C140.933 202.177 163.307 196.934 187.395 193.3C206.966 190.393 225.811 188.888 241.696 188.888ZM241.696 187.071C226.226 187.071 207.381 188.524 187.187 191.483C136.987 198.959 97.5854 213.183 99.039 223.306C99.9734 229.328 115.184 232.495 137.974 232.495C153.444 232.495 172.288 231.041 192.482 228.082C242.682 220.607 282.084 206.382 280.631 196.259C279.904 190.289 264.538 187.071 241.696 187.071Z" fill="white"/>
<path d="M193.317 215.364C193.317 212.768 190.566 210.588 187.295 210.588H142.338C139.068 210.588 136.316 212.768 136.316 215.364C136.316 217.96 139.068 220.14 142.338 220.14H144.519C142.234 220.14 140.106 220.919 138.601 222.061C137.251 223.099 136.316 224.449 136.316 226.058V226.525V236.648C136.316 236.856 136.316 237.583 136.316 237.79C136.316 240.386 139.068 242.566 142.338 242.566H187.295C190.566 242.566 193.317 240.386 193.317 237.79C193.317 235.195 190.566 233.014 187.295 233.014H185.115C189.683 233.014 193.317 230.159 193.317 226.525C193.317 226.421 193.317 226.318 193.317 226.162C193.317 226.058 193.317 226.058 193.317 225.954V216.298C193.317 216.194 193.317 215.468 193.317 215.364Z" fill="#E88439" stroke="white" stroke-width="2.5" stroke-miterlimit="10"/>
<path d="M144.363 220.14H178.211" stroke="white" stroke-width="2.5" stroke-miterlimit="10"/>
<path d="M151.527 233.118H185.271" stroke="white" stroke-width="2.5" stroke-miterlimit="10"/>
<path d="M235.465 177C235.257 177 234.997 177 234.79 177C234.582 177 234.323 177 234.115 177H195.959C190.508 177 186.199 180.53 186.199 184.735C186.199 189.044 190.612 192.47 195.959 192.47H226.951V194.858C226.951 198.596 230.793 201.555 235.465 201.555C240.137 201.555 243.978 198.492 243.978 194.858V183.749C243.978 179.959 240.137 177 235.465 177Z" fill="#E88439" stroke="white" stroke-width="2.5" stroke-miterlimit="10"/>
<mask id="mask0_1143_2664" style="mask-type:luminance" maskUnits="userSpaceOnUse" x="182" y="207" width="66" height="39">
<path d="M182.98 207.421V245.837H247.145V207.421H182.98ZM194.246 237.842C194.246 240.23 192.429 242.255 189.833 243.189C186.303 241.164 184.019 237.375 184.019 233.17V219.984C184.019 215.779 186.303 212.041 189.833 209.965C192.429 210.743 194.246 212.82 194.246 215.312V226.006C212.882 223.151 230.377 219.309 244.809 215C245.017 215.571 245.276 216.142 245.484 216.713C231.156 221.022 213.453 225.019 194.142 227.978C193.675 230.003 192.325 231.716 190.3 232.858C192.636 233.533 194.246 235.61 194.246 237.842Z" fill="white"/>
</mask>
<g mask="url(#mask0_1143_2664)">
<path d="M234.424 242.618H195.593C190.349 242.618 186.145 238.413 186.145 233.17V219.984C186.145 214.741 190.349 210.536 195.593 210.536H234.424C239.667 210.536 243.872 214.741 243.872 219.984V233.17C243.976 238.413 239.667 242.618 234.424 242.618Z" fill="#E88439" stroke="white" stroke-width="2.5" stroke-miterlimit="10"/>
</g>
<path d="M164.71 177.104C160.142 177.104 156.404 180.738 156.196 185.151H152.926C152.822 180.738 149.084 177.104 144.412 177.104C139.74 177.104 135.898 180.842 135.898 185.41V194.962V196V202.749C135.898 208.2 140.311 212.509 145.918 212.509H163.309C168.759 212.509 173.328 208.096 173.328 202.749V195.948V194.91V185.358C173.224 180.842 169.382 177.104 164.71 177.104Z" fill="#E88439" stroke="white" stroke-width="2.5" stroke-miterlimit="10"/>
<path d="M184.794 177.675C180.485 177.675 176.955 180.842 176.384 184.943H173.685C170.726 184.943 168.441 187.331 168.441 190.186C168.441 193.145 170.829 195.429 173.685 195.429H176.28V197.142H173.685C170.726 197.142 168.441 199.53 168.441 202.385C168.441 205.241 170.829 207.629 173.685 207.629H176.851C178.097 210.795 181.16 213.183 184.794 213.183C189.466 213.183 193.308 209.342 193.308 204.67V186.292C193.308 181.516 189.57 177.675 184.794 177.675Z" fill="#E88439" stroke="white" stroke-width="2.5" stroke-miterlimit="10"/>
<path d="M237.285 198.025H221.4V196.52C221.4 192.989 218.544 190.134 215.014 190.134C211.484 190.134 208.629 192.989 208.629 196.52V197.973H192.744C189.006 197.973 186.047 200.932 186.047 204.67V208.096C186.047 211.834 189.006 214.793 192.744 214.793H237.129C240.867 214.793 243.826 211.834 243.826 208.096V204.67C243.982 201.088 240.919 198.025 237.285 198.025Z" fill="#E88439" stroke="white" stroke-width="2.5" stroke-miterlimit="10"/>
<path d="M149.602 200.049L157.077 195.74" stroke="white" stroke-width="2.5" stroke-miterlimit="10"/>
<path d="M158.688 192.781L159.623 193.56L160.713 193.352L160.038 194.235L160.298 195.377L159.259 194.702L158.117 194.806L158.896 193.923L158.688 192.781Z" fill="#F7F7F7"/>
<path d="M158.688 192.781L158.896 193.923L158.117 194.806L159.259 194.702L160.298 195.377L160.038 194.235L160.713 193.352L159.623 193.56L158.688 192.781Z" fill="white"/>
<path d="M226.953 192.314V198.907C226.953 203.683 230.795 207.525 235.467 207.525C240.139 207.525 243.981 203.683 243.981 198.907V192.314" fill="#E88439"/>
<path d="M226.953 192.314V198.907C226.953 203.683 230.795 207.525 235.467 207.525C240.139 207.525 243.981 203.683 243.981 198.907V192.314" stroke="white" stroke-width="2.5" stroke-miterlimit="10"/>
<path d="M208.105 229.121H221.966" stroke="white" stroke-width="2.5" stroke-miterlimit="10"/>
<path d="M265.891 214.792C269.275 214.792 272.017 212.05 272.017 208.667C272.017 205.284 269.275 202.541 265.891 202.541C262.508 202.541 259.766 205.284 259.766 208.667C259.766 212.05 262.508 214.792 265.891 214.792Z" fill="#E88439" stroke="white" stroke-width="2.5" stroke-miterlimit="10"/>
<path d="M116.687 214.689C118.952 214.689 120.788 212.853 120.788 210.588C120.788 208.323 118.952 206.487 116.687 206.487C114.422 206.487 112.586 208.323 112.586 210.588C112.586 212.853 114.422 214.689 116.687 214.689Z" fill="#E88439" stroke="white" stroke-width="2.5" stroke-miterlimit="10"/>
<path d="M185.692 469.917C184.967 467.545 184.362 465.116 183.883 462.638L185.692 469.917Z" fill="#FED56B"/>
<path d="M182.184 462.457C182.184 462.457 183.028 468.047 183.613 469.772C183.979 470.856 185.971 469.046 187.393 467.561C187.182 466.716 187.14 465.864 187.133 465.02L182.184 462.457Z" fill="#FED56B"/>
<path d="M187.745 468.609C188.146 468.214 188.28 467.855 187.928 467.595C186.477 466.504 181.43 463.948 181.43 463.948L181.556 464.737C183.492 466.314 186.266 466.609 187.745 468.609Z" fill="#FED56B"/>
<path d="M181.691 464.2L182.093 466.699C183.726 467.734 185.746 467.981 187.542 468.361C187.668 468.262 187.781 468.164 187.88 468.065C186.394 466.073 183.62 465.777 181.691 464.2Z" fill="#FED56B"/>
<path d="M103.584 484.72C102.542 479.307 102 473.717 102 468C102 419.396 141.396 380 190 380C238.604 380 278 419.396 278 468C278 516.605 238.604 556 190 556C150.386 556 116.883 529.819 105.851 493.816" fill="#FED56B"/>
<path opacity="0.5" d="M133.236 400.747C133.236 400.747 154.391 383.049 178.13 380.796C201.869 378.543 204.551 395.784 195.815 403.401C187.085 411.012 171.857 428.26 188.423 436.989C204.988 445.719 233.88 461.848 230.74 475.505C227.607 489.163 190.436 504.616 169.837 483.566C149.238 462.516 135.58 504.841 151.251 519.392C166.922 533.944 145.317 543.835 145.317 543.835C145.317 543.835 90.116 505.96 116.319 469.465C142.522 432.969 106.146 432.857 116.094 420.206C126.041 407.555 133.236 400.747 133.236 400.747Z" fill="#E88439"/>
<path opacity="0.3" d="M274.149 471.414C274.149 471.414 264.969 493.639 241.456 491.175C217.942 488.711 196.731 519.997 205.404 535.739C214.077 551.48 244.969 533.451 244.969 533.451C244.969 533.451 271.911 511.444 274.149 471.414Z" fill="#E88439"/>
<path opacity="0.3" d="M201.56 526.092C240.619 526.092 272.284 494.428 272.284 455.368C272.284 416.309 240.619 384.645 201.56 384.645C162.5 384.645 130.836 416.309 130.836 455.368C130.836 494.428 162.5 526.092 201.56 526.092Z" fill="#FFE45E"/>
<path opacity="0.3" d="M217.458 480.875C241.991 480.875 261.88 460.986 261.88 436.453C261.88 411.919 241.991 392.03 217.458 392.03C192.924 392.03 173.035 411.919 173.035 436.453C173.035 460.986 192.924 480.875 217.458 480.875Z" fill="#FFEF92"/>
<path d="M200.32 383.6C201.36 379.68 204.16 366.88 197.92 358.32L192.16 359.44C187.12 360.4 181.84 360.4 176.72 359.44L170.88 358.4C170.88 358.4 164 368 168.4 383.36" fill="white"/>
<path d="M200.32 383.6C201.36 379.68 204.16 366.88 197.92 358.32L192.16 359.44C187.12 360.4 181.84 360.4 176.72 359.44L170.88 358.4C170.88 358.4 164 368 168.4 383.36" stroke="white" stroke-miterlimit="10"/>
<path d="M184.399 296.8C204.799 296.8 221.439 310.88 221.439 328.24C221.439 345.6 204.799 359.76 184.399 359.76C163.999 359.76 147.359 345.6 147.359 328.24C147.359 310.88 163.999 296.8 184.399 296.8ZM184.399 296C163.519 296 146.559 310.48 146.559 328.24C146.559 346 163.519 360.56 184.399 360.56C205.279 360.56 222.239 346.08 222.239 328.32C222.239 310.56 205.279 296 184.399 296Z" fill="url(#paint0_linear_1143_2664)"/>
<path d="M184.398 358C169.758 358 157.758 348.4 157.758 336.64C157.758 333.68 158.478 330.8 159.998 328.08L160.158 327.76L159.918 327.52C158.318 326.16 157.438 324.16 157.438 322.08C157.438 318.16 160.638 314.96 164.558 314.96C166.878 314.96 169.118 316.08 170.398 318L170.558 318.24L170.877 318.08C174.958 316.16 179.598 315.12 184.398 315.12C189.118 315.12 193.838 316.16 197.918 318.08L198.238 318.24L198.398 318C199.757 316.08 201.918 314.96 204.238 314.96C208.158 314.96 211.357 318.16 211.357 322.08C211.357 324.16 210.478 326.16 208.878 327.52L208.638 327.76L208.797 328.08C210.317 330.8 211.038 333.68 211.038 336.64C211.038 348.4 199.038 358 184.398 358Z" fill="white"/>
<path d="M204.239 315.44C207.919 315.44 210.959 318.48 210.959 322.16C210.959 324.16 210.079 326 208.559 327.28L208.079 327.68L208.399 328.24C209.839 330.88 210.559 333.68 210.559 336.64C210.639 348.16 198.879 357.6 184.399 357.6C169.919 357.6 158.159 348.16 158.159 336.64C158.159 333.76 158.879 330.88 160.319 328.24L160.639 327.68L160.159 327.28C158.639 326 157.759 324.16 157.759 322.16C157.759 318.48 160.799 315.44 164.479 315.44C166.719 315.44 168.719 316.56 169.999 318.32L170.399 318.88L171.039 318.56C175.039 316.64 179.679 315.68 184.319 315.68C188.959 315.68 193.599 316.72 197.599 318.56L198.239 318.88L198.639 318.32C199.999 316.48 201.999 315.44 204.239 315.44ZM204.239 314.64C201.679 314.64 199.439 315.92 198.079 317.92C194.079 316 189.439 314.96 184.399 314.96C179.439 314.96 174.719 316.08 170.719 317.92C169.359 316 167.119 314.64 164.559 314.64C160.399 314.64 157.039 318 157.039 322.16C157.039 324.48 158.079 326.48 159.679 327.84C158.239 330.56 157.359 333.52 157.359 336.64C157.359 348.64 169.519 358.4 184.399 358.4C199.279 358.4 211.439 348.64 211.439 336.64C211.439 333.52 210.639 330.56 209.119 327.84C210.719 326.48 211.759 324.4 211.759 322.16C211.759 318 208.399 314.64 204.239 314.64Z" fill="white"/>
<g opacity="0.4">
<path d="M169.36 347.2C172.408 347.2 174.88 344.729 174.88 341.68C174.88 338.632 172.408 336.16 169.36 336.16C166.311 336.16 163.84 338.632 163.84 341.68C163.84 344.729 166.311 347.2 169.36 347.2Z" fill="#F0DEFC"/>
<path d="M199.438 347.2C202.487 347.2 204.958 344.729 204.958 341.68C204.958 338.632 202.487 336.16 199.438 336.16C196.389 336.16 193.918 338.632 193.918 341.68C193.918 344.729 196.389 347.2 199.438 347.2Z" fill="#F0DEFC"/>
</g>
<path d="M191.838 331.28C192.878 331.28 193.758 332.16 193.758 333.28C193.758 334.32 192.878 335.2 191.838 335.2C190.798 335.2 189.918 334.32 189.918 333.28C189.918 332.16 190.798 331.28 191.838 331.28Z" fill="black"/>
<path d="M178.719 333.12C178.719 334.24 177.919 335.04 176.799 335.04C175.679 335.04 174.879 334.16 174.879 333.12C174.879 332 175.759 331.2 176.799 331.2C177.839 331.2 178.719 332 178.719 333.12Z" fill="black"/>
<path d="M184.32 339.04C183.28 339.04 182.48 338.48 182.48 337.68C182.48 336.88 183.28 336.24 184.32 336.16C185.36 336.16 186.24 336.8 186.24 337.6C186.16 338.4 185.36 339.04 184.32 339.04Z" fill="black"/>
<path d="M165.725 307.348C169.017 305.45 171.381 303.384 171.006 302.733C170.631 302.082 167.658 303.094 164.366 304.992C161.075 306.89 158.71 308.957 159.086 309.607C159.461 310.258 162.434 309.247 165.725 307.348Z" fill="white"/>
<path d="M173.179 302.453C173.726 302.278 174.071 301.829 173.95 301.451C173.829 301.072 173.288 300.906 172.741 301.081C172.194 301.256 171.848 301.705 171.969 302.083C172.09 302.462 172.632 302.628 173.179 302.453Z" fill="white"/>
<path d="M184.235 390.88C183.435 390.88 182.635 390.72 181.835 390.4L171.915 386.48C168.475 385.12 166.795 381.2 168.155 377.68L168.235 377.44C169.195 374.88 171.755 373.12 174.475 373.12C175.275 373.12 176.075 373.28 176.875 373.6L186.795 377.52C190.235 378.88 191.915 382.8 190.555 386.32L190.475 386.56C189.515 389.12 186.955 390.88 184.235 390.88Z" fill="white"/>
<path d="M174.477 373.52C175.277 373.52 175.997 373.68 176.717 373.92L186.637 377.84C189.837 379.12 191.437 382.8 190.157 386.08L190.077 386.32C189.117 388.72 186.797 390.4 184.237 390.4C183.437 390.4 182.717 390.24 181.997 390L172.077 386.08C168.877 384.8 167.277 381.12 168.557 377.84L168.637 377.6C169.517 375.2 171.917 373.52 174.477 373.52ZM174.477 372.72C171.677 372.72 168.957 374.48 167.837 377.28L167.757 377.52C166.317 381.2 168.157 385.36 171.757 386.8L181.677 390.72C182.477 391.04 183.357 391.2 184.237 391.2C187.037 391.2 189.757 389.44 190.877 386.64L190.957 386.4C192.397 382.72 190.557 378.56 186.957 377.12L177.037 373.2C176.157 372.88 175.357 372.72 174.477 372.72Z" fill="white"/>
<path d="M207.517 388.48C206.717 388.48 205.917 388.32 205.117 388L195.197 384.08C191.757 382.72 190.077 378.8 191.437 375.28L191.517 375.04C192.477 372.48 195.037 370.72 197.757 370.72C198.557 370.72 199.357 370.88 200.157 371.2L210.077 375.12C213.517 376.48 215.197 380.4 213.837 383.92L213.757 384.16C212.797 386.72 210.317 388.48 207.517 388.48Z" fill="white"/>
<path d="M197.758 371.12C198.558 371.12 199.278 371.28 199.998 371.52L209.918 375.44C213.118 376.72 214.718 380.4 213.438 383.68L213.358 383.92C212.398 386.32 210.078 388 207.518 388C206.718 388 205.998 387.84 205.278 387.6L195.358 383.68C192.158 382.4 190.558 378.72 191.838 375.44L191.918 375.2C192.878 372.8 195.198 371.12 197.758 371.12ZM197.758 370.32C194.958 370.32 192.238 372.08 191.118 374.88L191.038 375.2C189.598 378.88 191.438 383.04 195.038 384.48L204.958 388.4C205.758 388.72 206.638 388.88 207.518 388.88C210.318 388.88 213.038 387.12 214.158 384.32L214.238 384.08C215.678 380.4 213.838 376.24 210.238 374.8L200.318 370.88C199.518 370.48 198.638 370.32 197.758 370.32Z" fill="white"/>
<path opacity="0.6" d="M212.56 385.68C210.96 387.68 208.56 388.64 207.6 387.84C206.64 387.12 207.2 384.8 208.8 382.8C210.4 380.8 212.48 379.76 213.44 380.56C214.4 381.36 214.16 383.68 212.56 385.68Z" fill="#F0DEFC"/>
<path opacity="0.6" d="M189.197 388.08C187.597 390.08 185.197 391.04 184.237 390.24C183.277 389.52 183.837 387.2 185.437 385.2C187.037 383.2 189.117 382.16 190.077 382.96C191.037 383.76 190.797 386.08 189.197 388.08Z" fill="#F0DEFC"/>
<path d="M202.16 351.28C202.08 351.36 201.92 351.36 201.84 351.44C190.64 356 178.24 356 167.04 351.44C166.96 351.36 166.8 351.36 166.72 351.28C165.44 350.72 163.92 351.12 162.96 352.24C161.44 354.08 159.84 356.8 162.64 358.64C162.64 358.64 171.36 363.76 184.48 363.76C197.6 363.76 206.32 358.64 206.32 358.64C209.12 356.8 207.52 354 206 352.24C204.96 351.12 203.44 350.72 202.16 351.28Z" fill="url(#paint1_linear_1143_2664)"/>
<path d="M213.84 380.48L203.44 380.16C202.08 380.08 200.8 380.72 200 381.84L193.84 390.24C191.84 393.04 187.44 392.24 186.48 388.96L183.52 378.96C183.12 377.68 182.16 376.64 180.8 376.16L170.88 372.88C167.6 371.76 166.96 367.44 169.84 365.52L178.48 359.68C179.6 358.88 180.32 357.6 180.32 356.24L180.4 345.76C180.4 342.32 184.4 340.4 187.12 342.48L195.36 348.88C196.48 349.68 197.84 350 199.2 349.52L209.12 346.32C212.4 345.28 215.44 348.48 214.32 351.68L210.64 361.6C210.16 362.88 210.4 364.32 211.2 365.44L217.28 373.92C219.28 376.72 217.28 380.64 213.84 380.48Z" fill="#F7E997"/>
<path d="M210.077 370.72C212.905 370.72 215.197 368.428 215.197 365.6C215.197 362.772 212.905 360.48 210.077 360.48C207.249 360.48 204.957 362.772 204.957 365.6C204.957 368.428 207.249 370.72 210.077 370.72Z" fill="white" stroke="white" stroke-miterlimit="10"/>
<path d="M176.718 372C176.158 372 175.598 371.92 175.038 371.76L167.038 369.04C164.318 368.16 162.878 365.2 163.758 362.48L163.838 362.32C164.558 360.24 166.478 358.8 168.718 358.8C169.278 358.8 169.838 358.88 170.398 359.04L178.398 361.76C181.118 362.64 182.558 365.6 181.678 368.32L181.598 368.48C180.878 370.56 178.878 372 176.718 372Z" fill="white"/>
<path d="M168.719 359.2C169.199 359.2 169.759 359.28 170.239 359.44L178.239 362.16C180.719 363.04 182.079 365.76 181.279 368.24L181.199 368.32C180.559 370.24 178.799 371.52 176.719 371.52C176.239 371.52 175.679 371.44 175.199 371.28L167.199 368.56C164.719 367.68 163.359 364.96 164.159 362.48L164.239 362.32C164.879 360.48 166.719 359.2 168.719 359.2ZM168.719 358.4C166.399 358.4 164.239 359.84 163.519 362.16L163.439 362.32C162.479 365.2 164.079 368.4 166.959 369.36L174.959 372.08C175.519 372.24 176.159 372.4 176.719 372.4C179.039 372.4 181.199 370.96 181.919 368.64L181.999 368.48C182.959 365.6 181.359 362.4 178.479 361.44L170.479 358.72C169.919 358.48 169.279 358.4 168.719 358.4Z" fill="white"/>
<path opacity="0.4" d="M205.917 368.56C206.877 369.76 208.157 370.32 208.717 369.92C209.277 369.52 208.877 368.24 207.997 367.04C207.037 365.84 205.917 365.28 205.357 365.68C204.797 366.08 204.957 367.44 205.917 368.56Z" fill="#F0DEFC"/>
<defs>
<linearGradient id="paint0_linear_1143_2664" x1="146.555" y1="328.268" x2="222.242" y2="328.268" gradientUnits="userSpaceOnUse">
<stop offset="1.06556e-08" stop-color="#D0A7E8"/>
<stop offset="1" stop-color="#6DABE8"/>
</linearGradient>
<linearGradient id="paint1_linear_1143_2664" x1="161.02" y1="357.394" x2="207.78" y2="357.394" gradientUnits="userSpaceOnUse">
<stop offset="1.06556e-08" stop-color="#D0A7E8"/>
<stop offset="1" stop-color="#6DABE8"/>
</linearGradient>
</defs>
</svg>
