<svg width="320" height="568" viewBox="0 0 320 568" fill="none" xmlns="http://www.w3.org/2000/svg">
<g clip-path="url(#clip0_780_9140)">
<mask id="mask0_780_9140" style="mask-type:luminance" maskUnits="userSpaceOnUse" x="0" y="0" width="320" height="568">
<path d="M320 0H0V568H320V0Z" fill="white"/>
</mask>
<g mask="url(#mask0_780_9140)">
<path d="M320 0H0V568H320V0Z" fill="url(#paint0_linear_780_9140)"/>
<path d="M50.5 60C50.7761 60 51 59.7761 51 59.5C51 59.2239 50.7761 59 50.5 59C50.2239 59 50 59.2239 50 59.5C50 59.7761 50.2239 60 50.5 60Z" fill="#D9D9D9"/>
<path d="M33.5 336C33.7761 336 34 335.776 34 335.5C34 335.224 33.7761 335 33.5 335C33.2239 335 33 335.224 33 335.5C33 335.776 33.2239 336 33.5 336Z" fill="white"/>
<path d="M66.5 80C67.3284 80 68 79.3284 68 78.5C68 77.6716 67.3284 77 66.5 77C65.6716 77 65 77.6716 65 78.5C65 79.3284 65.6716 80 66.5 80Z" fill="white"/>
<path d="M186.5 30C186.776 30 187 29.7761 187 29.5C187 29.2239 186.776 29 186.5 29C186.224 29 186 29.2239 186 29.5C186 29.7761 186.224 30 186.5 30Z" fill="#D9D9D9"/>
<path d="M224.5 70C224.776 70 225 69.7761 225 69.5C225 69.2239 224.776 69 224.5 69C224.224 69 224 69.2239 224 69.5C224 69.7761 224.224 70 224.5 70Z" fill="#D9D9D9"/>
<path d="M276.5 108C277.328 108 278 107.328 278 106.5C278 105.672 277.328 105 276.5 105C275.672 105 275 105.672 275 106.5C275 107.328 275.672 108 276.5 108Z" fill="white"/>
<path d="M16.5 104C17.3284 104 18 103.328 18 102.5C18 101.672 17.3284 101 16.5 101C15.6716 101 15 101.672 15 102.5C15 103.328 15.6716 104 16.5 104Z" fill="white"/>
<path d="M8.5 196C8.77614 196 9 195.776 9 195.5C9 195.224 8.77614 195 8.5 195C8.22386 195 8 195.224 8 195.5C8 195.776 8.22386 196 8.5 196Z" fill="white"/>
<path d="M25.5 132C25.7761 132 26 131.776 26 131.5C26 131.224 25.7761 131 25.5 131C25.2239 131 25 131.224 25 131.5C25 131.776 25.2239 132 25.5 132Z" fill="white"/>
<path d="M257.5 235C257.776 235 258 234.776 258 234.5C258 234.224 257.776 234 257.5 234C257.224 234 257 234.224 257 234.5C257 234.776 257.224 235 257.5 235Z" fill="white"/>
<path d="M279.5 57C280.328 57 281 56.3284 281 55.5C281 54.6716 280.328 54 279.5 54C278.672 54 278 54.6716 278 55.5C278 56.3284 278.672 57 279.5 57Z" fill="#D9D9D9"/>
<path d="M134.5 58C134.776 58 135 57.7761 135 57.5C135 57.2239 134.776 57 134.5 57C134.224 57 134 57.2239 134 57.5C134 57.7761 134.224 58 134.5 58Z" fill="#D9D9D9"/>
<path d="M57.5 169C57.7761 169 58 168.776 58 168.5C58 168.224 57.7761 168 57.5 168C57.2239 168 57 168.224 57 168.5C57 168.776 57.2239 169 57.5 169Z" fill="white"/>
<path d="M123 -19.9961L80 22.0039" stroke="white" stroke-opacity="0.3" stroke-linecap="round"/>
<path d="M122.004 -6L101.004 15" stroke="white" stroke-opacity="0.3" stroke-linecap="round"/>
<path d="M110.004 -20L89.0039 1" stroke="white" stroke-opacity="0.3" stroke-linecap="round"/>
<path d="M299 426.004L256 468.004" stroke="white" stroke-opacity="0.3" stroke-linecap="round"/>
<path d="M298.004 440L277.004 461" stroke="white" stroke-opacity="0.3" stroke-linecap="round"/>
<path d="M286.004 426L265.004 447" stroke="white" stroke-opacity="0.3" stroke-linecap="round"/>
</g>
</g>
<defs>
<linearGradient id="paint0_linear_780_9140" x1="160" y1="0" x2="160" y2="568" gradientUnits="userSpaceOnUse">
<stop stop-color="#2B42BB"/>
<stop offset="1" stop-color="#92BEFF"/>
</linearGradient>
<clipPath id="clip0_780_9140">
<rect width="320" height="568" fill="white"/>
</clipPath>
</defs>
</svg>
