<svg width="22" height="22" viewBox="0 0 128 108" fill="current" xmlns="http://www.w3.org/2000/svg">
<path d="M102.6 14C105.9 14 108.8 16.1 109.7 19H80C78.8 17.2 77.7 15.5 76.7 14H102.6ZM102.6 10H69C71.2 13 74.7 18.1 77.9 23H112.1C112.7 23 113.4 23.1 114 23.1V21C114 14.9 108.9 10 102.6 10Z"/>
<path d="M59.4 4C59.6 4 63.6 4.2 66.1 7C66.9 7.9 69.3 11 76.5 21.7L77.7 23.5H79.8H114.6C119.8 23.5 123.9 27.4 124 32.2V32.8V94.8V95.5C124 100.3 119.8 104.2 114.6 104.2H13.4C8.2 104.2 4.1 100.3 4 95.5V94.9V32.4V32.1V12.1C4 7.6 7.9 4 12.8 4H59.4ZM59.4 0H12.8C5.7 0 0 5.4 0 12.1V32.1V32.4V95.3C0 102.3 6 108 13.4 108H114.7C122.1 108 128 102.3 128.1 95.3V32.1C128.1 25.1 122.1 19.4 114.7 19.4H79.8C75.6 13.1 70.9 6.4 69.1 4.3C65.2 0 59.4 0 59.4 0Z"/>
</svg>
