<svg width="142" height="141" viewBox="0 0 142 141" fill="none" xmlns="http://www.w3.org/2000/svg">
<path d="M67.5703 71.655C66.9924 69.7644 66.51 67.8289 66.1285 65.8541L67.5703 71.655Z" fill="#FED56B"/>
<path d="M64.776 65.7084C64.776 65.7084 65.4492 70.1628 65.9149 71.5373C66.2066 72.4012 67.7943 70.9594 68.9275 69.7757C68.7592 69.1025 68.7255 68.4237 68.7199 67.7504L64.776 65.7084Z" fill="#FED56B"/>
<path d="M69.2076 70.6132C69.5274 70.299 69.634 70.0129 69.3535 69.8053C68.1978 68.9358 64.1754 66.8993 64.1754 66.8993L64.2763 67.5276C65.8191 68.7843 68.0295 69.0199 69.2076 70.6132Z" fill="#FED56B"/>
<path d="M64.3828 67.0972L64.7026 69.0888C66.0041 69.9134 67.6142 70.1098 69.0448 70.4127C69.1458 70.3342 69.2355 70.2557 69.3141 70.1771C68.1304 68.5895 65.92 68.3538 64.3828 67.0972Z" fill="#FED56B"/>
<path d="M2.13987 83.4502C1.30957 79.136 0.877594 74.6816 0.877594 70.1262C0.877594 31.3941 32.2717 0 71.0038 0C109.736 0 141.13 31.3941 141.13 70.1262C141.13 108.858 109.736 140.252 71.0038 140.252C39.4358 140.252 12.7373 119.388 3.94632 90.6984" fill="#FED56B"/>
<path opacity="0.5" d="M25.7689 16.5316C25.7689 16.5316 42.6272 2.42779 61.5445 0.632562C80.4617 -1.16267 82.5991 12.5765 75.637 18.6466C68.6805 24.7111 56.5459 38.4558 69.7464 45.4123C82.947 52.3689 105.971 65.2216 103.469 76.1052C100.972 86.9887 71.3509 99.3029 54.9358 82.5287C38.5206 65.7545 27.637 99.4824 40.1251 111.078C52.6132 122.675 35.3958 130.557 35.3958 130.557C35.3958 130.557 -8.59294 100.374 12.2878 71.2917C33.1686 42.209 4.18124 42.1192 12.1083 32.0379C20.0354 21.9565 25.7689 16.5316 25.7689 16.5316Z" fill="#E88439"/>
<path opacity="0.3" d="M138.061 72.8472C138.061 72.8472 130.745 90.5582 112.008 88.5947C93.2698 86.6312 76.3666 111.562 83.2782 124.107C90.1899 136.651 114.807 122.283 114.807 122.283C114.807 122.283 136.277 104.746 138.061 72.8472Z" fill="#E88439"/>
<path opacity="0.3" d="M80.2149 116.419C111.341 116.419 136.574 91.1866 136.574 60.0604C136.574 28.9342 111.341 3.70142 80.2149 3.70142C49.0887 3.70142 23.8559 28.9342 23.8559 60.0604C23.8559 91.1866 49.0887 116.419 80.2149 116.419Z" fill="#FFE45E"/>
<path opacity="0.3" d="M92.8823 80.3862C112.433 80.3862 128.282 64.5372 128.282 44.9865C128.282 25.4358 112.433 9.58679 92.8823 9.58679C73.3316 9.58679 57.4826 25.4358 57.4826 44.9865C57.4826 64.5372 73.3316 80.3862 92.8823 80.3862Z" fill="#FFEF92"/>
</svg>
