<svg width="100" height="100" viewBox="0 0 100 100" fill="none" xmlns="http://www.w3.org/2000/svg">
<g clip-path="url(#clip0_829_2349)">
<path d="M47.5723 51.0714C47.1437 49.7143 46.7866 48.3571 46.5723 46.9286L47.5723 51.0714Z" fill="#FED56B"/>
<path d="M45.5723 46.8571C45.5723 46.8571 46.0723 50 46.358 51C46.5723 51.6429 47.7151 50.5714 48.5008 49.7143C48.358 49.2143 48.358 48.7143 48.358 48.2857L45.5723 46.8571Z" fill="#FED56B"/>
<path d="M48.7151 50.3571C48.9294 50.1429 49.0008 49.9286 48.7866 49.7857C47.9294 49.1429 45.0723 47.7143 45.0723 47.7143L45.1437 48.1429C46.2866 49.0714 47.858 49.2143 48.7151 50.3571Z" fill="#FED56B"/>
<path d="M45.2852 47.8571L45.4994 49.2857C46.428 49.8571 47.5709 50 48.5709 50.2143C48.6423 50.1429 48.7137 50.0714 48.7852 50.0714C47.928 48.9286 46.3566 48.7143 45.2852 47.8571Z" fill="#FED56B"/>
<path d="M0.928571 59.5C0.285714 56.4286 0 53.2143 0 50C0 22.3571 22.3571 0 50 0C77.6429 0 100 22.3571 100 50C100 77.6429 77.6429 100 50 100C27.5 100 8.42857 85.1429 2.21429 64.6429" fill="#08B7EE"/>
<path opacity="0.5" d="M17.7138 11.7857C17.7138 11.7857 29.7138 1.71429 43.2138 0.428571C56.7138 -0.857143 58.2138 8.92857 53.2852 13.2857C48.3566 17.6429 39.6423 27.4286 49.0709 32.3571C58.4995 37.2857 74.928 46.5 73.1423 54.2143C71.3566 62 50.2138 70.7857 38.5709 58.8571C26.8566 46.9286 19.1423 70.9286 27.9995 79.2143C36.928 87.5 24.6423 93.0714 24.6423 93.0714C24.6423 93.0714 -6.71481 71.5714 8.14233 50.7857C22.9995 30.0714 2.35662 30 7.99947 22.8571C13.6423 15.6429 17.7138 11.7857 17.7138 11.7857Z" fill="#008EA5"/>
<path opacity="0.5" d="M97.7864 51.9286C97.7864 51.9286 92.5721 64.5714 79.2149 63.1429C65.8578 61.7143 53.7864 79.5 58.7149 88.4286C63.6435 97.3572 81.2149 87.1429 81.2149 87.1429C81.2149 87.1429 96.5721 74.7143 97.7864 51.9286Z" fill="#008EA5"/>
<path opacity="0.3" d="M56.5717 82.8571C78.786 82.8571 96.786 64.8571 96.786 42.6429C96.786 20.4286 78.786 2.5 56.5717 2.5C34.3574 2.5 16.3574 20.5 16.3574 42.6429C16.3574 64.7857 34.3574 82.8571 56.5717 82.8571Z" fill="#02C2F3"/>
<path opacity="0.3" d="M65.5717 58.6429C79.5003 58.6429 90.786 47.3571 90.786 33.4286C90.786 19.5 79.5003 8.21429 65.5717 8.21429C51.6431 8.21429 40.3574 19.5 40.3574 33.4286C40.3574 47.3571 51.6431 58.6429 65.5717 58.6429Z" fill="#8BDEF2"/>
</g>
<defs>
<clipPath id="clip0_829_2349">
<rect width="100" height="100" fill="white"/>
</clipPath>
</defs>
</svg>
