<svg width="128" height="128" viewBox="0 0 128 128" fill="none" xmlns="http://www.w3.org/2000/svg">
<g clip-path="url(#clip0_165_3572)">
<path d="M128 128H0V111.6C0 108.3 2.7 105.7 5.9 105.7H122C125.3 105.7 127.9 108.4 127.9 111.6V128H128Z" fill="#B5B5BD"/>
<path d="M117 103.6H11V49C11 21.9 32.9 0 60 0H68C95.1 0 117 21.9 117 49V103.6Z" fill="#B5B5BD"/>
<path d="M96 71.1C92.7 71.1 90 68.4 90 65.1V36.5C90 33.2 92.7 30.5 96 30.5C99.3 30.5 102 33.2 102 36.5V65.1C102 68.4 99.3 71.1 96 71.1Z" fill="#EEEEEE"/>
<path d="M96 87.4C99.3137 87.4 102 84.669 102 81.3C102 77.9311 99.3137 75.2 96 75.2C92.6863 75.2 90 77.9311 90 81.3C90 84.669 92.6863 87.4 96 87.4Z" fill="#EEEEEE"/>
</g>
<defs>
<clipPath id="clip0_165_3572">
<rect width="128" height="128" fill="white"/>
</clipPath>
</defs>
</svg>
