<svg width="22" height="22" viewBox="0 0 128 123" fill="current" xmlns="http://www.w3.org/2000/svg">
<path d="M63.7 56.3C66.7 56.3 69.1999 58.8 69.1999 61.8C69.1999 64.8 66.7 67.3 63.7 67.3C60.7 67.3 58.2 64.8 58.2 61.8C58.2 58.7 60.7 56.3 63.7 56.3ZM63.7 52.3C58.5 52.3 54.2 56.6 54.2 61.8C54.2 67 58.5 71.3 63.7 71.3C68.9 71.3 73.1999 67 73.1999 61.8C73.1999 56.5 68.9 52.3 63.7 52.3Z"/>
<path d="M82.8 4.70001C84.2 4.70001 85.6 5.10001 86.8 5.80001L100.8 13.9C102.6 15 103.9 16.7 104.5 18.7C105 20.7 104.8 22.9 103.7 24.7L98.4 33.9L97 36.1L98.4 38.2C99.6 39.9 100.6 41.7 101.5 43.6L102.6 45.9H105.1H115.7C120.1 45.9 123.6 49.5 123.6 53.8V69.9C123.6 74.3 120 77.8 115.7 77.8H105.1H102.6L101.5 80.1C100.6 81.9 99.6 83.7 98.4 85.5L97 87.5L98.3 89.7L103.6 98.9C104.7 100.7 104.9 102.9 104.4 104.9C103.9 106.9 102.5 108.7 100.7 109.7L86.7 117.8C85.5 118.5 84.1 118.9 82.7 118.9C79.8999 118.9 77.2 117.4 75.8 114.9L70.5 105.7L69.2 103.5L66.7 103.7C65.5 103.8 64.4999 103.8 63.5999 103.8C62.6999 103.8 61.7 103.8 60.5 103.7L58 103.5L56.7 105.7L51.4 114.9C50 117.3 47.2999 118.9 44.5 118.9C43.0999 118.9 41.7999 118.5 40.5 117.8L26.5 109.7C24.7 108.6 23.4 106.9 22.7999 104.9C22.1999 102.9 22.5 100.7 23.6 98.9L28.9 89.7L30.2 87.5L29 85.4C27.7999 83.7 26.7999 81.9 25.9 80L24.7999 77.7H22.2999H11.6C7.19995 77.7 3.69995 74.1 3.69995 69.8V53.7C3.69995 49.3 7.29995 45.8 11.6 45.8H22.2H24.7L25.7999 43.5C26.6999 41.7 27.6999 39.9 28.9 38.1L30.2999 36L29 33.8L23.7 24.6C22.6 22.8 22.4 20.6 22.9 18.6C23.4 16.6 24.8 14.8 26.6 13.8L40.5999 5.70001C41.7999 5.00001 43.1999 4.60001 44.5999 4.60001C47.3999 4.60001 50.0999 6.10001 51.5 8.60001L56.7999 17.8L58.0999 20L60.5999 19.8C61.7999 19.7 62.7999 19.7 63.7 19.7C64.6 19.7 65.6 19.7 66.8 19.8L69.3 20L70.6 17.8L75.9 8.60001C77.3 6.20001 79.9 4.70001 82.8 4.70001ZM63.7 86.2C77.2 86.2 88.1 75.2 88.1 61.8C88.1 48.3 77.1 37.4 63.7 37.4C50.2999 37.4 39.2999 48.4 39.2999 61.8C39.2 75.2 50.2 86.2 63.7 86.2ZM82.8 0.700012C78.7 0.700012 74.7 2.80001 72.5 6.70001L67.2 15.9C66.1 15.8 64.9999 15.8 63.7999 15.8C62.5999 15.8 61.5 15.9 60.4 15.9L55 6.70001C52.7999 2.90001 48.7999 0.700012 44.7 0.700012C42.7 0.700012 40.6 1.20001 38.7 2.30001L24.7 10.4C19 13.7 17 21 20.2999 26.7L25.6 35.9C24.3 37.8 23.2 39.7 22.2 41.8H11.6C4.99995 41.8 -0.300049 47.1 -0.300049 53.7V69.8C-0.300049 76.4 4.99995 81.7 11.6 81.7H22.2C23.2 83.7 24.3 85.7 25.6 87.6L20.2999 96.8C17 102.5 19 109.8 24.7 113.1L38.7 121.2C40.6 122.3 42.6 122.8 44.7 122.8C48.7999 122.8 52.7999 120.7 55 116.8L60.2999 107.6C61.3999 107.7 62.5 107.7 63.7 107.7C64.8999 107.7 66 107.6 67.1 107.6L72.4 116.8C74.6 120.6 78.6 122.8 82.7 122.8C84.7 122.8 86.7999 122.3 88.7 121.2L102.7 113.1C108.4 109.8 110.4 102.5 107.1 96.8L101.8 87.6C103.1 85.7 104.2 83.8 105.2 81.7H115.8C122.4 81.7 127.7 76.4 127.7 69.8V53.7C127.7 47.1 122.4 41.8 115.8 41.8H105.2C104.2 39.8 103.1 37.8 101.8 35.9L107.1 26.7C110.4 21 108.4 13.7 102.7 10.4L88.7 2.30001C86.7999 1.20001 84.8 0.700012 82.8 0.700012ZM63.7 82.2C52.4 82.2 43.2999 73 43.2999 61.8C43.2999 50.5 52.5 41.4 63.7 41.4C74.8999 41.4 84.1 50.6 84.1 61.8C84.1 73.1 75 82.2 63.7 82.2Z"/>
</svg>