<svg width="20" height="20" viewBox="0 0 20 20" fill="none" xmlns="http://www.w3.org/2000/svg">
<g clip-path="url(#clip0_789_2819)">
<path d="M3.3125 2.14062H16.6875C17 2.14062 17.2344 1.79687 17.2344 1.39062C17.2344 0.625 16.7813 0 16.2188 0H3.76562C3.20312 0 2.75 0.609375 2.75 1.39062C2.75 1.79687 3 2.14062 3.3125 2.14062Z" fill="#EEEEEE"/>
<path d="M17 13.3281C16 13.3594 15.25 13.0469 14.5312 12.2656C13.9375 12.9375 13.125 13.3281 12.2969 13.3281C11.3906 13.3281 10.5938 12.9219 10 12.2969C9.42188 12.9375 8.65625 13.3281 7.78125 13.3281C6.875 13.3281 6.0625 12.9375 5.46875 12.2656C4.89062 12.9219 4.09375 13.3281 3.23438 13.3281C2.32813 13.3281 1.65625 12.9375 1 12.25V17.7656C1 19 1.89063 19.9844 3 19.9844C4.51563 19.9844 6.03125 19.9844 7.54687 19.9844V18.3125C7.54687 16.9531 8.64062 15.8594 10 15.8594C11.3594 15.8594 12.4531 16.9531 12.4531 18.3125V20C13.9687 20 15.4844 20 17 20C18.0938 20 19 19.0156 19 17.7812V12.2812C18.4531 12.9219 17.75 13.2969 17 13.3281Z" fill="#EEEEEE"/>
<path d="M19.89 8.29688L18.8587 4.01563C18.7337 3.59375 18.4994 3.25 18.1244 2.96875C17.765 2.6875 17.3744 2.5625 16.9369 2.5625H3.06186C2.62436 2.5625 2.21811 2.6875 1.84311 2.96875C1.46811 3.25 1.24936 3.59375 1.13998 4.01563L0.108734 8.29688C-0.141266 9.35938 0.0462343 10.2656 0.686859 11.0469C0.811859 11.1562 0.921234 11.2813 1.03061 11.375C1.62436 11.9219 2.26498 12.2812 3.21811 12.2812C4.15561 12.2812 4.90561 11.8906 5.46811 11.3594C6.09311 11.9531 6.85873 12.2812 7.79623 12.2812C8.63998 12.2812 9.43686 11.9219 9.99936 11.375C10.6869 11.9844 11.4525 12.2812 12.2962 12.2812C13.1712 12.2812 13.9056 11.9688 14.5306 11.3594C15.1087 11.9062 15.8587 12.2812 16.7962 12.2812C17.7494 12.2812 18.4212 11.9531 18.9837 11.3594C19.0775 11.2656 19.1712 11.1719 19.265 11.0781C19.9525 10.2813 20.14 9.35938 19.89 8.29688ZM4.74936 9.125C4.62436 10 4.23373 10.4063 3.57748 10.4063C3.17123 10.4063 2.85873 10.25 2.63998 9.90625C2.35873 9.51563 2.26498 9.07812 2.35873 8.60938L3.38998 3.75H5.35873L4.74936 9.125ZM9.32748 8.96875C9.32748 9.35938 9.21811 9.6875 8.96811 9.98438C8.71811 10.2656 8.40561 10.4063 8.03061 10.4063C7.68686 10.4063 7.40561 10.2656 7.17123 9.95313C6.93686 9.625 6.82748 9.29688 6.82748 8.92188V8.75L7.37436 3.75H9.32748V8.96875ZM13.5306 9.92188C13.265 10.25 12.9369 10.4063 12.515 10.4063C12.2025 10.4063 11.9212 10.2656 11.6712 9.98438C11.4212 9.6875 11.3119 9.34375 11.3119 8.96875V3.73438H13.265L13.8119 8.73438C13.9056 9.20313 13.8275 9.59375 13.5306 9.92188ZM18.015 9.90625C17.765 10.25 17.4525 10.4063 17.0775 10.4063C16.765 10.4063 16.4994 10.2969 16.2806 10.0312C16.0619 9.78125 15.9369 9.46875 15.9056 9.125L15.2962 3.75L17.2181 3.71875L18.2962 8.60938C18.39 9.07812 18.2962 9.51563 18.015 9.90625Z" fill="#EEEEEE"/>
</g>
<defs>
<clipPath id="clip0_789_2819">
<rect width="20" height="20" fill="white"/>
</clipPath>
</defs>
</svg>
