<svg width="32" height="30" viewBox="0 0 32 30" fill="none" xmlns="http://www.w3.org/2000/svg">
<path d="M16 1.00033C24.6333 1.00033 31.6667 6.96699 31.6667 14.3337C31.6667 21.7003 24.6333 27.6337 16 27.6337C7.36667 27.6337 0.333333 21.667 0.333333 14.3337C0.333333 7.00033 7.36667 1.00033 16 1.00033ZM16 0.666992C7.16667 0.666992 0 6.80033 0 14.3337C0 21.867 7.16667 27.967 16 27.967C24.8333 27.967 32 21.867 32 14.3337C32 6.80033 24.8333 0.666992 16 0.666992Z" fill="url(#paint0_linear_1077_2170)"/>
<path d="M15.9996 26.8667C9.79961 26.8667 4.73294 22.8334 4.73294 17.8334C4.73294 16.5667 5.06628 15.3667 5.66628 14.2001L5.73294 14.0667L5.66628 14.0334C4.99961 13.4667 4.59961 12.6334 4.59961 11.7334C4.59961 10.0667 5.96628 8.7334 7.59961 8.7334C8.59961 8.7334 9.49961 9.2334 10.0663 10.0334L10.1329 10.1334L10.2663 10.0667C11.9996 9.26673 13.9663 8.8334 15.9663 8.8334C17.9663 8.8334 19.9329 9.26673 21.6663 10.0667L21.7996 10.1334L21.8663 10.0334C22.4329 9.2334 23.3663 8.7334 24.3329 8.7334C25.9996 8.7334 27.3329 10.1001 27.3329 11.7334C27.3329 12.6001 26.9329 13.4334 26.2663 14.0334L26.1663 14.1334L26.2329 14.2667C26.8663 15.4001 27.1663 16.6334 27.1663 17.9001C27.2663 22.8334 22.1996 26.8667 15.9996 26.8667Z" fill="white"/>
<path d="M24.4001 8.86654C25.9668 8.86654 27.2335 10.1332 27.2335 11.6999C27.2335 12.5332 26.8668 13.3332 26.2335 13.8665L26.0335 14.0332L26.1668 14.2665C26.7668 15.3999 27.1001 16.5665 27.1001 17.7999C27.1001 22.6999 22.1335 26.6665 16.0001 26.6665C9.8668 26.6665 4.90013 22.7332 4.90013 17.8665C4.90013 16.6332 5.20013 15.4332 5.83346 14.3332L5.9668 14.0999L5.7668 13.9332C5.13346 13.3999 4.7668 12.5999 4.7668 11.7665C4.7668 10.1999 6.03346 8.9332 7.60013 8.9332C8.53346 8.9332 9.40013 9.39987 9.93346 10.1665L10.1001 10.3999L10.3668 10.2665C12.0668 9.46654 14.0335 9.0332 16.0001 9.0332C17.9668 9.0332 19.9335 9.46654 21.6335 10.2665L21.9001 10.3999L22.0668 10.1665C22.5668 9.3332 23.4668 8.86654 24.4001 8.86654ZM24.4001 8.5332C23.3001 8.5332 22.3668 9.06654 21.8001 9.89987C20.0668 9.1332 18.1001 8.66654 16.0001 8.66654C13.9001 8.66654 11.9335 9.1332 10.2335 9.9332C9.6668 9.09987 8.70013 8.56654 7.63346 8.56654C5.8668 8.56654 4.4668 9.99987 4.4668 11.7332C4.4668 12.6999 4.90013 13.5665 5.60013 14.1665C4.9668 15.2999 4.63346 16.5665 4.63346 17.8665C4.63346 22.9332 9.73346 27.0665 16.0668 27.0665C22.4001 27.0665 27.5001 22.9665 27.5001 17.8665C27.5001 16.5332 27.1668 15.2999 26.5335 14.1665C27.2335 13.5999 27.6668 12.7332 27.6668 11.7332C27.5668 9.96654 26.1335 8.5332 24.4001 8.5332Z" fill="white"/>
<path d="M23.5005 24.0334C23.4338 24.0668 23.4005 24.0668 23.3338 24.1001C18.6005 26.0334 13.3338 26.0334 8.60046 24.1001C8.56713 24.0668 8.50046 24.0668 8.4338 24.0334C7.86713 23.8001 7.2338 23.9668 6.86713 24.4334C6.20046 25.2001 5.5338 26.3668 6.7338 27.1334C6.7338 27.1334 10.4338 29.3001 15.9671 29.3001C21.5338 29.3001 25.2005 27.1334 25.2005 27.1334C26.3671 26.3668 25.7005 25.1668 25.0671 24.4334C24.7005 23.9668 24.0671 23.8334 23.5005 24.0334Z" fill="url(#paint1_linear_1077_2170)"/>
<g opacity="0.4">
<path d="M9.63411 22.3005C10.9228 22.3005 11.9674 21.2558 11.9674 19.9671C11.9674 18.6785 10.9228 17.6338 9.63411 17.6338C8.34545 17.6338 7.30078 18.6785 7.30078 19.9671C7.30078 21.2558 8.34545 22.3005 9.63411 22.3005Z" fill="#F0DEFC"/>
<path d="M22.3665 22.3005C23.6552 22.3005 24.6999 21.2558 24.6999 19.9671C24.6999 18.6785 23.6552 17.6338 22.3665 17.6338C21.0779 17.6338 20.0332 18.6785 20.0332 19.9671C20.0332 21.2558 21.0779 22.3005 22.3665 22.3005Z" fill="#F0DEFC"/>
</g>
<path d="M19.1673 15.5996C19.6007 15.5996 19.9673 15.9663 19.9673 16.4329C19.9673 16.8663 19.6007 17.2329 19.1673 17.2329C18.734 17.2329 18.3673 16.8663 18.3673 16.3996C18.334 15.9663 18.7007 15.5996 19.1673 15.5996Z" fill="black"/>
<path d="M13.6 16.3666C13.6 16.8333 13.2667 17.1666 12.8 17.2C12.3333 17.2 12 16.8333 12 16.4C12 15.9333 12.3667 15.6 12.8333 15.6C13.2333 15.5666 13.6 15.9 13.6 16.3666Z" fill="black"/>
<path d="M15.966 18.8661C15.5327 18.8661 15.1993 18.5995 15.166 18.2661C15.166 17.9328 15.4993 17.6328 15.9327 17.6328C16.3993 17.6328 16.766 17.8995 16.7327 18.2328C16.766 18.5995 16.3993 18.8661 15.966 18.8661Z" fill="black"/>
<path d="M8.1309 5.48227C9.53434 4.6729 10.5378 3.78406 10.3723 3.497C10.2067 3.20993 8.93482 3.63334 7.53138 4.44271C6.12794 5.25208 5.12444 6.14092 5.28999 6.42798C5.45555 6.71505 6.72746 6.29164 8.1309 5.48227Z" fill="white"/>
<path d="M11.2535 3.38798C11.4815 3.31518 11.6255 3.12821 11.575 2.97038C11.5246 2.81255 11.299 2.74362 11.071 2.81642C10.843 2.88922 10.6991 3.07619 10.7495 3.23402C10.7999 3.39185 11.0255 3.46078 11.2535 3.38798Z" fill="white"/>
<defs>
<linearGradient id="paint0_linear_1077_2170" x1="0" y1="14.3189" x2="32" y2="14.3189" gradientUnits="userSpaceOnUse">
<stop offset="1.06556e-08" stop-color="#D0A7E8"/>
<stop offset="1" stop-color="#6DABE8"/>
</linearGradient>
<linearGradient id="paint1_linear_1077_2170" x1="6.11556" y1="26.6332" x2="25.8854" y2="26.6332" gradientUnits="userSpaceOnUse">
<stop offset="1.06556e-08" stop-color="#D0A7E8"/>
<stop offset="1" stop-color="#6DABE8"/>
</linearGradient>
</defs>
</svg>