<svg width="28" height="32" viewBox="0 0 28 32" fill="none" xmlns="http://www.w3.org/2000/svg">
<g clip-path="url(#clip0_293_1060)" filter="url(#filter0_f_293_1060)">
<path d="M23.2438 15.9062C22.5688 15.325 17.0938 14.1625 17.0938 14.1625C17.0938 14.1625 18.5188 12.25 18.05 11.7812C17.5625 11.3125 15.1813 12.25 15.1813 12.25C15.1813 12.25 14.7125 6.0625 14.225 4.6375C14.075 4.1875 13.925 4.01875 13.775 4C13.6438 4.01875 13.4938 4.16875 13.325 4.6375C12.875 6.0625 12.3875 12.25 12.3875 12.25C12.3875 12.25 10.0063 11.3125 9.53752 11.7812C9.06877 12.25 10.4938 14.1625 10.4938 14.1625C10.4938 14.1625 5.01877 15.3437 4.34377 15.9062C4.34377 15.9062 4.30627 15.925 4.30627 15.9812C4.30627 16.0187 4.32502 16.0562 4.32502 16.0562C4.32502 16.075 4.34377 16.075 4.34377 16.075C5.01877 16.6562 10.4938 17.8187 10.4938 17.8187C10.4938 17.8187 9.06877 19.75 9.53752 20.2187C10.025 20.6875 12.4063 19.75 12.4063 19.75C12.4063 19.75 12.875 25.9562 13.3625 27.3812C13.5125 27.8312 13.6625 28 13.7938 28.0187C13.925 28 14.075 27.8312 14.225 27.3812C14.6938 25.9375 15.1813 19.75 15.1813 19.75C15.1813 19.75 17.5625 20.6875 18.0313 20.2187C18.5 19.75 17.075 17.8375 17.075 17.8375C17.075 17.8375 22.55 16.6562 23.225 16.0937L23.2438 16.075C23.2438 16.075 23.2813 16.0375 23.2625 16C23.2813 15.9437 23.2438 15.925 23.2438 15.9062Z" fill="white"/>
</g>
<g clip-path="url(#clip1_293_1060)">
<path d="M21.7028 15.9219C21.1403 15.4375 16.5778 14.4688 16.5778 14.4688C16.5778 14.4688 17.7653 12.875 17.3747 12.4844C16.9684 12.0938 14.9841 12.875 14.9841 12.875C14.9841 12.875 14.5934 7.71875 14.1872 6.53125C14.0622 6.15625 13.9372 6.01562 13.8122 6C13.7028 6.01562 13.5778 6.14063 13.4372 6.53125C13.0622 7.71875 12.6559 12.875 12.6559 12.875C12.6559 12.875 10.6716 12.0938 10.2809 12.4844C9.89032 12.875 11.0778 14.4688 11.0778 14.4688C11.0778 14.4688 6.51532 15.4531 5.95282 15.9219C5.95282 15.9219 5.92157 15.9375 5.92157 15.9844C5.92157 16.0156 5.93719 16.0469 5.93719 16.0469C5.93719 16.0625 5.95282 16.0625 5.95282 16.0625C6.51532 16.5469 11.0778 17.5156 11.0778 17.5156C11.0778 17.5156 9.89032 19.125 10.2809 19.5156C10.6872 19.9062 12.6716 19.125 12.6716 19.125C12.6716 19.125 13.0622 24.2969 13.4684 25.4844C13.5934 25.8594 13.7184 26 13.8278 26.0156C13.9372 26 14.0622 25.8594 14.1872 25.4844C14.5778 24.2812 14.9841 19.125 14.9841 19.125C14.9841 19.125 16.9684 19.9062 17.3591 19.5156C17.7497 19.125 16.5622 17.5312 16.5622 17.5312C16.5622 17.5312 21.1247 16.5469 21.6872 16.0781L21.7028 16.0625C21.7028 16.0625 21.7341 16.0312 21.7184 16C21.7341 15.9531 21.7028 15.9375 21.7028 15.9219Z" fill="white"/>
</g>
<defs>
<filter id="filter0_f_293_1060" x="-2" y="0" width="32" height="32" filterUnits="userSpaceOnUse" color-interpolation-filters="sRGB">
<feFlood flood-opacity="0" result="BackgroundImageFix"/>
<feBlend mode="normal" in="SourceGraphic" in2="BackgroundImageFix" result="shape"/>
<feGaussianBlur stdDeviation="2" result="effect1_foregroundBlur_293_1060"/>
</filter>
<clipPath id="clip0_293_1060">
<rect width="24" height="24" fill="white" transform="translate(2 4)"/>
</clipPath>
<clipPath id="clip1_293_1060">
<rect width="20" height="20" fill="white" transform="translate(3.99969 6)"/>
</clipPath>
</defs>
</svg>
