<svg width="114" height="50" viewBox="0 0 114 50" fill="none" xmlns="http://www.w3.org/2000/svg">
<g clip-path="url(#clip0_780_1757)" filter="url(#filter0_f_780_1757)">
<path d="M26.8516 8.96094C26.5703 8.71875 24.2891 8.23437 24.2891 8.23437C24.2891 8.23437 24.8828 7.4375 24.6875 7.24219C24.4844 7.04687 23.4922 7.4375 23.4922 7.4375C23.4922 7.4375 23.2969 4.85937 23.0938 4.26562C23.0312 4.07812 22.9688 4.00781 22.9062 4C22.8516 4.00781 22.7891 4.07031 22.7188 4.26562C22.5313 4.85937 22.3281 7.4375 22.3281 7.4375C22.3281 7.4375 21.3359 7.04687 21.1406 7.24219C20.9453 7.4375 21.5391 8.23437 21.5391 8.23437C21.5391 8.23437 19.2578 8.72656 18.9766 8.96094C18.9766 8.96094 18.9609 8.96875 18.9609 8.99219C18.9609 9.00781 18.9687 9.02344 18.9687 9.02344C18.9687 9.03125 18.9766 9.03125 18.9766 9.03125C19.2578 9.27344 21.5391 9.75781 21.5391 9.75781C21.5391 9.75781 20.9453 10.5625 21.1406 10.7578C21.3438 10.9531 22.3359 10.5625 22.3359 10.5625C22.3359 10.5625 22.5312 13.1484 22.7344 13.7422C22.7969 13.9297 22.8594 14 22.9141 14.0078C22.9688 14 23.0312 13.9297 23.0938 13.7422C23.2891 13.1406 23.4922 10.5625 23.4922 10.5625C23.4922 10.5625 24.4844 10.9531 24.6797 10.7578C24.875 10.5625 24.2812 9.76562 24.2812 9.76562C24.2812 9.76562 26.5625 9.27344 26.8437 9.03906L26.8516 9.03125C26.8516 9.03125 26.8672 9.01562 26.8594 9C26.8672 8.97656 26.8516 8.96875 26.8516 8.96094Z" fill="#E88439"/>
</g>
<g clip-path="url(#clip1_780_1757)">
<path d="M26.2103 8.96761C25.9759 8.76579 24.0749 8.36214 24.0749 8.36214C24.0749 8.36214 24.5697 7.69808 24.4069 7.53532C24.2376 7.37256 23.4108 7.69808 23.4108 7.69808C23.4108 7.69808 23.248 5.54964 23.0788 5.05485C23.0267 4.8986 22.9746 4.84001 22.9225 4.8335C22.877 4.84001 22.8249 4.89209 22.7663 5.05485C22.61 5.54964 22.4408 7.69808 22.4408 7.69808C22.4408 7.69808 21.6139 7.37256 21.4512 7.53532C21.2884 7.69808 21.7832 8.36214 21.7832 8.36214C21.7832 8.36214 19.8822 8.7723 19.6478 8.96761C19.6478 8.96761 19.6348 8.97412 19.6348 8.99365C19.6348 9.00667 19.6413 9.01969 19.6413 9.01969C19.6413 9.0262 19.6478 9.0262 19.6478 9.0262C19.8822 9.22803 21.7832 9.63167 21.7832 9.63167C21.7832 9.63167 21.2884 10.3022 21.4512 10.465C21.6204 10.6278 22.4473 10.3022 22.4473 10.3022C22.4473 10.3022 22.61 12.4572 22.7793 12.952C22.8314 13.1082 22.8835 13.1668 22.929 13.1733C22.9746 13.1668 23.0267 13.1082 23.0788 12.952C23.2415 12.4507 23.4108 10.3022 23.4108 10.3022C23.4108 10.3022 24.2376 10.6278 24.4004 10.465C24.5632 10.3022 24.0684 9.63818 24.0684 9.63818C24.0684 9.63818 25.9694 9.22803 26.2038 9.03271L26.2103 9.0262C26.2103 9.0262 26.2233 9.01318 26.2168 9.00016C26.2233 8.98063 26.2103 8.97412 26.2103 8.96761Z" fill="#E88439"/>
</g>
<g clip-path="url(#clip2_780_1757)" filter="url(#filter1_f_780_1757)">
<path d="M96.8516 40.9609C96.5703 40.7187 94.2891 40.2344 94.2891 40.2344C94.2891 40.2344 94.8828 39.4375 94.6875 39.2422C94.4844 39.0469 93.4922 39.4375 93.4922 39.4375C93.4922 39.4375 93.2969 36.8594 93.0938 36.2656C93.0312 36.0781 92.9688 36.0078 92.9062 36C92.8516 36.0078 92.7891 36.0703 92.7188 36.2656C92.5313 36.8594 92.3281 39.4375 92.3281 39.4375C92.3281 39.4375 91.3359 39.0469 91.1406 39.2422C90.9453 39.4375 91.5391 40.2344 91.5391 40.2344C91.5391 40.2344 89.2578 40.7266 88.9766 40.9609C88.9766 40.9609 88.9609 40.9687 88.9609 40.9922C88.9609 41.0078 88.9687 41.0234 88.9687 41.0234C88.9687 41.0312 88.9766 41.0312 88.9766 41.0312C89.2578 41.2734 91.5391 41.7578 91.5391 41.7578C91.5391 41.7578 90.9453 42.5625 91.1406 42.7578C91.3438 42.9531 92.3359 42.5625 92.3359 42.5625C92.3359 42.5625 92.5312 45.1484 92.7344 45.7422C92.7969 45.9297 92.8594 46 92.9141 46.0078C92.9688 46 93.0312 45.9297 93.0938 45.7422C93.2891 45.1406 93.4922 42.5625 93.4922 42.5625C93.4922 42.5625 94.4844 42.9531 94.6797 42.7578C94.875 42.5625 94.2812 41.7656 94.2812 41.7656C94.2812 41.7656 96.5625 41.2734 96.8437 41.0391L96.8516 41.0312C96.8516 41.0312 96.8672 41.0156 96.8594 41C96.8672 40.9766 96.8516 40.9687 96.8516 40.9609Z" fill="#E88439"/>
</g>
<g clip-path="url(#clip3_780_1757)">
<path d="M96.2103 40.9676C95.9759 40.7658 94.0749 40.3621 94.0749 40.3621C94.0749 40.3621 94.5697 39.6981 94.4069 39.5353C94.2376 39.3726 93.4108 39.6981 93.4108 39.6981C93.4108 39.6981 93.248 37.5496 93.0788 37.0549C93.0267 36.8986 92.9746 36.84 92.9225 36.8335C92.877 36.84 92.8249 36.8921 92.7663 37.0549C92.61 37.5496 92.4408 39.6981 92.4408 39.6981C92.4408 39.6981 91.6139 39.3726 91.4512 39.5353C91.2884 39.6981 91.7832 40.3621 91.7832 40.3621C91.7832 40.3621 89.8822 40.7723 89.6478 40.9676C89.6478 40.9676 89.6348 40.9741 89.6348 40.9937C89.6348 41.0067 89.6413 41.0197 89.6413 41.0197C89.6413 41.0262 89.6478 41.0262 89.6478 41.0262C89.8822 41.228 91.7832 41.6317 91.7832 41.6317C91.7832 41.6317 91.2884 42.3022 91.4512 42.465C91.6204 42.6278 92.4473 42.3022 92.4473 42.3022C92.4473 42.3022 92.61 44.4572 92.7793 44.952C92.8314 45.1082 92.8835 45.1668 92.929 45.1733C92.9746 45.1668 93.0267 45.1082 93.0788 44.952C93.2415 44.4507 93.4108 42.3022 93.4108 42.3022C93.4108 42.3022 94.2376 42.6278 94.4004 42.465C94.5632 42.3022 94.0684 41.6382 94.0684 41.6382C94.0684 41.6382 95.9694 41.228 96.2038 41.0327L96.2103 41.0262C96.2103 41.0262 96.2233 41.0132 96.2168 41.0002C96.2233 40.9806 96.2103 40.9741 96.2103 40.9676Z" fill="#E88439"/>
</g>
<path fill-rule="evenodd" clip-rule="evenodd" d="M0 25.5C0 16.5546 7.11861 9.27176 16 9.00743V10.0079C7.67099 10.2719 1 17.1069 1 25.5C1 34.0604 7.93959 41 16.5 41H86V42H16.5C7.3873 42 0 34.6127 0 25.5ZM100 41.8118C107.926 40.6071 114 33.7628 114 25.5C114 16.3873 106.613 9 97.5 9H30V10H97.5C106.06 10 113 16.9396 113 25.5C113 33.2093 107.372 39.6041 100 40.7994V41.8118Z" fill="#E88439"/>
<defs>
<filter id="filter0_f_780_1757" x="14" y="0" width="18" height="18" filterUnits="userSpaceOnUse" color-interpolation-filters="sRGB">
<feFlood flood-opacity="0" result="BackgroundImageFix"/>
<feBlend mode="normal" in="SourceGraphic" in2="BackgroundImageFix" result="shape"/>
<feGaussianBlur stdDeviation="2" result="effect1_foregroundBlur_780_1757"/>
</filter>
<filter id="filter1_f_780_1757" x="84" y="32" width="18" height="18" filterUnits="userSpaceOnUse" color-interpolation-filters="sRGB">
<feFlood flood-opacity="0" result="BackgroundImageFix"/>
<feBlend mode="normal" in="SourceGraphic" in2="BackgroundImageFix" result="shape"/>
<feGaussianBlur stdDeviation="2" result="effect1_foregroundBlur_780_1757"/>
</filter>
<clipPath id="clip0_780_1757">
<rect width="10" height="10" fill="white" transform="translate(18 4)"/>
</clipPath>
<clipPath id="clip1_780_1757">
<rect width="8.33333" height="8.33333" fill="white" transform="translate(18.834 4.8335)"/>
</clipPath>
<clipPath id="clip2_780_1757">
<rect width="10" height="10" fill="white" transform="translate(88 36)"/>
</clipPath>
<clipPath id="clip3_780_1757">
<rect width="8.33333" height="8.33333" fill="white" transform="translate(88.834 36.8335)"/>
</clipPath>
</defs>
</svg>
