<?xml version="1.0" encoding="utf-8"?>
<!-- Generator: Adobe Illustrator 27.9.0, SVG Export Plug-In . SVG Version: 6.00 Build 0)  -->
<svg version="1.1" xmlns="http://www.w3.org/2000/svg" xmlns:xlink="http://www.w3.org/1999/xlink" x="0px" y="0px"
	 viewBox="0 0 1920 1080" style="enable-background:new 0 0 1920 1080;" xml:space="preserve">
<style type="text/css">
	.st0{fill:url(#SVGID_1_);}
	.st1{fill:#121B35;}
	.st2{fill:#FFFFFF;stroke:#FFFFFF;stroke-width:3.5166;stroke-miterlimit:10;}
	.st3{fill:url(#SVGID_00000153665007729186957180000015417966369062395008_);}
	.st4{fill:#FFFFFF;}
	.st5{opacity:0.4;}
	.st6{fill:#F0DEFC;}
	.st7{opacity:0.6;fill:#F0DEFC;}
	.st8{fill:url(#SVGID_00000093177672753559663050000015314349400999344544_);}
	.st9{fill:#F7E997;}
	.st10{fill:#FFFFFF;stroke:#FFFFFF;stroke-width:4.6391;stroke-miterlimit:10;}
	.st11{opacity:0.4;fill:#F0DEFC;}
</style>
<g id="레이어_1">
</g>
<g id="레이어_5">
</g>
<g id="레이어_3">
</g>
<g id="레이어_4">
</g>
<g id="레이어_2">
	<linearGradient id="SVGID_1_" gradientUnits="userSpaceOnUse" x1="960" y1="265.6675" x2="960" y2="1188.9884">
		<stop  offset="7.032683e-07" style="stop-color:#FFFFFF;stop-opacity:0.8"/>
		<stop  offset="0.2279" style="stop-color:#CAC7E4;stop-opacity:0.6182"/>
		<stop  offset="0.376" style="stop-color:#ACA7D5;stop-opacity:0.5"/>
		<stop  offset="0.4602" style="stop-color:#9E98CE;stop-opacity:0.522"/>
		<stop  offset="0.6215" style="stop-color:#7A71BB;stop-opacity:0.5642"/>
		<stop  offset="0.7587" style="stop-color:#564BA9;stop-opacity:0.6"/>
	</linearGradient>
	<rect class="st0" width="1920" height="1080"/>
	<path class="st1" d="M159.4,880.3c48.5,0,93.3,15.8,129.5,42.6c35.4-99.8,130.7-171.3,242.6-171.3c99.6,0,185.9,56.5,228.7,139.2
		c42.6-31.2,95.1-49.6,151.9-49.6c53.1,0,102.4,16.1,143.4,43.6c36.8-188.4,202.7-330.6,401.9-330.6c148.1,0,277.9,78.7,349.8,196.5
		c28-51.3,66.6-96,112.9-131V0H0v949.4C39.8,906.9,96.5,880.3,159.4,880.3z"/>
	<g>
		<path class="st2" d="M567.7,795.9c4.2-15.4,15.3-66.3-9.6-100.1l-22.8,4.4c-20.1,3.9-41,3.9-61.1,0l-23.1-4.4
			c0,0-27.1,38-9.8,98.8"/>
		<g>
			
				<linearGradient id="SVGID_00000170269868086918840570000009470083533210716818_" gradientUnits="userSpaceOnUse" x1="354.6816" y1="576.4407" x2="654.6816" y2="576.4407">
				<stop  offset="1.065558e-08" style="stop-color:#D0A7E8"/>
				<stop  offset="1" style="stop-color:#6DABE8"/>
			</linearGradient>
			<path style="fill:url(#SVGID_00000170269868086918840570000009470083533210716818_);" d="M504.7,452.3c39.2,0,76,13,103.6,36.6
				c27.5,23.4,42.6,54.5,42.6,87.6s-15.1,64.2-42.6,87.6c-27.7,23.6-64.5,36.6-103.6,36.6s-76-13-103.6-36.6
				c-27.5-23.4-42.6-54.5-42.6-87.6s15.1-64.2,42.6-87.6C428.7,465.3,465.5,452.3,504.7,452.3 M504.7,448.5
				c-82.8,0-150,57.3-150,127.9s67.2,127.9,150,127.9s150-57.3,150-127.9S587.5,448.5,504.7,448.5L504.7,448.5z"/>
		</g>
		<g>
			<path class="st4" d="M504.7,693.9c-58,0-105.2-37.8-105.2-84.3c0-11.7,3-23.1,8.8-33.8l0.7-1.3l-1.2-1
				c-6.2-5.3-9.8-13.1-9.8-21.2c0-15.4,12.5-27.9,27.9-27.9c9.2,0,17.7,4.5,23,12.1l0.9,1.3l1.4-0.7c16.1-7.6,34.6-11.7,53.3-11.7
				s37.2,4,53.3,11.7l1.4,0.7l0.9-1.3c5.2-7.5,13.8-12.1,23-12.1c15.4,0,27.9,12.5,27.9,27.9c0,8.2-3.6,15.9-9.8,21.2l-1.2,1
				l0.7,1.3c5.9,10.7,8.8,22.1,8.8,33.8C609.8,656,562.7,693.9,504.7,693.9z"/>
			<g>
				<path class="st4" d="M583.3,526.1c14.4,0,26.1,11.7,26.1,26.1c0,7.6-3.3,14.8-9.2,19.8l-2.3,2l1.5,2.7
					c5.7,10.4,8.6,21.5,8.6,32.9c0,45.5-46.3,82.4-103.3,82.4c-57,0-103.3-37-103.3-82.4c0-11.4,2.9-22.5,8.6-32.9l1.5-2.7l-2.3-2
					c-5.8-5-9.2-12.2-9.2-19.8c0-14.4,11.7-26.1,26.1-26.1c8.5,0,16.5,4.2,21.4,11.2l1.8,2.6l2.9-1.4c15.9-7.5,34-11.5,52.5-11.5
					s36.7,4,52.5,11.5l2.9,1.4l1.8-2.6C566.8,530.3,574.8,526.1,583.3,526.1 M583.3,522.3c-10.2,0-19.1,5.1-24.5,12.9
					c-15.9-7.5-34.4-11.8-54.1-11.8s-38.3,4.3-54.1,11.8c-5.4-7.8-14.3-12.9-24.5-12.9c-16.5,0-29.8,13.3-29.8,29.8
					c0,9.1,4.1,17.2,10.5,22.7c-5.8,10.6-9.1,22.4-9.1,34.7c0,47.6,47.9,86.2,107,86.2s107-38.6,107-86.2c0-12.4-3.3-24.1-9.1-34.7
					c6.4-5.5,10.5-13.6,10.5-22.7C613.1,535.7,599.8,522.3,583.3,522.3L583.3,522.3z"/>
			</g>
		</g>
		<g class="st5">
			<circle class="st6" cx="445.1" cy="629.5" r="21.8"/>
			<circle class="st6" cx="564.3" cy="629.5" r="21.8"/>
		</g>
		<g>
			<path d="M534.2,588.5c4.2,0,7.6,3.5,7.5,7.8c-0.1,4.1-3.5,7.5-7.6,7.5c-4.2,0-7.6-3.4-7.6-7.7C526.6,591.8,530,588.5,534.2,588.5
				z"/>
			<path d="M482.1,595.5c0,4.3-3.3,7.6-7.6,7.7c-4.3,0-7.6-3.3-7.6-7.6c0-4.3,3.4-7.6,7.7-7.6C478.8,588,482.1,591.3,482.1,595.5z"
				/>
			<path d="M504.3,619.1c-4.1,0-7.3-2.4-7.4-5.5c-0.1-3.2,3.1-5.8,7.3-5.9c4.2-0.1,7.7,2.5,7.6,5.7
				C511.8,616.6,508.5,619.1,504.3,619.1z"/>
		</g>
		<path class="st4" d="M468.4,462.6"/>
		
			<ellipse transform="matrix(0.8663 -0.4996 0.4996 0.8663 -186.9598 279.2168)" class="st4" cx="428" cy="488.8" rx="27.4" ry="5.5"/>
		
			<ellipse transform="matrix(0.9526 -0.3042 0.3042 0.9526 -121.6302 162.1082)" class="st4" cx="459.4" cy="471.4" rx="4.2" ry="2.8"/>
		<g>
			<path class="st4" d="M504.1,823.9c-3.2,0-6.3-0.6-9.2-1.8l-39.4-15.5c-13.3-5.2-19.8-20.5-14.7-34l0.4-0.9
				c3.9-10,13.6-16.8,24.2-16.8c3.2,0,6.3,0.6,9.2,1.8l39.4,15.5c13.3,5.2,19.8,20.5,14.7,34l-0.4,0.9
				C524.5,817.2,514.7,823.9,504.1,823.9C504.1,823.9,504.1,823.9,504.1,823.9z"/>
			<g>
				<path class="st4" d="M465.4,757.2c2.9,0,5.7,0.5,8.4,1.6l39.4,15.5c12.2,4.8,18.2,18.8,13.4,31.2l-0.4,0.9
					c-3.5,9.2-12.4,15.4-22.2,15.4c-2.9,0-5.7-0.5-8.4-1.6l-39.4-15.5c-12.2-4.8-18.2-18.8-13.4-31.2l0.4-0.9
					C446.8,763.3,455.7,757.2,465.4,757.2 M465.4,752.8c-11.2,0-21.9,6.9-26.2,18.2l-0.4,0.9c-5.6,14.6,1.5,31.2,15.9,36.8
					l39.4,15.5c3.3,1.3,6.7,1.9,10,1.9c11.2,0,21.9-6.9,26.2-18.2l0.4-0.9c5.6-14.6-1.5-31.2-15.9-36.8l-39.4-15.5
					C472.2,753.4,468.8,752.8,465.4,752.8L465.4,752.8z"/>
			</g>
		</g>
		<g>
			<path class="st4" d="M596.4,814.4c-3.2,0-6.3-0.6-9.2-1.8l-39.4-15.5c-13.3-5.2-19.8-20.5-14.7-34l0.4-0.9
				c3.9-10,13.6-16.8,24.2-16.8c3.2,0,6.3,0.6,9.2,1.8l39.4,15.5c13.3,5.2,19.8,20.5,14.7,34l-0.4,0.9
				C616.8,807.6,607.1,814.4,596.4,814.4C596.4,814.4,596.4,814.4,596.4,814.4z"/>
			<g>
				<path class="st4" d="M557.7,747.6c2.9,0,5.7,0.5,8.4,1.6l39.4,15.5c12.2,4.8,18.2,18.8,13.4,31.2l-0.4,0.9
					c-3.5,9.2-12.4,15.4-22.2,15.4c-2.9,0-5.7-0.5-8.4-1.6l-39.4-15.5c-12.2-4.8-18.2-18.8-13.4-31.2l0.4-0.9
					C539.1,753.8,548,747.6,557.7,747.6 M557.7,743.2c-11.2,0-21.9,6.9-26.2,18.2l-0.4,0.9c-5.6,14.6,1.5,31.2,15.9,36.8l39.4,15.5
					c3.3,1.3,6.7,1.9,10,1.9c11.2,0,21.9-6.9,26.2-18.2l0.4-0.9c5.6-14.6-1.5-31.2-15.9-36.8l-39.4-15.5
					C564.5,743.8,561.1,743.2,557.7,743.2L557.7,743.2z"/>
			</g>
		</g>
		<path class="st7" d="M616.3,804c-6.3,8-15.7,11.7-19.5,8.7c-3.8-3-1.7-11.9,4.6-19.9s14.5-12,18.3-9
			C623.4,786.8,622.6,796,616.3,804z"/>
		<path class="st7" d="M523.6,813.4c-6.3,8-15.7,11.7-19.5,8.7c-3.8-3-1.7-11.9,4.6-19.9c6.3-8,14.5-12,18.3-9
			C530.7,796.2,529.9,805.5,523.6,813.4z"/>
		<g>
			
				<linearGradient id="SVGID_00000144312019625951937990000013770134620235117992_" gradientUnits="userSpaceOnUse" x1="412.0106" y1="691.8899" x2="597.3527" y2="691.8899">
				<stop  offset="1.065558e-08" style="stop-color:#D0A7E8"/>
				<stop  offset="1" style="stop-color:#6DABE8"/>
			</linearGradient>
			<path style="fill:url(#SVGID_00000144312019625951937990000013770134620235117992_);" d="M575.1,667.6c-0.5,0.2-0.9,0.4-1.4,0.6
				c-44.3,18.2-93.7,18.2-138,0c-0.5-0.2-0.9-0.4-1.4-0.6c-5.2-2.1-11.1-0.6-14.8,3.7c-6.1,7.1-12.4,18.2-1.4,25.4
				c0,0,34.6,20.4,86.6,20.4c52,0,86.6-20.4,86.6-20.4c11.1-7.2,4.7-18.3-1.4-25.4C586.2,667,580.3,665.5,575.1,667.6z"/>
		</g>
		<path class="st9" d="M621.2,783.5l-41.4-1.3c-5.4-0.2-10.6,2.3-13.8,6.7l-24.5,33.4c-8.1,11-25.3,8-29.1-5.1l-11.6-39.7
			c-1.5-5.2-5.5-9.3-10.6-11l-39.3-13c-13-4.3-15.4-21.6-4.1-29.3l34.2-23.3c4.5-3.1,7.2-8.1,7.2-13.5l0.2-41.4
			c0.1-13.7,15.8-21.3,26.6-12.9l32.7,25.4c4.3,3.3,9.9,4.3,15.1,2.7l39.4-12.6c13-4.2,25.1,8.4,20.5,21.3l-14,39
			c-1.8,5.1-1,10.8,2.1,15.2l24.2,33.6C643.1,768.5,634.9,783.9,621.2,783.5z"/>
		<circle class="st10" cx="606.4" cy="724.3" r="20.3"/>
		<g>
			<path class="st4" d="M474.1,749.6c-2.2,0-4.4-0.4-6.5-1.1l-31.6-10.7c-10.6-3.6-16.4-15.2-12.9-25.8l0.2-0.7
				c2.7-8.3,10.4-13.8,19.1-13.8c2.2,0,4.4,0.4,6.5,1.1l31.6,10.7c10.6,3.6,16.4,15.2,12.9,25.8l-0.2,0.7
				C490.5,744,482.9,749.6,474.1,749.6C474.1,749.6,474.1,749.6,474.1,749.6z"/>
			<g>
				<path class="st4" d="M442.5,699.1c2,0,4,0.3,5.9,1l31.6,10.7c9.8,3.3,15.1,13.9,11.9,23.7l-0.2,0.7c-2.5,7.6-9.5,12.6-17.5,12.6
					c-2,0-4-0.3-5.9-1l-31.6-10.7c-9.8-3.3-15.1-13.9-11.9-23.7l0.2-0.7C427.5,704.2,434.6,699.1,442.5,699.1 M442.5,695.7
					c-9.2,0-17.7,5.8-20.8,15l-0.2,0.7c-3.8,11.5,2.5,24.1,14,28l31.6,10.7c2.3,0.8,4.7,1.2,7,1.2c9.2,0,17.7-5.8,20.8-15l0.2-0.7
					c3.8-11.5-2.5-24.1-14-28l-31.6-10.7C447.2,696.1,444.9,695.7,442.5,695.7L442.5,695.7z"/>
			</g>
		</g>
		<path class="st11" d="M590,736.3c3.7,4.6,9,6.9,11,5.3c2-1.6,0.7-6.7-3-11.3s-8.3-7.1-10.4-5.5C585.7,726.4,586.3,731.6,590,736.3
			z"/>
	</g>
</g>
<g id="레이어_6">
</g>
</svg>
