<?xml version="1.0" encoding="UTF-8"?>
<svg id="_레이어_1" data-name="레이어 1" xmlns="http://www.w3.org/2000/svg" version="1.1" viewBox="0 0 1920 1080">
  <defs>
    <style>
      .cls-1 {
        fill: #cce8ff;
      }

      .cls-1, .cls-2, .cls-3, .cls-4, .cls-5, .cls-6, .cls-7, .cls-8, .cls-9 {
        stroke-width: 0px;
      }

      .cls-1, .cls-3, .cls-4, .cls-9 {
        isolation: isolate;
      }

      .cls-1, .cls-9 {
        opacity: .5;
      }

      .cls-10 {
        fill: none;
        stroke: #fff;
        stroke-miterlimit: 10;
      }

      .cls-2 {
        fill: #fed56b;
      }

      .cls-3 {
        fill: #ffef92;
      }

      .cls-3, .cls-4 {
        opacity: .3;
      }

      .cls-11 {
        opacity: .15;
      }

      .cls-12 {
        opacity: .32;
      }

      .cls-4 {
        fill: #ffe45e;
      }

      .cls-5, .cls-9 {
        fill: #e88439;
      }

      .cls-6 {
        fill: #fff;
      }

      .cls-7 {
        fill: #1d2140;
      }

      .cls-8 {
        fill: #67b1e8;
      }
    </style>
  </defs>
  <rect class="cls-7" x="0" y="-.5" width="1920" height="1080.5"/>
  <g class="cls-11">
    <path class="cls-2" d="M0,1080h1920v-51.44c-212.41-301.11-562.96-497.78-959.5-497.78S212.31,728.07,0,1029.98v50.02Z"/>
    <path class="cls-3" d="M1883.03,1080c-83.01-226.88-300.81-388.8-556.44-388.8s-473.43,161.93-556.44,388.8h1112.88Z"/>
    <path class="cls-9" d="M0,1080h854.6c33.4-91.13,120.91-182.71,183.42-237.21,116.5-101.57,80.73-331.46-235.81-301.42-316.54,30.04-598.63,266.03-598.63,266.03,0,0-84.06,79.54-203.59,228.05v44.54Z"/>
    <path class="cls-4" d="M1920,1080v-35.1c-165.63-271.17-464.36-452.18-805.37-452.18s-665.08,196.74-825.78,487.28h1631.15Z"/>
  </g>
  <g class="cls-12">
    <circle class="cls-6" cx="119.19" cy="339.33" r="6.36"/>
    <circle class="cls-6" cx="298.31" cy="226.46" r="6.36"/>
    <circle class="cls-6" cx="1754.59" cy="111.99" r="6.36"/>
    <circle class="cls-6" cx="1689.94" cy="328.21" r="6.36"/>
    <circle class="cls-6" cx="1784.26" cy="633.45" r="3.18"/>
    <circle class="cls-6" cx="1870.12" cy="204.2" r="1.06"/>
    <circle class="cls-6" cx="103.29" cy="706.58" r="3.18"/>
    <circle class="cls-6" cx=".48" cy="135.31" r="3.18"/>
    <circle class="cls-6" cx="1245.85" cy="279.45" r="1.06"/>
    <circle class="cls-6" cx="316.33" cy="630.27" r="1.06"/>
    <circle class="cls-6" cx="346.01" cy="54.76" r="1.06"/>
    <circle class="cls-6" cx="106.47" cy="454.33" r="1.06"/>
    <circle class="cls-6" cx="719.08" cy="232.82" r="3.18"/>
    <circle class="cls-6" cx="1084.74" cy="137.43" r="3.18"/>
    <circle class="cls-6" cx="1565.93" cy="387.56" r="3.18"/>
    <circle class="cls-6" cx="408.54" cy="505.21" r="3.18"/>
    <line class="cls-10" x1="1879.24" y1="699.16" x2="1777.15" y2="801.26"/>
    <line class="cls-10" x1="1922.17" y1="742.09" x2="1820.07" y2="844.18"/>
    <line class="cls-10" x1="1922.7" y1="699.16" x2="1777.15" y2="844.71"/>
    <line class="cls-10" x1="634.94" y1="-89.39" x2="532.85" y2="12.7"/>
    <line class="cls-10" x1="677.86" y1="-46.46" x2="575.77" y2="55.63"/>
    <line class="cls-10" x1="678.39" y1="-89.39" x2="532.85" y2="56.16"/>
  </g>
  <g>
    <g>
      <path class="cls-6" d="M557.08,517.07h4.59v3.21h3.21v-3.21h16.52v-4.59h15.83v4.59h4.59v40.27h-4.59v4.59h-15.83v-3.9h-4.7v-4.7h-11.82v-3.21h-3.21v5.96h-4.59v4.59h-48.18v-4.59h-4.59v-39h4.59v-4.59h13.65v3.9h4.59v6.77h11.7v-6.77h4.59v-3.9h13.65v4.59ZM532.42,602.07h67.8v3.44h3.67v8.03h-3.67v3.44h-88.79v-3.79h-3.79v-25.24h3.79v-3.79h64.93v-3.56h-64.93v-3.44h-3.79v-7.92h3.79v-3.44h85.92v3.79h3.79v24.89h-3.79v3.79h-64.93v3.79ZM526.91,538.4v6.54h12.16v-6.54h-12.16ZM561.67,539.78h3.21v-3.21h11.82v-2.75h-11.82v-3.21h-3.21v9.18Z"/>
      <path class="cls-6" d="M613.63,555.15h3.9v-3.9h28.68v-10.67h5.28v-3.79h15.14v3.79h5.28v10.67h41.07v3.9h3.9v11.82h-3.9v3.9h-95.44v-3.9h-3.9v-11.82ZM707.35,512.48v4.59h4.59v25.81h-4.59v4.25h-15.72v-4.25h-4.59v-10.32h-64.47v-4.59h-4.59v-10.9h4.59v-4.59h84.77ZM622.58,580.62v-4.36h85.35v4.36h4.24v32.01h-4.24v4.36h-85.35v-4.36h-4.24v-32.01h4.24ZM687.28,593.81h-44.05v5.62h44.05v-5.62Z"/>
    </g>
    <g>
      <path class="cls-2" d="M558.39,464.42h1.25v.87h.87v-.87h4.49v-1.25h4.31v1.25h1.25v10.95h-1.25v1.25h-4.31v-1.06h-1.28v-1.28h-3.21v-.87h-.87v1.62h-1.25v1.25h-13.11v-1.25h-1.25v-10.61h1.25v-1.25h3.71v1.06h1.25v1.84h3.18v-1.84h1.25v-1.06h3.71v1.25ZM551.68,487.54h18.44v.94h1v2.18h-1v.94h-24.15v-1.03h-1.03v-6.86h1.03v-1.03h17.66v-.97h-17.66v-.94h-1.03v-2.15h1.03v-.94h23.37v1.03h1.03v6.77h-1.03v1.03h-17.66v1.03ZM550.18,470.23v1.78h3.31v-1.78h-3.31ZM559.64,470.6h.87v-.87h3.21v-.75h-3.21v-.87h-.87v2.5Z"/>
      <path class="cls-2" d="M588.71,464.42h1.25v.87h.87v-.87h4.49v-1.25h4.31v1.25h1.25v10.95h-1.25v1.25h-4.31v-1.06h-1.28v-1.28h-3.21v-.87h-.87v1.62h-1.25v1.25h-13.11v-1.25h-1.25v-10.61h1.25v-1.25h3.71v1.06h1.25v1.84h3.18v-1.84h1.25v-1.06h3.71v1.25ZM582,487.54h18.44v.94h1v2.18h-1v.94h-24.15v-1.03h-1.03v-6.86h1.03v-1.03h17.66v-.97h-17.66v-.94h-1.03v-2.15h1.03v-.94h23.37v1.03h1.03v6.77h-1.03v1.03h-17.66v1.03ZM580.51,470.23v1.78h3.31v-1.78h-3.31ZM589.96,470.6h.87v-.87h3.21v-.75h-3.21v-.87h-.87v2.5Z"/>
      <path class="cls-2" d="M639.6,484.86v1.25h1.28v3.5h-1.28v1.25h-25.52v-1.25h-1.28v-3.5h1.28v-1.25h7.27v-8.27h1.25v-1.25h4.31v1.25h1.28v8.27h11.42ZM615.7,463.17h22.28v1.25h1.25v15.38h-1.25v1.25h-4.27v-1.25h-1.25v-10.61h-16.76v-1.25h-1.25v-3.53h1.25v-1.25Z"/>
      <path class="cls-2" d="M644.96,464.42v-1.25h14.26v1.25h1.25v13.54h-1.25v1.25h-14.26v-1.25h-1.25v-13.54h1.25ZM645.68,491.6v-1.25h-1.25v-7.61h1.25v-1.25h4.4v1.25h1.25v3.37h18.04v1.25h1.25v3h-1.25v1.25h-23.68ZM649.92,468.35v5.65h4.31v-5.65h-4.31ZM669.21,463.17v1.25h1.22v16.82h-1.22v1.25h-4.34v-1.25h-1.25v-16.82h1.25v-1.25h4.34Z"/>
    </g>
  </g>
  <g id="_레이어_3" data-name="레이어 3">
    <path class="cls-5" d="M458.18,474.15l27.15-12.02s12.02,27.15-31.68,34.65"/>
    <path class="cls-5" d="M428.2,444.17l12.02-27.15s-27.15-12.02-34.65,31.68"/>
    <path class="cls-6" d="M482.22,377.42c-9.26,2.47-19.16,7.57-28.78,17.18-28.99,28.99-25.88,58.41-25.88,58.41l10.89,10.89,10.89,10.89s29.42,3.11,58.41-25.88c9.62-9.62,14.71-19.52,17.18-28.78,0,0-42.71-42.71-42.71-42.71Z"/>
    <path class="cls-5" d="M520.19,382.3c-3.61-3.61-19.3-9.83-37.97-4.88l42.78,42.78c5.02-18.6-1.2-34.29-4.81-37.9Z"/>
    <rect class="cls-6" x="432.18" y="456.32" width="8.5" height="19.2" transform="translate(-201.62 445.07) rotate(-45)"/>
    <g>
      <circle class="cls-5" cx="482.43" cy="419.92" r="17.1"/>
      <circle class="cls-5" cx="461.29" cy="441.06" r="8.5"/>
      <circle class="cls-8" cx="482.43" cy="419.92" r="10.7"/>
      <circle class="cls-1" cx="488.44" cy="419.99" r="4.3"/>
      <circle class="cls-8" cx="461.29" cy="441.06" r="4.3"/>
    </g>
  </g>
</svg>