<svg width="22" height="22" viewBox="0 0 128 128" fill="none" xmlns="http://www.w3.org/2000/svg">
<path d="M92.38 125.11C92.06 125.11 91.76 125.01 91.46 124.82L45.58 94.95H17.5C8.13 94.95 0.5 86.48 0.5 76.06V21.77C0.5 11.36 8.13 2.88 17.5 2.88H110.5C119.87 2.88 127.5 11.35 127.5 21.77V76.06C127.5 86.47 119.87 94.95 110.5 94.95H85.09L94.1 122.27C94.34 122.99 94.23 123.74 93.81 124.33C93.45 124.82 92.92 125.11 92.38 125.11Z" fill="white"/>
<path d="M110.5 3.39C119.6 3.39 127 11.64 127 21.78V76.07C127 86.21 119.6 94.46 110.5 94.46H85.78H84.4L84.83 95.77L93.63 122.43C93.82 123 93.74 123.58 93.41 124.04C93.15 124.41 92.76 124.62 92.38 124.62C92.16 124.62 91.95 124.55 91.74 124.41L45.97 94.61L45.72 94.45H45.42H17.5C8.4 94.45 1 86.2 1 76.06V21.77C1 11.64 8.4 3.39 17.5 3.39H110.5ZM110.5 2.39H17.5C7.83 2.39 0 11.07 0 21.77V76.06C0 86.77 7.83 95.45 17.5 95.45H45.43L91.19 125.24C91.58 125.49 91.99 125.61 92.38 125.61C93.89 125.61 95.18 123.93 94.58 122.11L85.78 95.45H110.5C120.16 95.45 128 86.77 128 76.06V21.77C128 11.07 120.17 2.39 110.5 2.39Z" fill="black"/>
<path d="M36 57.89C40.6944 57.89 44.5 54.0844 44.5 49.39C44.5 44.6956 40.6944 40.89 36 40.89C31.3056 40.89 27.5 44.6956 27.5 49.39C27.5 54.0844 31.3056 57.89 36 57.89Z" fill="#2F4768"/>
<path d="M36 41.39C40.41 41.39 44 44.98 44 49.39C44 53.8 40.41 57.39 36 57.39C31.59 57.39 28 53.8 28 49.39C28 44.98 31.59 41.39 36 41.39ZM36 40.39C31.03 40.39 27 44.42 27 49.39C27 54.36 31.03 58.39 36 58.39C40.97 58.39 45 54.36 45 49.39C45 44.42 40.97 40.39 36 40.39Z" fill="white"/>
<path d="M64 57.89C68.6944 57.89 72.5 54.0844 72.5 49.39C72.5 44.6956 68.6944 40.89 64 40.89C59.3056 40.89 55.5 44.6956 55.5 49.39C55.5 54.0844 59.3056 57.89 64 57.89Z" fill="#2F4768"/>
<path d="M64 41.39C68.41 41.39 72 44.98 72 49.39C72 53.8 68.41 57.39 64 57.39C59.59 57.39 56 53.8 56 49.39C56 44.98 59.59 41.39 64 41.39ZM64 40.39C59.03 40.39 55 44.42 55 49.39C55 54.36 59.03 58.39 64 58.39C68.97 58.39 73 54.36 73 49.39C73 44.42 68.97 40.39 64 40.39Z" fill="white"/>
<path d="M92 57.89C96.6944 57.89 100.5 54.0844 100.5 49.39C100.5 44.6956 96.6944 40.89 92 40.89C87.3056 40.89 83.5 44.6956 83.5 49.39C83.5 54.0844 87.3056 57.89 92 57.89Z" fill="#2F4768"/>
<path d="M92 41.39C96.41 41.39 100 44.98 100 49.39C100 53.8 96.41 57.39 92 57.39C87.59 57.39 84 53.8 84 49.39C84 44.98 87.59 41.39 92 41.39ZM92 40.39C87.03 40.39 83 44.42 83 49.39C83 54.36 87.03 58.39 92 58.39C96.97 58.39 101 54.36 101 49.39C101 44.42 96.97 40.39 92 40.39Z" fill="white"/>
</svg>
