<?xml version="1.0" encoding="utf-8"?>
<svg width="22" height="22" version="1.1" id="레이어_1" xmlns="http://www.w3.org/2000/svg" xmlns:xlink="http://www.w3.org/1999/xlink" x="0px"
	 y="0px" viewBox="0 0 128 128" style="enable-background:new 0 0 128 128;" xml:space="preserve">
<style type="text/css">
	.st0{fill:none;stroke:#221714;stroke-width:4;stroke-miterlimit:10;}
</style>
<path class="st0" d="M301.72,51.96"/>
<g>
	<circle cx="112.5" cy="16.81" r="7" fill="white"/>
</g>
<g>
	<path d="M125.44,47.88c-0.27-0.24-0.54-0.47-0.79-0.68L70.27,2.11c-1.81-1.5-4.05-2.2-6.27-2.11v0.01
		c-2.21-0.09-4.46,0.61-6.27,2.11L3.35,47.21c-0.25,0.21-0.52,0.44-0.79,0.68C0.94,49.33,0,51.39,0,53.56v63.03
		C0,122.89,5.11,128,11.42,128H34.3c6.31,0,11.42-5.11,11.42-11.42V86.85c0-0.28,0.02-0.55,0.03-0.83V85.1
		c0-10.17,8.31-17.71,18.15-18.15c9.22-0.41,17.15,7.61,18.06,16.47c0.21,1.12,0.34,2.26,0.34,3.42v29.73
		c0,6.31,5.11,11.42,11.42,11.42h22.88c6.31,0,11.42-5.11,11.42-11.42V53.55C128,51.38,127.06,49.32,125.44,47.88z" fill="white"/>
</g>
</svg>