<?xml version="1.0" encoding="utf-8"?>
<svg width="22" height="22" version="1.1" id="레이어_1" xmlns="http://www.w3.org/2000/svg" xmlns:xlink="http://www.w3.org/1999/xlink" x="0px"
	 y="0px" viewBox="0 0 128 128" style="enable-background:new 0 0 128 128;" xml:space="preserve">
<g>
	<g>
		<path d="M77.9,33h34.2c0.6,0,1.3,0.1,1.9,0.1V31c0-6.1-5.1-11-11.4-11H69C71.2,23,74.7,28.1,77.9,33z" fill="white"/>
	</g>
	<g>
		<path d="M128,42.1c0-7-6-12.7-13.4-12.7H79.8c-4.2-6.3-8.9-13-10.7-15.1C65.2,10,59.4,10,59.4,10H12.8C5.7,10,0,15.4,0,22.1v20v0
			v0.3v62.9v0h0c0,7,6,12.7,13.4,12.7h101.3c7.4,0,13.3-5.7,13.4-12.7h0v0L128,42.1L128,42.1L128,42.1z" fill="white"/>
	</g>
</g>
</svg>