<svg width="104" height="124" viewBox="0 0 104 124" fill="none" xmlns="http://www.w3.org/2000/svg">
<path d="M64 106H40V116H64V106Z" fill="#82CAC4"/>
<path d="M77.54 75.9954L68.0012 85.5342L88.4647 105.998L98.0035 96.4589L77.54 75.9954Z" fill="#82CAC4"/>
<path d="M14.5901 116H5.37012V124H14.5901V116Z" fill="#82CAC4"/>
<path d="M94.5901 85.3401H85.3701V90.0001H94.5901V85.3401Z" fill="#EEEDEA"/>
<path d="M26.4649 76.0021L6.00146 96.4656L15.5402 106.004L36.0037 85.5409L26.4649 76.0021Z" fill="#82CAC4"/>
<path d="M52.08 0C52.08 0 42.51 4 34.99 18C46.46 18 57.58 18 68.85 18C65.04 10.93 59.66 4.45 52.08 0Z" fill="#82CAC4"/>
<path d="M69.46 19.34C69.23 18.89 69 18.45 68.76 18C57.49 18 46.37 18 34.9 18C30.03 27.06 26.01 40.3 26.01 59.4H26.02V108H77.98V59.4H77.97C77.98 59.4 78.79 37.73 69.46 19.34Z" fill="white"/>
<path d="M9.9899 68C9.9899 68 4.4899 70.89 1.6499 82C7.3599 82 12.5099 82 18.2099 82C16.8299 76.7 14.3599 71.24 9.9899 68Z" fill="#82CAC4"/>
<path d="M18.21 82C12.51 82 7.36 82 1.65 82C0.67 85.63 0 90.18 0 95.87V118H19.97V95.87C19.97 95.87 20.18 89.09 18.21 82Z" fill="white"/>
<path d="M89.4106 124L98.6306 124L98.6306 116L89.4106 116L89.4106 124Z" fill="#82CAC4"/>
<path d="M94.01 68C94.01 68 99.51 70.89 102.35 82C96.64 82 91.49 82 85.79 82C87.17 76.7 89.64 71.24 94.01 68Z" fill="#82CAC4"/>
<path d="M85.7899 82C91.4899 82 96.6399 82 102.35 82C103.33 85.63 104 90.18 104 95.87V118H84.0299V95.87C84.0299 95.87 83.8199 89.09 85.7899 82Z" fill="white"/>
<path d="M51.9199 60C60.7565 60 67.9199 52.8366 67.9199 44C67.9199 35.1634 60.7565 28 51.9199 28C43.0834 28 35.9199 35.1634 35.9199 44C35.9199 52.8366 43.0834 60 51.9199 60Z" fill="#82CAC4"/>
<path d="M51.9199 80C56.3382 80 59.9199 76.4183 59.9199 72C59.9199 67.5817 56.3382 64 51.9199 64C47.5016 64 43.9199 67.5817 43.9199 72C43.9199 76.4183 47.5016 80 51.9199 80Z" fill="#82CAC4"/>
<path d="M51.9199 54C57.4428 54 61.9199 49.5228 61.9199 44C61.9199 38.4772 57.4428 34 51.9199 34C46.3971 34 41.9199 38.4772 41.9199 44C41.9199 49.5228 46.3971 54 51.9199 54Z" fill="#1178BE"/>
<path opacity="0.5" d="M55.9199 44C58.1291 44 59.9199 42.2091 59.9199 40C59.9199 37.7909 58.1291 36 55.9199 36C53.7108 36 51.9199 37.7909 51.9199 40C51.9199 42.2091 53.7108 44 55.9199 44Z" fill="#B4CBD4"/>
<path d="M51.9199 76C54.1291 76 55.9199 74.2091 55.9199 72C55.9199 69.7909 54.1291 68 51.9199 68C49.7108 68 47.9199 69.7909 47.9199 72C47.9199 74.2091 49.7108 76 51.9199 76Z" fill="#1178BE"/>
</svg>
