<?xml version="1.0" encoding="utf-8"?>
<svg width="22" height="22" version="1.1" id="레이어_1" xmlns="http://www.w3.org/2000/svg" xmlns:xlink="http://www.w3.org/1999/xlink" x="0px"
	 y="0px" viewBox="0 0 128 128" style="enable-background:new 0 0 128 128;" xml:space="preserve">
<g>
	<g>
		<g>
			<path d="M102.6,24c3.3,0,6.2,2.1,7.1,5H80c-1.2-1.8-2.3-3.5-3.3-5H102.6 M102.6,20H69c2.2,3,5.7,8.1,8.9,13h34.2
				c0.6,0,1.3,0.1,1.9,0.1V31C114,24.9,108.9,20,102.6,20L102.6,20z" fill="white"/>
		</g>
	</g>
	<g>
		<path d="M59.4,14c0.2,0,4.2,0.2,6.7,3c0.8,0.9,3.2,4,10.4,14.7l1.2,1.8h2.1h34.8c5.2,0,9.3,3.9,9.4,8.7l0,0.6v62l0,0.7
			c0,4.8-4.2,8.7-9.4,8.7H13.4c-5.2,0-9.3-3.9-9.4-8.7l0-0.6V42.4v-0.3v-20c0-4.5,3.9-8.1,8.8-8.1H59.4 M59.4,10H12.8
			C5.7,10,0,15.4,0,22.1v20v0v0.3v62.9v0h0c0,7,6,12.7,13.4,12.7h101.3c7.4,0,13.3-5.7,13.4-12.7h0v0V42.1v0h0c0-7-6-12.7-13.4-12.7
			H79.8c-4.2-6.3-8.9-13-10.7-15.1C65.2,10,59.4,10,59.4,10L59.4,10z" fill="white"/>
	</g>
</g>
</svg>
