<svg width="90" height="128" viewBox="0 0 90 128" fill="none" xmlns="http://www.w3.org/2000/svg">
<path d="M66.2 108.8L76.9 81.1C76.9 81.1 104.6 91.8 79 128" fill="#E88439"/>
<path d="M23.8 108.8L13.1 81.1C13.1 81.1 -14.6 91.8 11 128" fill="#E88439"/>
<path d="M14.8 23.4C9.99997 31.7 6.59998 42.3 6.59998 55.9C6.59998 96.9 29.6 115.5 29.6 115.5H45H60.4C60.4 115.5 83.4 96.9 83.4 55.9C83.4 42.3 80 31.7 75.2 23.4H14.8Z" fill="white"/>
<path d="M45.0999 0C39.9999 0 24.4999 6.7 14.7999 23.4H75.2999C65.6999 6.7 50.1999 0 45.0999 0Z" fill="#E88439"/>
<path d="M54.5999 114.1H35.3999V122.6H54.5999V114.1Z" fill="white"/>
<path d="M44.9999 70.4C54.444 70.4 62.0999 62.744 62.0999 53.2999C62.0999 43.8559 54.444 36.2 44.9999 36.2C35.5558 36.2 27.8999 43.8559 27.8999 53.2999C27.8999 62.744 35.5558 70.4 44.9999 70.4Z" fill="#E88439"/>
<path d="M44.9999 91.7C49.6943 91.7 53.4999 87.8944 53.4999 83.2C53.4999 78.5055 49.6943 74.7 44.9999 74.7C40.3055 74.7 36.4999 78.5055 36.4999 83.2C36.4999 87.8944 40.3055 91.7 44.9999 91.7Z" fill="#E88439"/>
<path d="M44.9999 64C50.9094 64 55.6999 59.2094 55.6999 53.3C55.6999 47.3905 50.9094 42.6 44.9999 42.6C39.0905 42.6 34.2999 47.3905 34.2999 53.3C34.2999 59.2094 39.0905 64 44.9999 64Z" fill="#2870AF"/>
<path opacity="0.5" d="M49.2999 53.3999C51.6747 53.3999 53.5999 51.4748 53.5999 49.0999C53.5999 46.7251 51.6747 44.7999 49.2999 44.7999C46.9251 44.7999 44.9999 46.7251 44.9999 49.0999C44.9999 51.4748 46.9251 53.3999 49.2999 53.3999Z" fill="#A2C0DD"/>
<path d="M45 87.4999C47.3748 87.4999 49.3 85.5747 49.3 83.1999C49.3 80.8251 47.3748 78.8999 45 78.8999C42.6251 78.8999 40.7 80.8251 40.7 83.1999C40.7 85.5747 42.6251 87.4999 45 87.4999Z" fill="#2870AF"/>
</svg>
