<svg width="65" version="1.1" id="레이어_1" xmlns="http://www.w3.org/2000/svg" xmlns:xlink="http://www.w3.org/1999/xlink" x="0px"
	 y="0px" viewBox="0 0 128 128" style="enable-background:new 0 0 128 128;" xml:space="preserve">
<style type="text/css">
	.st0{fill:#040000;}
	.st1{fill:#FFFFFF;}
	.st2{fill:#82CAC4;}
	.st3{fill:#1178BE;}
	.st4{opacity:0.5;fill:#B4CBD4;}
</style>
<g>
	<path class="st0" d="M31.28,53.67"/>
	<path class="st1" d="M42.32,23.09C37.1,32.12,33,44.57,33,61.46c0,0,0,7.43,1.72,13.01c1.72,5.57,5.17,24.15,5.17,24.15H64V22.7
		C56.74,22.57,49.49,22.59,42.32,23.09z"/>
	<path class="st2" d="M44.24,20c-0.29,0.44-0.58,0.88-0.86,1.34H64V20C57.48,20,50.95,20,44.24,20z"/>
	<path class="st1" d="M43.37,21.34c-0.36,0.57-0.71,1.15-1.06,1.75c7.17-0.5,14.42-0.53,21.68-0.4v-1.36H43.37z"/>
	<path class="st2" d="M64,2c0,0-10.89,4.59-19.76,18c6.71,0,13.24,0,19.76,0c6.53,0,13.06,0,19.76,0C74.89,6.59,64,2,64,2z"/>
	<path class="st2" d="M64,20v1.34h20.62c-0.28-0.46-0.57-0.9-0.86-1.34C77.06,20,70.53,20,64,20z"/>
	<path class="st1" d="M64,21.34v1.36c7.26,0.13,14.52,0.4,21.73,0.48c-0.36-0.63-0.73-1.24-1.11-1.84H64z"/>
	<path class="st1" d="M64,22.7v75.92h24.11c0,0,3.44-18.58,5.17-24.15S95,61.46,95,61.46c0-16.83-4.08-29.25-9.27-38.28
		C78.52,23.09,71.26,22.83,64,22.7z"/>
	<polygon class="st2" points="33,58 12.33,87.47 12.33,126 39.89,98.8 	"/>
	<polygon class="st2" points="95,58 115.67,87.47 115.67,126 88.11,98.8 	"/>
	<path class="st1" d="M79.55,106H49.12c-1.54,0-2.79-1.25-2.79-2.79v-4.49c0-1.54,1.25-2.79,2.79-2.79h30.43
		c1.54,0,2.79,1.25,2.79,2.79v4.49C82.33,104.75,81.09,106,79.55,106z"/>
	<circle class="st2" cx="64.33" cy="46" r="16"/>
	<circle class="st2" cx="64.33" cy="74" r="8"/>
	<circle class="st3" cx="64.33" cy="46" r="10"/>
	<circle class="st4" cx="68.33" cy="42" r="4"/>
	<circle class="st3" cx="64.33" cy="74" r="4"/>
	<rect x="46.33" y="98.6" class="st2" width="36" height="1.5"/>
</g>
</svg>