<svg width="42" height="62" viewBox="0 0 42 62" fill="none" xmlns="http://www.w3.org/2000/svg">
<path d="M14.6478 21.0121C14.5833 17.634 17.2695 14.8432 20.6476 14.7787C24.0257 14.7143 26.8165 17.4005 26.881 20.7787C26.9455 24.1568 24.2593 26.9475 20.8812 27.012C17.5029 27.0766 14.7121 24.3904 14.6478 21.0121ZM20.7176 18.4488C19.3664 18.4746 18.2918 19.5909 18.3176 20.9421C18.3435 22.2934 19.4598 23.3678 20.811 23.3421C22.1623 23.3164 23.2368 22.2 23.211 20.8488C23.1853 19.4974 22.069 18.4229 20.7176 18.4488ZM17.2446 0.956967C19.1856 -0.112395 21.5287 -0.157566 23.5095 0.836113L25.031 1.59957C30.5148 4.35061 34.022 9.91447 34.139 16.0485L34.2051 19.5015C38.3633 20.0143 41.6195 23.5198 41.7018 27.8304L41.7839 32.1296C41.8032 33.143 40.9973 33.9803 39.9838 33.9997L34.4838 34.1048L34.4953 34.7164C34.5406 37.0812 32.6603 39.0347 30.2955 39.0796L28.6103 39.112L29.6847 42.9017C29.84 43.4493 29.7325 44.0377 29.3937 44.4952C29.0549 44.9523 28.523 45.2265 27.9541 45.2374L14.4974 45.4943C13.932 45.5051 13.3932 45.2546 13.0369 44.8153C12.6808 44.3762 12.5469 43.7972 12.6741 43.2461L13.5629 39.3992L11.9343 39.4303C9.56963 39.4755 7.61597 37.595 7.57087 35.2303L7.559 34.6081L2.05409 34.7132C1.04064 34.7326 0.203397 33.9267 0.184071 32.9132L0.102013 28.614C0.0196901 24.3016 3.1422 20.6735 7.28032 20.0041L7.21441 16.5584C7.09754 10.4266 10.3872 4.73491 15.7587 1.77561L17.2446 0.956967ZM21.8636 4.11702C20.9632 3.66538 19.8981 3.68597 19.0158 4.17197L17.53 4.99061C13.3522 7.29229 10.7934 11.7193 10.8845 16.4883L11.2409 35.1603C11.2473 35.4981 11.5264 35.7667 11.8642 35.7602L30.2255 35.4098C30.5632 35.4034 30.8318 35.1243 30.8255 34.7864L30.4692 16.1185C30.3781 11.3476 27.6502 7.02025 23.3851 4.88047L21.8636 4.11702ZM23.1717 50.8432C23.1523 49.8298 22.315 49.0239 21.3016 49.0432C20.2881 49.0625 19.4823 49.8997 19.5016 50.9132L19.6651 59.4766C19.6845 60.49 20.5217 61.2959 21.5352 61.2766C22.5487 61.2573 23.3545 60.42 23.3352 59.4066L23.1717 50.8432ZM14.5733 49.1717C15.5867 49.1524 16.424 49.9583 16.4434 50.9718L16.5133 54.6417C16.5327 55.6551 15.7268 56.4923 14.7134 56.5117C13.6999 56.531 12.8626 55.7251 12.8434 54.7118L12.7733 51.0418C12.754 50.0283 13.5598 49.1911 14.5733 49.1717ZM29.9002 50.7219C29.8808 49.7084 29.0437 48.9027 28.0303 48.922C27.0168 48.9413 26.211 49.7785 26.2303 50.792L26.3 54.4547C26.3194 55.4682 27.1567 56.2741 28.1701 56.2548C29.1836 56.2354 29.9894 55.3982 29.9701 54.3847L29.9002 50.7219Z" fill="black"/>
</svg>
