<svg width="108" height="128" viewBox="0 0 108 128" fill="none" xmlns="http://www.w3.org/2000/svg">
<path d="M31.6 21.8C26.2 31.1 22 43.9 22 61.4C22 61.4 22 69.1 23.8 74.8C25.6 80.6 29.1 99.7 29.1 99.7H54V21.4C46.5 21.2 39 21.3 31.6 21.8Z" fill="white"/>
<path d="M33.6 18.6C33.3 19 33 19.5 32.7 20H54V18.6C47.3 18.6 40.5 18.6 33.6 18.6Z" fill="#E88439"/>
<path d="M32.7 20C32.3 20.6 32 21.2 31.6 21.8C39 21.3 46.5 21.3 54 21.4V20H32.7Z" fill="white"/>
<path d="M54 0C54 0 42.8 4.7 33.6 18.6C40.5 18.6 47.3 18.6 54 18.6C60.7 18.6 67.5 18.6 74.4 18.6C65.2 4.7 54 0 54 0Z" fill="#E88439"/>
<path d="M54 18.6V20H75.3C75 19.5 74.7 19.1 74.4 18.6C67.5 18.6 60.7 18.6 54 18.6Z" fill="#E88439"/>
<path d="M54 20V21.4C61.5 21.5 69 21.8 76.4 21.9C76 21.2 75.6 20.6 75.3 20H54Z" fill="white"/>
<path d="M54 21.4V99.8H78.9C78.9 99.8 82.5 80.6 84.2 74.9C86 69 86 61.4 86 61.4C86 44 81.8 31.2 76.4 21.9C69 21.8 61.5 21.5 54 21.4Z" fill="white"/>
<path d="M22 57.8L0.700012 88.2V128L29.1 99.9001L22 57.8Z" fill="#E88439"/>
<path d="M86 57.8L107.3 88.2V128L78.9 99.9001L86 57.8Z" fill="#E88439"/>
<path d="M70.1 107.4H38.6C37.1 107.4 35.8 106.2 35.8 104.6V99.8C35.8 98.3 37 97 38.6 97H70.2C71.7 97 73 98.2 73 99.8V104.6C72.9 106.1 71.7 107.4 70.1 107.4Z" fill="white"/>
<path d="M54.3 61.9C63.4127 61.9 70.8 54.5127 70.8 45.4C70.8 36.2873 63.4127 28.9 54.3 28.9C45.1873 28.9 37.8 36.2873 37.8 45.4C37.8 54.5127 45.1873 61.9 54.3 61.9Z" fill="#E88439"/>
<path d="M54.3 82.6C58.884 82.6 62.6 78.884 62.6 74.3C62.6 69.716 58.884 66 54.3 66C49.716 66 46 69.716 46 74.3C46 78.884 49.716 82.6 54.3 82.6Z" fill="#E88439"/>
<path d="M54.3 55.7C59.9885 55.7 64.6 51.0885 64.6 45.4C64.6 39.7114 59.9885 35.1 54.3 35.1C48.6115 35.1 44 39.7114 44 45.4C44 51.0885 48.6115 55.7 54.3 55.7Z" fill="#2870AF"/>
<path d="M54.3 78.4C56.5644 78.4 58.4 76.5643 58.4 74.3C58.4 72.0356 56.5644 70.2 54.3 70.2C52.0356 70.2 50.2 72.0356 50.2 74.3C50.2 76.5643 52.0356 78.4 54.3 78.4Z" fill="#2870AF"/>
<path d="M73 99.7H35.8V101.2H73V99.7Z" fill="#E88439"/>
<path d="M54.3 61.9C63.4127 61.9 70.8 54.5127 70.8 45.4C70.8 36.2873 63.4127 28.9 54.3 28.9C45.1873 28.9 37.8 36.2873 37.8 45.4C37.8 54.5127 45.1873 61.9 54.3 61.9Z" fill="#E88439"/>
<path d="M54.3 82.6C58.884 82.6 62.6 78.884 62.6 74.3C62.6 69.716 58.884 66 54.3 66C49.716 66 46 69.716 46 74.3C46 78.884 49.716 82.6 54.3 82.6Z" fill="#E88439"/>
<path d="M54.3 55.7C59.9885 55.7 64.6 51.0885 64.6 45.4C64.6 39.7114 59.9885 35.1 54.3 35.1C48.6115 35.1 44 39.7114 44 45.4C44 51.0885 48.6115 55.7 54.3 55.7Z" fill="#2870AF"/>
<path opacity="0.5" d="M58.5 45.4001C60.7643 45.4001 62.6 43.5644 62.6 41.3001C62.6 39.0357 60.7643 37.2001 58.5 37.2001C56.2356 37.2001 54.4 39.0357 54.4 41.3001C54.4 43.5644 56.2356 45.4001 58.5 45.4001Z" fill="#A2C0DD"/>
<path d="M54.3 78.4001C56.5644 78.4001 58.4 76.5644 58.4 74.3001C58.4 72.0357 56.5644 70.2001 54.3 70.2001C52.0356 70.2001 50.2 72.0357 50.2 74.3001C50.2 76.5644 52.0356 78.4001 54.3 78.4001Z" fill="#2870AF"/>
</svg>
