<?xml version="1.0" encoding="utf-8"?>
<svg width="22" height="22" version="1.1" id="레이어_1" xmlns="http://www.w3.org/2000/svg" xmlns:xlink="http://www.w3.org/1999/xlink" x="0px"
	 y="0px" viewBox="0 0 128 128" style="enable-background:new 0 0 128 128;" xml:space="preserve">
<g>
	<g>
		<path d="M63.7,58.3c3,0,5.5,2.5,5.5,5.5c0,3-2.5,5.5-5.5,5.5c-3,0-5.5-2.5-5.5-5.5C58.2,60.7,60.7,58.3,63.7,58.3 M63.7,54.3
			c-5.2,0-9.5,4.3-9.5,9.5c0,5.2,4.3,9.5,9.5,9.5s9.5-4.3,9.5-9.5C73.2,58.5,68.9,54.3,63.7,54.3L63.7,54.3z" fill="white"/>
	</g>
</g>
<g>
	<path d="M82.8,6.7c1.4,0,2.8,0.4,4,1.1l14,8.1c1.8,1.1,3.1,2.8,3.7,4.8c0.5,2,0.3,4.2-0.8,6l-5.3,9.2L97,38.1l1.4,2.1
		c1.2,1.7,2.2,3.5,3.1,5.4l1.1,2.3h2.5h10.6c4.4,0,7.9,3.6,7.9,7.9v16.1c0,4.4-3.6,7.9-7.9,7.9h-10.6h-2.5l-1.1,2.3
		c-0.9,1.8-1.9,3.6-3.1,5.4L97,89.5l1.3,2.2l5.3,9.2c1.1,1.8,1.3,4,0.8,6c-0.5,2-1.9,3.8-3.7,4.8l-14,8.1c-1.2,0.7-2.6,1.1-4,1.1
		c-2.8,0-5.5-1.5-6.9-4l-5.3-9.2l-1.3-2.2l-2.5,0.2c-1.2,0.1-2.2,0.1-3.1,0.1c-0.9,0-1.9,0-3.1-0.1l-2.5-0.2l-1.3,2.2l-5.3,9.2
		c-1.4,2.4-4.1,4-6.9,4c-1.4,0-2.7-0.4-4-1.1l-14-8.1c-1.8-1.1-3.1-2.8-3.7-4.8s-0.3-4.2,0.8-6l5.3-9.2l1.3-2.2L29,87.4
		c-1.2-1.7-2.2-3.5-3.1-5.4l-1.1-2.3h-2.5H11.6c-4.4,0-7.9-3.6-7.9-7.9V55.7c0-4.4,3.6-7.9,7.9-7.9h10.6h2.5l1.1-2.3
		c0.9-1.8,1.9-3.6,3.1-5.4l1.4-2.1l-1.3-2.2l-5.3-9.2c-1.1-1.8-1.3-4-0.8-6s1.9-3.8,3.7-4.8l14-8.1c1.2-0.7,2.6-1.1,4-1.1
		c2.8,0,5.5,1.5,6.9,4l5.3,9.2l1.3,2.2l2.5-0.2c1.2-0.1,2.2-0.1,3.1-0.1c0.9,0,1.9,0,3.1,0.1l2.5,0.2l1.3-2.2l5.3-9.2
		C77.3,8.2,79.9,6.7,82.8,6.7 M63.7,88.2c13.5,0,24.4-11,24.4-24.4c0-13.5-11-24.4-24.4-24.4s-24.4,11-24.4,24.4
		C39.2,77.2,50.2,88.2,63.7,88.2 M82.8,2.7c-4.1,0-8.1,2.1-10.3,6l-5.3,9.2c-1.1-0.1-2.2-0.1-3.4-0.1s-2.3,0.1-3.4,0.1L55,8.7
		c-2.2-3.8-6.2-6-10.3-6c-2,0-4.1,0.5-6,1.6l-14,8.1C19,15.7,17,23,20.3,28.7l5.3,9.2c-1.3,1.9-2.4,3.8-3.4,5.9H11.6
		C5,43.8-0.3,49.1-0.3,55.7v16.1c0,6.6,5.3,11.9,11.9,11.9h10.6c1,2,2.1,4,3.4,5.9l-5.3,9.2c-3.3,5.7-1.3,13,4.4,16.3l14,8.1
		c1.9,1.1,3.9,1.6,6,1.6c4.1,0,8.1-2.1,10.3-6l5.3-9.2c1.1,0.1,2.2,0.1,3.4,0.1s2.3-0.1,3.4-0.1l5.3,9.2c2.2,3.8,6.2,6,10.3,6
		c2,0,4.1-0.5,6-1.6l14-8.1c5.7-3.3,7.7-10.6,4.4-16.3l-5.3-9.2c1.3-1.9,2.4-3.8,3.4-5.9h10.6c6.6,0,11.9-5.3,11.9-11.9V55.7
		c0-6.6-5.3-11.9-11.9-11.9h-10.6c-1-2-2.1-4-3.4-5.9l5.3-9.2c3.3-5.7,1.3-13-4.4-16.3l-14-8.1C86.8,3.2,84.8,2.7,82.8,2.7L82.8,2.7
		z M63.7,84.2c-11.3,0-20.4-9.2-20.4-20.4c0-11.3,9.2-20.4,20.4-20.4s20.4,9.2,20.4,20.4C84.1,75.1,75,84.2,63.7,84.2L63.7,84.2z" fill="white"/>
</g>
</svg>
