<svg width="20" height="20" viewBox="0 0 20 20" fill="none" xmlns="http://www.w3.org/2000/svg">
<path d="M10.0112 0.25C10.7452 0.25846 11.4763 0.34326 12.1927 0.50304C12.5054 0.57279 12.7393 0.83351 12.7748 1.15196L12.945 2.67881C13.0221 3.37986 13.614 3.91084 14.3196 3.91158C14.5093 3.91188 14.6969 3.87238 14.8722 3.79483L16.2728 3.17956C16.5641 3.05159 16.9045 3.12136 17.1219 3.35362C18.1341 4.43464 18.8879 5.73115 19.3267 7.14558C19.4213 7.45058 19.3124 7.78203 19.0554 7.9715L17.8139 8.8866C17.4597 9.1468 17.2506 9.56 17.2506 9.9995C17.2506 10.4389 17.4597 10.8521 17.8147 11.1129L19.0572 12.0283C19.3143 12.2177 19.4233 12.5492 19.3287 12.8543C18.8901 14.2685 18.1367 15.5649 17.1251 16.6461C16.9079 16.8783 16.5678 16.9483 16.2765 16.8206L14.8702 16.2045C14.4678 16.0284 14.0058 16.0542 13.6255 16.274C13.2453 16.4937 12.9923 16.8812 12.944 17.3177L12.7749 18.8444C12.74 19.1592 12.5112 19.4182 12.203 19.4915C10.7546 19.8361 9.24552 19.8361 7.79705 19.4915C7.48893 19.4182 7.26008 19.1592 7.2252 18.8444L7.05638 17.32C7.00679 16.8843 6.75337 16.498 6.37345 16.279C5.99354 16.06 5.53222 16.0343 5.13122 16.2094L3.7246 16.8256C3.43325 16.9533 3.09306 16.8833 2.8758 16.6509C1.86364 15.5685 1.11021 14.2705 0.672225 12.8548C0.577885 12.5499 0.686885 12.2186 0.943875 12.0293L2.1872 11.1133C2.54134 10.8531 2.75049 10.4399 2.75049 10.0005C2.75049 9.561 2.54134 9.1478 2.18673 8.8873L0.944185 7.97285C0.686825 7.78345 0.577725 7.45178 0.672395 7.14658C1.11114 5.73215 1.86496 4.43564 2.87715 3.35462C3.09461 3.12236 3.43496 3.05259 3.72626 3.18056L5.12665 3.79572C5.52958 3.97256 5.99282 3.94585 6.37479 3.72269C6.75511 3.50209 7.00832 3.11422 7.0572 2.67764L7.22726 1.15196C7.26278 0.83335 7.49688 0.57254 7.80982 0.50294C8.52712 0.34342 9.25902 0.25865 10.0112 0.25ZM9.99872 6.99995C8.34182 6.99995 6.99872 8.3431 6.99872 10C6.99872 11.6568 8.34182 13 9.99872 13C11.6555 13 12.9987 11.6568 12.9987 10C12.9987 8.3431 11.6555 6.99995 9.99872 6.99995Z" fill="#A9A9A9"/>
</svg>
