<svg width="124" height="120" viewBox="0 0 124 120" fill="none" xmlns="http://www.w3.org/2000/svg">
<path d="M65.16 2.80001L81.59 36.09C82.1 37.13 83.1 37.85 84.24 38.02L120.97 43.36C123.86 43.78 125.02 47.33 122.92 49.37L96.35 75.28C95.52 76.09 95.14 77.26 95.34 78.4L101.61 114.99C102.1 117.87 99.08 120.07 96.49 118.71L63.63 101.44C62.6 100.9 61.38 100.9 60.35 101.44L27.5 118.7C24.91 120.06 21.89 117.86 22.38 114.98L28.65 78.39C28.85 77.25 28.47 76.08 27.64 75.27L1.06998 49.37C-1.02002 47.33 0.129983 43.78 3.01998 43.36L39.75 38.02C40.9 37.85 41.89 37.13 42.4 36.09L58.84 2.80001C60.13 0.180007 63.87 0.180007 65.16 2.80001Z" fill="#E7BC36"/>
<path opacity="0.2" d="M3.01999 43.36C0.129993 43.78 -1.03001 47.33 1.06999 49.37L27.65 75.28C28.48 76.09 28.86 77.26 28.66 78.4L22.39 114.99C21.9 117.87 24.92 120.07 27.51 118.71L60.37 101.44C61.4 100.9 62.62 100.9 63.65 101.44L96.5 118.7C99.09 120.06 102.11 117.86 101.62 114.98L95.34 78.4C95.14 77.26 95.52 76.09 96.35 75.28C98.42 73.26 97.31 69.75 94.45 69.28C71.93 65.6 50.06 55.02 32.31 40.28C31.54 39.64 30.54 39.35 29.55 39.5L3.01999 43.36Z" fill="#E7BC36"/>
<path opacity="0.1" d="M122.6 49.42C124.69 47.38 123.54 43.83 120.65 43.41L89.24 38.85C85.81 48.4 81.19 57.52 75.56 65.95C75.23 66.44 74.9 66.93 74.56 67.42C74.18 67.98 73.8 68.53 73.4 69.08C72.77 69.96 72.14 70.83 71.49 71.69C71.09 72.22 70.69 72.74 70.28 73.26C69.9 73.75 69.52 74.23 69.14 74.71C68.73 75.23 68.31 75.74 67.89 76.25C67.43 76.8 66.97 77.35 66.5 77.89C65.89 78.6 65.27 79.31 64.64 80.01C64.16 80.55 63.67 81.08 63.18 81.61C62.76 82.06 62.33 82.51 61.9 82.96C61.4 83.48 60.9 83.99 60.39 84.5C60 84.89 59.61 85.29 59.22 85.68C58.4 86.48 57.56 87.27 56.72 88.06C56.32 88.42 55.92 88.78 55.52 89.14C54.94 89.66 54.35 90.18 53.75 90.7C53.36 91.04 52.96 91.38 52.56 91.72C51.64 92.49 50.72 93.25 49.78 93.99C49.48 94.23 49.18 94.45 48.87 94.69C48.13 95.26 47.39 95.82 46.64 96.38C46.26 96.66 45.88 96.94 45.5 97.21C44.68 97.8 43.84 98.38 43 98.96C42.77 99.12 42.54 99.28 42.3 99.44C41.25 100.14 40.19 100.82 39.12 101.49C38.78 101.7 38.44 101.91 38.09 102.12C37.24 102.63 36.39 103.14 35.53 103.63C35.23 103.8 34.92 103.98 34.62 104.15C33.49 104.78 32.36 105.39 31.21 105.99C30.96 106.12 30.7 106.24 30.45 106.37C29.5 106.85 28.54 107.32 27.58 107.77C27.25 107.93 26.91 108.08 26.58 108.24C25.38 108.79 24.17 109.33 22.94 109.84L22.04 115.07C21.76 116.69 22.6 118.09 23.84 118.77C24.12 118.92 24.41 119.03 24.72 119.11C25.03 119.18 25.35 119.21 25.68 119.2C26.17 119.18 26.67 119.05 27.15 118.79L60.01 101.52C61.04 100.98 62.26 100.98 63.29 101.52L96.15 118.79C96.63 119.04 97.14 119.17 97.62 119.2C97.95 119.22 98.27 119.18 98.58 119.11C98.89 119.04 99.19 118.92 99.46 118.77C100.7 118.09 101.54 116.69 101.26 115.07L95 78.45C94.8 77.31 95.18 76.14 96.01 75.33L122.6 49.42Z" fill="#EE7B1A"/>
</svg>
