<svg width="114" height="50" viewBox="0 0 114 50" fill="none" xmlns="http://www.w3.org/2000/svg">
<path d="M25.2038 20.076H26.1998V25.86H25.2038V20.076ZM25.9238 22.62H27.7958V23.448H25.9238V22.62ZM18.2798 24.672H19.1198C19.8638 24.672 20.5158 24.664 21.0758 24.648C21.6358 24.632 22.1518 24.596 22.6238 24.54C23.0958 24.484 23.5718 24.408 24.0518 24.312L24.1718 25.128C23.6678 25.224 23.1718 25.3 22.6838 25.356C22.2038 25.412 21.6798 25.452 21.1118 25.476C20.5438 25.492 19.8798 25.5 19.1198 25.5H18.2798V24.672ZM18.2798 20.796H23.0438V21.6H19.2638V25.236H18.2798V20.796ZM19.3598 26.448H20.3438V27.78H25.2038V26.448H26.1998V30.756H19.3598V26.448ZM20.3438 28.584V29.94H25.2038V28.584H20.3438ZM29.1748 27.48H29.8588C30.4828 27.48 31.0948 27.464 31.6948 27.432C32.3028 27.392 32.9628 27.312 33.6748 27.192L33.7588 28.008C33.0228 28.136 32.3468 28.22 31.7308 28.26C31.1228 28.292 30.4988 28.308 29.8588 28.308H29.1748V27.48ZM29.1508 21.264H32.8948V25.056H30.1348V27.756H29.1748V24.252H31.9348V22.08H29.1508V21.264ZM37.0708 20.076H38.0188V30.936H37.0708V20.076ZM33.4948 22.908H35.3908V23.724H33.4948V22.908ZM34.9108 20.292H35.8588V30.372H34.9108V20.292ZM33.4948 25.608H35.3908V26.424H33.4948V25.608ZM39.8419 25.116H49.6819V25.884H39.8419V25.116ZM41.0179 26.748H48.4579V29.064H42.0259V30.336H41.0419V28.38H47.4739V27.468H41.0179V26.748ZM41.0419 30.072H48.8059V30.792H41.0419V30.072ZM41.0899 20.4H48.4219V22.656H42.0979V23.832H41.1139V21.984H47.4379V21.108H41.0899V20.4ZM41.1139 23.592H48.6139V24.312H41.1139V23.592ZM61.696 20.076H62.692V26.424H61.696V20.076ZM62.416 22.692H64.288V23.52H62.416V22.692ZM54.712 20.688H55.696V22.344H58.756V20.688H59.74V25.752H54.712V20.688ZM55.696 23.136V24.948H58.756V23.136H55.696ZM55.9 27.024H62.776V27.828H56.896V30.552H55.9V27.024ZM55.9 29.976H62.98V30.78H55.9V29.976ZM68.331 20.712C68.883 20.712 69.371 20.824 69.795 21.048C70.219 21.264 70.551 21.564 70.791 21.948C71.039 22.324 71.163 22.764 71.163 23.268C71.163 23.78 71.039 24.228 70.791 24.612C70.551 24.988 70.219 25.284 69.795 25.5C69.371 25.716 68.883 25.824 68.331 25.824C67.795 25.824 67.311 25.716 66.879 25.5C66.455 25.284 66.119 24.988 65.871 24.612C65.623 24.228 65.499 23.78 65.499 23.268C65.499 22.764 65.623 22.324 65.871 21.948C66.119 21.564 66.455 21.264 66.879 21.048C67.311 20.824 67.795 20.712 68.331 20.712ZM68.331 21.552C67.979 21.552 67.663 21.628 67.383 21.78C67.103 21.924 66.879 22.124 66.711 22.38C66.551 22.636 66.471 22.932 66.471 23.268C66.471 23.612 66.551 23.912 66.711 24.168C66.879 24.424 67.103 24.624 67.383 24.768C67.663 24.912 67.979 24.984 68.331 24.984C68.691 24.984 69.011 24.912 69.291 24.768C69.571 24.624 69.791 24.424 69.951 24.168C70.119 23.912 70.203 23.612 70.203 23.268C70.203 22.932 70.119 22.636 69.951 22.38C69.791 22.124 69.571 21.924 69.291 21.78C69.011 21.628 68.691 21.552 68.331 21.552ZM72.735 20.076H73.731V26.256H72.735V20.076ZM73.455 22.68H75.327V23.496H73.455V22.68ZM67.911 26.748H68.679V27.324C68.679 27.796 68.583 28.264 68.391 28.728C68.199 29.184 67.919 29.592 67.551 29.952C67.191 30.312 66.751 30.596 66.231 30.804L65.739 30.06C66.195 29.884 66.583 29.652 66.903 29.364C67.231 29.068 67.479 28.744 67.647 28.392C67.823 28.032 67.911 27.676 67.911 27.324V26.748ZM68.127 26.748H68.859V27.324C68.859 27.692 68.931 28.06 69.075 28.428C69.219 28.788 69.435 29.12 69.723 29.424C70.011 29.72 70.375 29.96 70.815 30.144L70.383 30.9C69.863 30.692 69.435 30.4 69.099 30.024C68.771 29.648 68.527 29.228 68.367 28.764C68.207 28.292 68.127 27.812 68.127 27.324V26.748ZM71.907 26.748H72.651V27.324C72.651 27.748 72.571 28.196 72.411 28.668C72.251 29.14 72.003 29.576 71.667 29.976C71.331 30.368 70.903 30.676 70.383 30.9L69.963 30.144C70.395 29.944 70.755 29.684 71.043 29.364C71.331 29.044 71.547 28.704 71.691 28.344C71.835 27.976 71.907 27.636 71.907 27.324V26.748ZM72.111 26.748H72.879V27.324C72.879 27.7 72.963 28.068 73.131 28.428C73.307 28.788 73.555 29.112 73.875 29.4C74.203 29.68 74.595 29.9 75.051 30.06L74.559 30.804C74.031 30.604 73.583 30.332 73.215 29.988C72.847 29.636 72.571 29.232 72.387 28.776C72.203 28.312 72.111 27.828 72.111 27.324V26.748ZM79.2381 20.916C79.7661 20.916 80.2341 21.072 80.6421 21.384C81.0501 21.688 81.3661 22.124 81.5901 22.692C81.8221 23.26 81.9381 23.928 81.9381 24.696C81.9381 25.464 81.8221 26.132 81.5901 26.7C81.3661 27.268 81.0501 27.708 80.6421 28.02C80.2341 28.332 79.7661 28.488 79.2381 28.488C78.7181 28.488 78.2501 28.332 77.8341 28.02C77.4261 27.708 77.1061 27.268 76.8741 26.7C76.6501 26.132 76.5381 25.464 76.5381 24.696C76.5381 23.928 76.6501 23.26 76.8741 22.692C77.1061 22.124 77.4261 21.688 77.8341 21.384C78.2501 21.072 78.7181 20.916 79.2381 20.916ZM79.2381 21.804C78.8941 21.804 78.5901 21.924 78.3261 22.164C78.0621 22.396 77.8541 22.732 77.7021 23.172C77.5581 23.604 77.4861 24.112 77.4861 24.696C77.4861 25.28 77.5581 25.792 77.7021 26.232C77.8541 26.664 78.0621 27 78.3261 27.24C78.5901 27.48 78.8941 27.6 79.2381 27.6C79.5901 27.6 79.8981 27.48 80.1621 27.24C80.4261 27 80.6301 26.664 80.7741 26.232C80.9261 25.792 81.0021 25.28 81.0021 24.696C81.0021 24.112 80.9261 23.604 80.7741 23.172C80.6301 22.732 80.4261 22.396 80.1621 22.164C79.8981 21.924 79.5901 21.804 79.2381 21.804ZM84.2901 20.076H85.2741V30.948H84.2901V20.076ZM81.6141 24.216H84.7341V25.02H81.6141V24.216ZM89.7972 25.668H90.7812V28.908H89.7972V25.668ZM93.8052 25.668H94.8012V28.908H93.8052V25.668ZM87.3852 28.716H97.2252V29.544H87.3852V28.716ZM92.2812 20.76C93.0492 20.76 93.7292 20.876 94.3212 21.108C94.9132 21.34 95.3772 21.664 95.7132 22.08C96.0572 22.496 96.2292 22.988 96.2292 23.556C96.2292 24.116 96.0572 24.608 95.7132 25.032C95.3772 25.448 94.9132 25.772 94.3212 26.004C93.7292 26.228 93.0492 26.34 92.2812 26.34C91.5212 26.34 90.8412 26.228 90.2412 26.004C89.6492 25.772 89.1852 25.448 88.8492 25.032C88.5132 24.608 88.3452 24.116 88.3452 23.556C88.3452 22.988 88.5132 22.496 88.8492 22.08C89.1852 21.664 89.6492 21.34 90.2412 21.108C90.8412 20.876 91.5212 20.76 92.2812 20.76ZM92.2812 21.552C91.7052 21.552 91.1932 21.636 90.7452 21.804C90.2972 21.972 89.9452 22.208 89.6892 22.512C89.4332 22.808 89.3052 23.156 89.3052 23.556C89.3052 23.956 89.4332 24.308 89.6892 24.612C89.9452 24.908 90.2972 25.14 90.7452 25.308C91.1932 25.476 91.7052 25.56 92.2812 25.56C92.8652 25.56 93.3812 25.476 93.8292 25.308C94.2772 25.14 94.6292 24.908 94.8852 24.612C95.1412 24.308 95.2692 23.956 95.2692 23.556C95.2692 23.156 95.1412 22.808 94.8852 22.512C94.6292 22.208 94.2772 21.972 93.8292 21.804C93.3812 21.636 92.8652 21.552 92.2812 21.552Z" fill="#EEEEEE"/>
<g clip-path="url(#clip0_215_4593)" filter="url(#filter0_f_215_4593)">
<path d="M26.8516 8.96094C26.5703 8.71875 24.2891 8.23437 24.2891 8.23437C24.2891 8.23437 24.8828 7.4375 24.6875 7.24219C24.4844 7.04687 23.4922 7.4375 23.4922 7.4375C23.4922 7.4375 23.2969 4.85937 23.0938 4.26562C23.0312 4.07812 22.9688 4.00781 22.9062 4C22.8516 4.00781 22.7891 4.07031 22.7188 4.26562C22.5313 4.85937 22.3281 7.4375 22.3281 7.4375C22.3281 7.4375 21.3359 7.04687 21.1406 7.24219C20.9453 7.4375 21.5391 8.23437 21.5391 8.23437C21.5391 8.23437 19.2578 8.72656 18.9766 8.96094C18.9766 8.96094 18.9609 8.96875 18.9609 8.99219C18.9609 9.00781 18.9687 9.02344 18.9687 9.02344C18.9687 9.03125 18.9766 9.03125 18.9766 9.03125C19.2578 9.27344 21.5391 9.75781 21.5391 9.75781C21.5391 9.75781 20.9453 10.5625 21.1406 10.7578C21.3438 10.9531 22.3359 10.5625 22.3359 10.5625C22.3359 10.5625 22.5312 13.1484 22.7344 13.7422C22.7969 13.9297 22.8594 14 22.9141 14.0078C22.9688 14 23.0312 13.9297 23.0938 13.7422C23.2891 13.1406 23.4922 10.5625 23.4922 10.5625C23.4922 10.5625 24.4844 10.9531 24.6797 10.7578C24.875 10.5625 24.2812 9.76562 24.2812 9.76562C24.2812 9.76562 26.5625 9.27344 26.8437 9.03906L26.8516 9.03125C26.8516 9.03125 26.8672 9.01562 26.8594 9C26.8672 8.97656 26.8516 8.96875 26.8516 8.96094Z" fill="#E88439"/>
</g>
<g clip-path="url(#clip1_215_4593)">
<path d="M26.2095 8.96712C25.9751 8.7653 24.0741 8.36165 24.0741 8.36165C24.0741 8.36165 24.5689 7.69759 24.4061 7.53483C24.2368 7.37207 23.41 7.69759 23.41 7.69759C23.41 7.69759 23.2473 5.54915 23.078 5.05436C23.0259 4.89811 22.9738 4.83952 22.9217 4.83301C22.8762 4.83952 22.8241 4.8916 22.7655 5.05436C22.6092 5.54915 22.44 7.69759 22.44 7.69759C22.44 7.69759 21.6131 7.37207 21.4504 7.53483C21.2876 7.69759 21.7824 8.36165 21.7824 8.36165C21.7824 8.36165 19.8814 8.77181 19.647 8.96712C19.647 8.96712 19.634 8.97363 19.634 8.99316C19.634 9.00619 19.6405 9.01921 19.6405 9.01921C19.6405 9.02572 19.647 9.02572 19.647 9.02572C19.8814 9.22754 21.7824 9.63118 21.7824 9.63118C21.7824 9.63118 21.2876 10.3018 21.4504 10.4645C21.6196 10.6273 22.4465 10.3018 22.4465 10.3018C22.4465 10.3018 22.6092 12.4567 22.7785 12.9515C22.8306 13.1077 22.8827 13.1663 22.9282 13.1729C22.9738 13.1663 23.0259 13.1077 23.078 12.9515C23.2407 12.4502 23.41 10.3018 23.41 10.3018C23.41 10.3018 24.2368 10.6273 24.3996 10.4645C24.5624 10.3018 24.0676 9.6377 24.0676 9.6377C24.0676 9.6377 25.9686 9.22754 26.203 9.03223L26.2095 9.02572C26.2095 9.02572 26.2225 9.0127 26.216 8.99967C26.2225 8.98014 26.2095 8.97363 26.2095 8.96712Z" fill="#E88439"/>
</g>
<g clip-path="url(#clip2_215_4593)" filter="url(#filter1_f_215_4593)">
<path d="M96.8516 40.9609C96.5703 40.7187 94.2891 40.2344 94.2891 40.2344C94.2891 40.2344 94.8828 39.4375 94.6875 39.2422C94.4844 39.0469 93.4922 39.4375 93.4922 39.4375C93.4922 39.4375 93.2969 36.8594 93.0938 36.2656C93.0312 36.0781 92.9688 36.0078 92.9062 36C92.8516 36.0078 92.7891 36.0703 92.7188 36.2656C92.5313 36.8594 92.3281 39.4375 92.3281 39.4375C92.3281 39.4375 91.3359 39.0469 91.1406 39.2422C90.9453 39.4375 91.5391 40.2344 91.5391 40.2344C91.5391 40.2344 89.2578 40.7266 88.9766 40.9609C88.9766 40.9609 88.9609 40.9687 88.9609 40.9922C88.9609 41.0078 88.9687 41.0234 88.9687 41.0234C88.9687 41.0312 88.9766 41.0312 88.9766 41.0312C89.2578 41.2734 91.5391 41.7578 91.5391 41.7578C91.5391 41.7578 90.9453 42.5625 91.1406 42.7578C91.3438 42.9531 92.3359 42.5625 92.3359 42.5625C92.3359 42.5625 92.5312 45.1484 92.7344 45.7422C92.7969 45.9297 92.8594 46 92.9141 46.0078C92.9688 46 93.0312 45.9297 93.0938 45.7422C93.2891 45.1406 93.4922 42.5625 93.4922 42.5625C93.4922 42.5625 94.4844 42.9531 94.6797 42.7578C94.875 42.5625 94.2812 41.7656 94.2812 41.7656C94.2812 41.7656 96.5625 41.2734 96.8437 41.0391L96.8516 41.0312C96.8516 41.0312 96.8672 41.0156 96.8594 41C96.8672 40.9766 96.8516 40.9687 96.8516 40.9609Z" fill="#E88439"/>
</g>
<g clip-path="url(#clip3_215_4593)">
<path d="M96.2095 40.9671C95.9751 40.7653 94.0741 40.3617 94.0741 40.3617C94.0741 40.3617 94.5689 39.6976 94.4061 39.5348C94.2368 39.3721 93.41 39.6976 93.41 39.6976C93.41 39.6976 93.2473 37.5492 93.078 37.0544C93.0259 36.8981 92.9738 36.8395 92.9217 36.833C92.8762 36.8395 92.8241 36.8916 92.7655 37.0544C92.6092 37.5492 92.44 39.6976 92.44 39.6976C92.44 39.6976 91.6131 39.3721 91.4504 39.5348C91.2876 39.6976 91.7824 40.3617 91.7824 40.3617C91.7824 40.3617 89.8814 40.7718 89.647 40.9671C89.647 40.9671 89.634 40.9736 89.634 40.9932C89.634 41.0062 89.6405 41.0192 89.6405 41.0192C89.6405 41.0257 89.647 41.0257 89.647 41.0257C89.8814 41.2275 91.7824 41.6312 91.7824 41.6312C91.7824 41.6312 91.2876 42.3018 91.4504 42.4645C91.6196 42.6273 92.4465 42.3018 92.4465 42.3018C92.4465 42.3018 92.6092 44.4567 92.7785 44.9515C92.8306 45.1077 92.8827 45.1663 92.9282 45.1729C92.9738 45.1663 93.0259 45.1077 93.078 44.9515C93.2407 44.4502 93.41 42.3018 93.41 42.3018C93.41 42.3018 94.2368 42.6273 94.3996 42.4645C94.5624 42.3018 94.0676 41.6377 94.0676 41.6377C94.0676 41.6377 95.9686 41.2275 96.203 41.0322L96.2095 41.0257C96.2095 41.0257 96.2225 41.0127 96.216 40.9997C96.2225 40.9801 96.2095 40.9736 96.2095 40.9671Z" fill="#E88439"/>
</g>
<path fill-rule="evenodd" clip-rule="evenodd" d="M0 25.5C0 16.5546 7.11861 9.27176 16 9.00743V10.0079C7.67099 10.2719 1 17.1069 1 25.5C1 34.0604 7.93959 41 16.5 41H86V42H16.5C7.3873 42 0 34.6127 0 25.5ZM100 41.8118C107.926 40.6071 114 33.7628 114 25.5C114 16.3873 106.613 9 97.5 9H30V10H97.5C106.06 10 113 16.9396 113 25.5C113 33.2093 107.372 39.6041 100 40.7994V41.8118Z" fill="#E88439"/>
<defs>
<filter id="filter0_f_215_4593" x="14" y="0" width="18" height="18" filterUnits="userSpaceOnUse" color-interpolation-filters="sRGB">
<feFlood flood-opacity="0" result="BackgroundImageFix"/>
<feBlend mode="normal" in="SourceGraphic" in2="BackgroundImageFix" result="shape"/>
<feGaussianBlur stdDeviation="2" result="effect1_foregroundBlur_215_4593"/>
</filter>
<filter id="filter1_f_215_4593" x="84" y="32" width="18" height="18" filterUnits="userSpaceOnUse" color-interpolation-filters="sRGB">
<feFlood flood-opacity="0" result="BackgroundImageFix"/>
<feBlend mode="normal" in="SourceGraphic" in2="BackgroundImageFix" result="shape"/>
<feGaussianBlur stdDeviation="2" result="effect1_foregroundBlur_215_4593"/>
</filter>
<clipPath id="clip0_215_4593">
<rect width="10" height="10" fill="white" transform="translate(18 4)"/>
</clipPath>
<clipPath id="clip1_215_4593">
<rect width="8.33333" height="8.33333" fill="white" transform="translate(18.8332 4.83301)"/>
</clipPath>
<clipPath id="clip2_215_4593">
<rect width="10" height="10" fill="white" transform="translate(88 36)"/>
</clipPath>
<clipPath id="clip3_215_4593">
<rect width="8.33333" height="8.33333" fill="white" transform="translate(88.8332 36.833)"/>
</clipPath>
</defs>
</svg>