<svg width="128" height="128" viewBox="0 0 128 128" fill="none" xmlns="http://www.w3.org/2000/svg">
<path d="M71.8 0.499997C36.7 -3.8 4.8 21.1 0.499997 56.2C-3.8 91.3 21.1 123.2 56.2 127.5C91.3 131.8 123.2 106.9 127.5 71.8C131.8 36.7 106.9 4.8 71.8 0.499997ZM64 108C39.7 108 20 88.3 20 64C20 39.7 39.7 20 64 20C88.3 20 108 39.7 108 64C108 88.3 88.3 108 64 108Z" fill="#B5B5BD"/>
<g opacity="0.99">
<path d="M36 94.3L58 28H70L92 94.3H80.9L70.2 58.3C69.1 54.7 68.1 51.1 67 47.4C66 43.7 65 40 63.9 36.3H63.5C62.5 40.1 61.5 43.8 60.5 47.5C59.4 51.2 58.4 54.8 57.3 58.4L46.6 94.4H36V94.3ZM48.4 75.5V67.2H79.4V75.5H48.4Z" fill="#B5B5BD"/>
</g>
</svg>