<svg width="21" height="20" viewBox="0 0 21 20" fill="none" xmlns="http://www.w3.org/2000/svg">
<path d="M10.5 0C16.0228 0 20.5 4.47715 20.5 10C20.5 15.5228 16.0228 20 10.5 20C4.97715 20 0.5 15.5228 0.5 10C0.5 4.47715 4.97715 0 10.5 0ZM13.7197 6.96967L9.25 11.4393L7.28033 9.4697C6.98744 9.1768 6.51256 9.1768 6.21967 9.4697C5.92678 9.7626 5.92678 10.2374 6.21967 10.5303L8.7197 13.0303C9.0126 13.3232 9.4874 13.3232 9.7803 13.0303L14.7803 8.0303C15.0732 7.73744 15.0732 7.26256 14.7803 6.96967C14.4874 6.67678 14.0126 6.67678 13.7197 6.96967Z" fill="#E88439"/>
</svg>
