<svg width="21" height="20" viewBox="0 0 21 20" fill="none" xmlns="http://www.w3.org/2000/svg">
<g clip-path="url(#clip0_787_2616)">
<path d="M10.5 0C4.98438 0 0.5 4.48438 0.5 10C0.5 15.5156 4.98438 20 10.5 20C16.0156 20 20.5 15.5156 20.5 10C20.5 4.48438 16.0156 0 10.5 0ZM13.5469 11.9062C13.8594 12.2031 13.8594 12.7031 13.5469 13.0156C13.25 13.3281 12.75 13.3281 12.4375 13.0156L10.5 11.1094L8.57812 13.0156C8.26562 13.3281 7.76562 13.3281 7.46875 13.0156C7.15625 12.7031 7.15625 12.2031 7.46875 11.9062L9.39062 10L7.45312 8.09375C7.14062 7.78125 7.14062 7.28125 7.45312 6.98438C7.75 6.67188 8.25 6.67188 8.5625 6.98438L10.5 8.89062L12.4219 6.98438C12.7344 6.67188 13.2344 6.67188 13.5312 6.98438C13.8438 7.28125 13.8438 7.78125 13.5312 8.09375L11.6094 10L13.5469 11.9062Z" fill="#D30000"/>
</g>
<defs>
<clipPath id="clip0_787_2616">
<rect width="20" height="20" fill="white" transform="translate(0.5)"/>
</clipPath>
</defs>
</svg>
