<svg width="20" height="24" viewBox="0 0 20 24" fill="none" xmlns="http://www.w3.org/2000/svg">
<path d="M9.99935 0.868945C10.4851 1.14182 11.4857 1.79014 12.4746 2.96873H9.99935H7.52218C8.51305 1.79014 9.5136 1.13989 9.99935 0.868945ZM9.99935 0C9.99935 0 7.89183 0.888298 6.17522 3.48352C6.1191 3.56867 6.06298 3.65383 6.00879 3.74285H9.99935H13.9899C13.9357 3.65383 13.8796 3.56867 13.8235 3.48352C12.1069 0.888298 9.99935 0 9.99935 0Z" fill="#EEEEEE"/>
<path d="M13.5537 4.5105C14.6626 6.45353 15.2258 8.80491 15.2258 11.5008C15.2258 11.8685 15.1716 12.9967 14.9277 13.7902C14.6684 14.6263 14.2349 16.8247 14.0259 17.9201H10.0005H5.97509C5.76608 16.8267 5.33258 14.6282 5.07325 13.7922C4.78102 12.8381 4.77521 11.5124 4.77521 11.5008C4.77521 8.80491 5.33838 6.45353 6.4473 4.5105H10.0005H13.5537ZM13.9911 3.73639H10.0005H6.00799C5.93832 3.8467 5.87059 3.95895 5.80285 4.07506C4.79457 5.82263 4.0011 8.23206 4.0011 11.5008C4.0011 11.5008 4.0011 12.9387 4.33397 14.0186C4.66684 15.0965 5.33451 18.6923 5.33451 18.6923H10.0005H14.6665C14.6665 18.6923 15.3322 15.0965 15.667 14.0186C15.9999 12.9387 15.9999 11.5008 15.9999 11.5008C15.9999 8.24368 15.2103 5.84005 14.2059 4.09248C14.1362 3.97056 14.0646 3.85251 13.9911 3.73639Z" fill="#EEEEEE"/>
<path d="M3.55126 12.833L4.50342 18.4725L0.774116 22.1534V16.7926L3.55126 12.833ZM4.00024 10.8436L0 16.5469V24.0035L5.33366 18.7395L4.00024 10.8436Z" fill="#EEEEEE"/>
<path d="M16.4474 12.833L19.2246 16.7907V22.1515L15.4953 18.4705L16.4474 12.833ZM15.9985 10.8436L14.665 18.7395L19.9987 24.0035V16.5469L15.9985 10.8436Z" fill="#EEEEEE"/>
<path d="M12.7726 18.9577V19.3564H7.35383V18.9577H12.7726ZM13.0087 18.1836H7.11966C6.82162 18.1836 6.57971 18.4255 6.57971 18.7235V19.5925C6.57971 19.8905 6.82162 20.1324 7.11966 20.1324H13.0087C13.3068 20.1324 13.5487 19.8905 13.5487 19.5925V18.7235C13.5468 18.4255 13.3068 18.1836 13.0087 18.1836Z" fill="#EEEEEE"/>
<path d="M13.5471 18.6923H6.58008V18.9826H13.5471V18.6923Z" fill="#EEEEEE"/>
<path d="M10.0631 5.4187C8.35234 5.4187 6.96667 6.80437 6.96667 8.51516C6.96667 10.226 8.35234 11.6116 10.0631 11.6116C11.7739 11.6116 13.1596 10.226 13.1596 8.51516C13.1596 6.80437 11.7739 5.4187 10.0631 5.4187ZM10.0631 10.4505C8.99486 10.4505 8.12785 9.58344 8.12785 8.51516C8.12785 7.44688 8.99486 6.57987 10.0631 6.57987C11.1314 6.57987 11.9984 7.44688 11.9984 8.51516C11.9984 9.58344 11.1334 10.4505 10.0631 10.4505Z" fill="#EEEEEE"/>
<path d="M10.0625 12.3837C9.20712 12.3837 8.51428 13.0766 8.51428 13.932C8.51428 14.7874 9.20712 15.4802 10.0625 15.4802C10.9179 15.4802 11.6107 14.7874 11.6107 13.932C11.6107 13.0766 10.9179 12.3837 10.0625 12.3837ZM10.0625 14.7061C9.63481 14.7061 9.2884 14.3597 9.2884 13.932C9.2884 13.5043 9.63481 13.1578 10.0625 13.1578C10.4902 13.1578 10.8366 13.5043 10.8366 13.932C10.8366 14.3597 10.4902 14.7061 10.0625 14.7061Z" fill="#EEEEEE"/>
</svg>
