<svg width="128" height="128" viewBox="0 0 128 128" fill="none" xmlns="http://www.w3.org/2000/svg">
<g clip-path="url(#clip0_165_3467)">
<path d="M120.2 30H7.8C3.5 30 0 26.5 0 22.2V19.8C0 15.5 3.5 12 7.8 12H120.2C124.5 12 128 15.5 128 19.8V22.2C128 26.5 124.5 30 120.2 30Z" fill="#B5B5BD"/>
<path d="M110 128H18L10 34H118L110 128Z" fill="#B5B5BD"/>
<path d="M78 12H48V4.4C48 2 50 0 52.4 0H73.6C76 0 78 2 78 4.4V12Z" fill="#B5B5BD"/>
<path d="M40 112C36.7 112 34 109.3 34 106V58C34 54.7 36.7 52 40 52C43.3 52 46 54.7 46 58V106C46 109.3 43.3 112 40 112Z" fill="#EEEEEE"/>
<path d="M64 112C60.7 112 58 109.3 58 106V58C58 54.7 60.7 52 64 52C67.3 52 70 54.7 70 58V106C70 109.3 67.3 112 64 112Z" fill="#EEEEEE"/>
<path d="M88 112C84.7 112 82 109.3 82 106V58C82 54.7 84.7 52 88 52C91.3 52 94 54.7 94 58V106C94 109.3 91.3 112 88 112Z" fill="#EEEEEE"/>
</g>
<defs>
<clipPath id="clip0_165_3467">
<rect width="128" height="128" fill="white"/>
</clipPath>
</defs>
</svg>
