<?xml version="1.0" encoding="utf-8"?>
<svg width="22" height="22" version="1.1" id="레이어_1" xmlns="http://www.w3.org/2000/svg" xmlns:xlink="http://www.w3.org/1999/xlink" x="0px"
	 y="0px" viewBox="0 0 128 128" style="enable-background:new 0 0 128 128;" xml:space="preserve">
<style type="text/css">
	.st0{fill:none;stroke:#231815;stroke-width:4;stroke-miterlimit:10;}
</style>
<g>
	<g>
		<path d="M112.5,13.81c1.65,0,3,1.35,3,3s-1.35,3-3,3s-3-1.35-3-3S110.85,13.81,112.5,13.81 M112.5,9.81c-3.87,0-7,3.13-7,7
			s3.13,7,7,7s7-3.13,7-7S116.37,9.81,112.5,9.81L112.5,9.81z" fill="#FFFFFF"/>
	</g>
</g>
<g>
	<g>
		<path d="M63.62,4.01c0.07,0,0.15,0,0.22,0l1.38,0.05C66.13,4.21,67,4.6,67.71,5.19l54.38,45.08c0.22,0.18,0.45,0.38,0.69,0.59
			c0.77,0.69,1.22,1.66,1.22,2.67v63.03c0,4.09-3.33,7.42-7.42,7.42H93.7c-4.09,0-7.42-3.33-7.42-7.42V86.84c0-1.3-0.12-2.61-0.38-4
			c-1.21-10.99-10.75-19.9-21.33-19.9c-0.29,0-0.57,0.01-0.86,0.02C51.4,63.51,41.75,73.24,41.75,85.1v0.81l0,0.06
			c-0.02,0.29-0.03,0.58-0.03,0.88v29.73c0,4.09-3.33,7.42-7.42,7.42H11.42C7.33,124,4,120.67,4,116.58V53.56
			c0-1.01,0.44-1.99,1.22-2.68c0.24-0.21,0.47-0.41,0.69-0.59L60.29,5.2C61.22,4.43,62.4,4.01,63.62,4.01 M64.38,0
			C64.26,0,64.13,0,64,0.01v0.01c-0.13-0.01-0.26-0.01-0.38-0.01c-2.09,0-4.18,0.7-5.88,2.11L3.35,47.21
			c-0.25,0.21-0.52,0.44-0.79,0.68C0.94,49.33,0,51.39,0,53.56v63.03C0,122.89,5.11,128,11.42,128H34.3
			c6.31,0,11.42-5.11,11.42-11.42V86.85c0-0.28,0.02-0.55,0.03-0.83V85.1c0-10.17,8.31-17.71,18.15-18.15
			c0.23-0.01,0.46-0.02,0.68-0.02c8.93,0,16.49,7.84,17.37,16.48c0.21,1.12,0.34,2.26,0.34,3.42v29.73
			c0,6.31,5.11,11.42,11.42,11.42h22.88c6.31,0,11.42-5.11,11.42-11.42V53.55c0-2.17-0.94-4.23-2.56-5.67
			c-0.27-0.24-0.54-0.47-0.79-0.68L70.27,2.11C68.56,0.7,66.47,0,64.38,0L64.38,0z" fill="#FFFFFF"/>
	</g>
</g>
<path class="st0" d="M91.19,19.81"/>
</svg>
