<?xml version="1.0" encoding="utf-8"?>
<svg width="22" height="22" version="1.1" id="레이어_1" xmlns="http://www.w3.org/2000/svg" xmlns:xlink="http://www.w3.org/1999/xlink" x="0px"
	 y="0px" viewBox="0 0 128 128" style="enable-background:new 0 0 128 128;" xml:space="preserve">
<g>
	<circle cx="63.7" cy="63.8" r="9.5" fill="white"/>
</g>
<g>
	<path d="M55,118.9l5.3-9.2c1.1,0.1,2.2,0.1,3.4,0.1s2.3-0.1,3.4-0.1l5.3,9.2c3.3,5.7,10.6,7.7,16.3,4.4l14-8.1
		c5.7-3.3,7.7-10.6,4.4-16.3l-5.3-9.2c1.3-1.9,2.4-3.8,3.4-5.9h10.6c6.6,0,11.9-5.3,11.9-11.9V55.8c0-6.6-5.3-11.9-11.9-11.9h-10.6
		c-1-2-2.1-4-3.4-5.9l5.3-9.2c3.3-5.7,1.3-13-4.4-16.3l-14-8.1C83,1.1,75.7,3,72.4,8.8L67.1,18c-1.1-0.1-2.2-0.1-3.4-0.1
		s-2.3,0.1-3.4,0.1L55,8.8C51.7,3,44.4,1.1,38.7,4.4l-14,8.1C19,15.7,17,23,20.3,28.8l5.3,9.2c-1.3,1.9-2.4,3.8-3.4,5.9H11.6
		C5,43.8-0.3,49.2-0.3,55.8v16.1c0,6.6,5.3,11.9,11.9,11.9h10.6c1,2,2.1,4,3.4,5.9l-5.3,9.2c-3.3,5.7-1.3,13,4.4,16.3l14,8.1
		C44.4,126.6,51.7,124.6,55,118.9z M63.7,84.3c-11.3,0-20.4-9.2-20.4-20.4s9.2-20.4,20.4-20.4s20.4,9.2,20.4,20.4S75,84.3,63.7,84.3
		z" fill="white"/>
</g>
</svg>