<svg width="100" height="100" viewBox="0 0 100 100" fill="none" xmlns="http://www.w3.org/2000/svg">
<g clip-path="url(#clip0_829_2318)">
<path d="M95.428 30.1429C95.5709 30.6429 95.7138 31.0714 95.7138 31.5714C95.7138 32 95.6423 32.5 95.4995 32.9286C95.3566 33.3571 95.3566 33.6429 95.7138 34C96.928 35.2857 97.7852 36.7857 98.1423 38.5C98.3566 39.5 98.428 40.5714 97.8566 41.5714C97.7852 41.6429 97.8566 41.9286 97.928 42C98.9995 43.2143 99.6423 44.5714 99.928 46.1429C100.071 47 100.142 47.9286 100.071 48.7857C99.9995 49.8571 99.7138 50.8571 98.7852 51.5714C98.5709 51.7143 98.4995 52.0714 98.428 52.2857C98.3566 53.3571 98.3566 54.5 98.2138 55.5714C97.9995 57.2857 97.7138 59 97.3566 60.7143C96.9995 62.2857 96.5709 63.7857 96.2138 65.3571C96.1423 65.5714 96.0709 65.7857 95.928 65.9286C95.4995 66.7857 95.7138 67.5714 95.8566 68.4286C95.928 69 95.928 69.6429 95.8566 70.2857C95.5709 71.7857 95.0709 73.2143 94.2852 74.5C93.7138 75.3571 93.1423 76.2143 92.4995 77.0714C91.8566 77.9286 90.9995 78.6429 90.1423 79.2143C89.8566 79.4286 89.5709 79.5714 89.3566 79.7857C89.2852 79.8571 89.2138 80 89.2138 80.0714C89.428 81.8571 88.6423 83.2857 87.7138 84.6429C86.6423 86.2143 85.2852 87.4286 83.7852 88.5714C82.2852 89.6429 80.6423 90.5714 78.8566 91.0714C78.2138 91.2857 77.4995 91.3571 76.7852 91.5C76.428 91.5714 76.1423 91.7143 75.9995 92C75.1423 93.5 73.8566 94.5714 72.428 95.4286C71.428 96 70.2852 96.4286 69.1423 96.5714C68.2852 96.7143 67.428 96.7143 66.5709 96.2857C66.3566 96.1429 65.9995 96.2143 65.7138 96.2857C63.8566 96.8571 61.9995 97.5 60.0709 97.7857C58.7852 98 57.5709 98.2143 56.2852 98.4286C55.5709 98.5 54.928 98.5714 54.2138 98.6429C52.4995 98.7143 50.7138 98.7857 48.9995 98.7857C47.7138 98.7857 46.428 98.6429 45.0709 98.5714C44.928 98.5714 44.7138 98.6429 44.5709 98.7857C43.7138 99.5714 42.7138 99.9286 41.5709 100.071C40.428 100.214 39.3566 100.071 38.2852 99.7143C36.4995 99.0714 35.0709 98 34.1423 96.2857C33.9995 96 33.8566 96 33.6423 96.1429C32.4995 96.6429 31.3566 96.6429 30.1423 96.3571C28.5709 96 27.2138 95.2143 26.0709 94.0714C25.2138 93.2857 24.5709 92.3571 24.2852 91.1429C24.2138 90.8571 24.0709 90.7143 23.7852 90.7857C22.9995 91 22.2138 90.8571 21.4995 90.5C19.1423 89.4286 17.6423 87.6429 16.7852 85.2143C16.6423 84.7857 16.428 84.4286 15.9995 84.0714C15.3566 83.5 14.7852 82.7857 14.2138 82.1429C13.7138 81.5 13.1423 80.9286 12.6423 80.2857C12.2852 79.8571 11.9995 79.4286 11.7138 79C11.428 78.6429 11.1423 78.4286 10.7138 78.3571C9.28518 78.0714 8.21375 77.0714 7.35661 75.9286C6.49947 74.7857 5.92804 73.5714 5.64233 72.1429C5.42804 71.0714 5.28518 70.0714 5.5709 69C5.64233 68.7143 5.49947 68.4286 5.21375 68.2857C3.64233 67.2143 2.49947 65.8571 1.92804 64C1.49947 62.5 1.64233 61.0714 2.42804 59.7143C2.5709 59.5 2.85661 59.2143 2.85661 59.0714C2.78518 58.7857 2.49947 58.5714 2.28518 58.3571C1.28518 57.2857 0.713754 56 0.42804 54.5714C0.213754 53.6429 0.0708972 52.6429 0.213754 51.7143C0.356612 49.9286 0.785183 48.1429 1.99947 46.7143C2.0709 46.5714 2.14233 46.4286 2.28518 46.3571C2.5709 46.1429 2.49947 45.9286 2.28518 45.7143C1.5709 44.8571 1.21375 43.7857 1.0709 42.6429C0.713754 41.3571 0.92804 40 1.42804 38.7143C1.78518 37.8571 2.28518 37.1429 2.78518 36.3571C3.28518 35.6429 3.92804 35.1429 4.64233 34.7143C4.85661 34.5714 4.99947 34.2857 5.0709 34.0714C5.71375 32.0714 6.5709 30.1429 7.5709 28.2857C7.64233 28.1429 7.64233 27.7857 7.5709 27.6429C7.21375 26.9286 7.21375 26.2143 7.35661 25.5C7.78518 23.4286 8.99947 21.7143 10.4995 20.3571C11.3566 19.5714 12.2852 19 13.428 18.7143C13.7852 18.6429 13.7852 18.2857 13.7852 18C13.8566 16.7143 14.428 15.7143 15.2138 14.7143C15.7852 14 16.4995 13.3571 17.3566 12.9286C17.928 12.6429 18.5709 12.5 19.2138 12.3571C19.4995 12.2857 19.8566 12.3571 20.1423 12.3571C20.2852 12.3571 20.4995 12.1429 20.5709 12C21.2138 10.7143 21.9995 9.57143 23.0709 8.64286C24.5709 7.28572 26.2138 6.35715 28.2138 6C29.2138 5.78572 30.2138 5.78572 31.2852 6C31.6423 6.07143 32.1423 5.78572 32.5709 5.64286C34.2852 5.07143 36.0709 4.42857 37.8566 3.92857C39.2138 3.5 40.5709 3.21429 41.928 2.92857C42.8566 2.71429 43.7852 2.64286 44.7852 2.57143C45.7138 2.5 46.6423 2.42857 47.5709 2.28572C47.7138 2.28572 47.8566 2.14286 47.928 2.07143C48.428 0.928574 49.428 0.500003 50.5709 0.285717C51.8566 2.61515e-06 53.1423 0.0714312 54.3566 0.500003C55.2852 0.857145 56.1423 1.28572 56.7852 2.14286C56.7852 2.14286 57.0709 2.21429 57.1423 2.14286C58.0709 1.64286 59.0709 1.57143 60.0709 1.71429C60.9995 1.85715 61.8566 2.14286 62.7138 2.57143C63.428 2.92857 63.9995 3.42857 64.4995 4C64.7138 4.21429 64.8566 4.28572 65.1423 4.07143C65.9995 3.35715 66.9995 3.42857 67.9995 3.64286C69.0709 3.85715 70.0709 4.42857 70.7852 5.28572C71.1423 5.71429 71.4995 6.28572 71.7138 6.85715C71.8566 7.14286 71.928 7.28572 72.1423 7.42857C73.8566 8.42857 75.5709 9.35715 77.2138 10.4286C78.428 11.2143 79.5709 12.0714 80.6423 13C81.7852 13.9286 82.8566 14.9286 83.928 16C84.2138 16.2857 84.4995 16.1429 84.7852 16.2143C85.428 16.2857 86.0709 16.5 86.7138 16.7857C87.6423 17.2857 88.4995 18 89.2138 18.7857C90.3566 20.1429 91.2852 21.6429 91.6423 23.3571C91.7852 24 91.7852 24.7143 91.4995 25.2857C91.3566 25.5714 91.5709 25.7143 91.7852 25.7857C93.6423 26.7143 94.7138 28.2143 95.428 30.1429Z" fill="#6A14AD"/>
<path d="M44.1427 27.0714C44.0713 27 43.9999 26.9286 43.9284 26.8571C42.4284 25.7857 40.857 24.6429 39.2856 23.5714C36.9999 22.0714 34.7141 20.5714 32.357 19.1429C30.857 18.2143 29.2856 17.2857 27.7141 16.5C25.357 15.2857 22.9284 14.2143 20.5713 13.0714C19.9999 12.7857 19.4284 12.7857 18.857 13C17.6427 13.3571 16.6427 14 15.7856 15C15.1427 15.7857 14.7142 16.6429 14.4284 17.5714C14.2856 18.2143 14.2856 18.2857 14.9284 18.5714C15.5713 18.8571 16.2856 19.1429 16.9284 19.5C18.857 20.5714 20.857 21.5714 22.7856 22.7143C24.1427 23.5 25.5713 24.3571 26.857 25.2143C29.2141 26.7857 31.4999 28.4286 33.7856 30.1429C35.5713 31.4286 37.2856 32.7857 38.9999 34.2143C40.2856 35.2857 41.4999 36.3571 42.7141 37.4286C43.7856 38.3571 44.857 39.3571 45.857 40.3571C46.7856 41.2143 47.6427 42.0714 48.4999 42.9286C49.357 43.7857 50.1427 44.5714 50.9284 45.4286C51.2856 45.7857 51.5713 46.1429 51.857 46.5C53.0713 47.8571 54.2856 49.1429 55.4999 50.5C56.2856 51.3571 57.0713 52.2143 57.7856 53.1429C58.857 54.5 59.9284 55.8571 60.9284 57.2143C62.0713 58.7143 63.1427 60.2143 64.2141 61.7857C65.357 63.4286 66.4284 65.1429 67.4284 66.8572C68.9999 69.2857 70.357 71.8572 71.5713 74.5C72.2141 75.9286 72.7856 77.3572 73.4284 78.8572C74.2141 80.7857 74.857 82.7857 75.2856 84.8572C75.7141 86.7143 75.9999 88.5714 76.0713 90.5C76.0713 90.7857 76.2141 90.9286 76.4999 90.9286C76.857 90.8572 77.2856 90.8572 77.6427 90.7143C79.4284 90.2857 81.0713 89.5 82.5713 88.5C83.7856 87.6429 84.9284 86.7857 85.9284 85.6429C86.857 84.5714 87.7141 83.4286 88.1427 82.0714C88.357 81.3572 88.6427 80.6429 88.2856 79.8572C87.4999 78.0714 86.7856 76.2857 85.9284 74.5714C84.9284 72.5714 83.857 70.6429 82.7856 68.7857C81.7856 67.0714 80.7141 65.4286 79.6427 63.8572C78.1427 61.7143 76.5713 59.5714 74.9999 57.5C73.7141 55.7857 72.357 54.0714 70.9284 52.4286C69.857 51.0714 68.6427 49.7857 67.4999 48.5C66.7141 47.6429 65.9284 46.7857 65.0713 45.9286C62.9999 43.8572 60.9999 41.8571 58.9284 39.8571C57.357 38.3571 55.7856 36.9286 54.1427 35.4286C53.4284 34.7857 52.7141 34.1429 51.9999 33.5714C50.9999 32.7143 49.9999 31.9286 49.0713 31.1429C48.2141 30.5 47.4284 29.7857 46.5713 29.1429C45.857 28.3571 44.9999 27.7143 44.1427 27.0714Z" fill="#6A14AD"/>
<path d="M18.7135 60.5714C17.8563 61 16.9277 61.5 16.0706 61.9286C14.642 62.7143 13.2134 63.5 11.8563 64.3571C10.2849 65.3571 8.85631 66.5 7.28488 67.5714C6.35631 68.2143 5.92773 69.0714 5.92773 70.2143C5.92773 71.7857 6.35631 73.2143 7.14202 74.5C7.92773 75.8571 8.85631 76.9286 10.3563 77.5714C10.9992 77.8571 11.4277 77.7857 11.7849 77.4286C12.2849 76.8571 12.8563 76.2857 13.4277 75.7857C14.4277 74.9286 15.4992 74 16.5706 73.2857C18.8563 71.7143 21.2135 70.2857 23.7134 69.0714C25.8563 68 27.9992 67 30.2134 66.0714C31.8563 65.3571 33.4992 64.7143 35.142 64.1429C37.142 63.4286 39.2134 62.8571 41.2849 62.2857C42.5706 61.9286 43.9277 61.6429 45.2135 61.3571C45.9992 61.2143 46.8563 61.1429 47.642 61C47.7134 61 47.7849 60.9286 47.8563 60.8571C47.7849 60.7857 47.7849 60.7143 47.7135 60.7143C47.4277 60.4286 47.2134 60.1429 46.9277 59.8571C45.8563 58.7143 44.8563 57.5714 43.7849 56.4286C42.5706 55.2143 41.3563 54 40.142 52.7857C39.9992 52.6429 39.8563 52.5714 39.7134 52.5714C39.0706 52.6429 38.4992 52.7857 37.8563 52.9286C36.3563 53.2857 34.7849 53.6429 33.2849 54.0714C31.5706 54.6429 29.8563 55.2857 28.142 56C26.4277 56.7143 24.7849 57.4286 23.142 58.2143C21.642 59 20.2135 59.7857 18.7135 60.5714Z" fill="#6A14AD"/>
<path d="M41.2849 88.8571C40.7134 89.5 40.2134 90.1429 39.642 90.7857C38.142 92.3571 36.5706 93.8571 34.7849 95C34.4992 95.2143 34.2849 95.5 34.4992 95.8571C34.9992 96.7143 35.5706 97.4286 36.3563 98C37.9277 99.0714 39.5706 99.6429 41.4992 99.3571C42.4277 99.2143 43.2134 98.8571 43.9277 98.2143C44.5706 97.6429 45.2134 97.0714 45.7849 96.5C46.7134 95.5714 47.642 94.7143 48.4992 93.7143C49.3563 92.7857 50.0706 91.7143 50.8563 90.7143C51.8563 89.3571 52.8563 88.0714 53.7849 86.7143C54.8563 85.0714 55.8563 83.3571 56.8563 81.6429C57.642 80.3571 58.2849 79 58.7134 77.5714C58.8563 77.1429 59.0706 76.7143 58.7134 76.2143C57.8563 74.8571 57.142 73.5 56.2134 72.1429C54.9277 70.1429 53.4992 68.2143 52.142 66.2857C52.0706 66.2143 51.9992 66.1429 51.9277 66.1429C51.8563 66.2143 51.7849 66.2857 51.7849 66.4286C51.7134 66.8571 51.7134 67.2857 51.5706 67.7143C51.2849 68.9286 50.9992 70.1429 50.7134 71.3571C50.142 73.2857 49.4992 75.1429 48.642 76.9286C47.7849 78.7143 46.8563 80.5 45.8563 82.2857C45.0706 83.6429 44.2134 84.8571 43.2849 86.1429C42.7134 87.0714 41.9992 87.9286 41.2849 88.8571Z" fill="#6A14AD"/>
<path d="M6.64251 44.5714C5.8568 45 5.07109 45.4286 4.28537 45.8571C3.71394 46.1429 3.07109 46.3571 2.64251 46.7857C1.28537 48.1429 0.785371 49.8571 0.642514 51.6429C0.571086 52.4286 0.713943 53.2857 0.785371 54.1429C0.999657 55.8571 1.78537 57.2857 3.07109 58.4286C3.28537 58.6429 3.57109 58.7143 3.92823 58.4286C5.21394 57.5 6.49966 56.6429 7.8568 55.7857C9.3568 54.8571 10.9282 54 12.4997 53.0714C14.2139 52.0714 15.9282 51.0714 17.6425 50.1429C18.7854 49.5 19.9997 49.0714 21.2139 48.5C22.4997 47.9286 23.7854 47.3571 25.0711 46.7857C26.9997 46 28.9282 45.3571 30.8568 44.6429C30.9282 44.6429 30.9997 44.5714 31.0711 44.5C30.9997 44.4286 30.9282 44.4286 30.8568 44.3571C30.5711 44.1429 30.2854 43.9286 29.9997 43.6429C29.0711 42.8571 28.1425 42.0714 27.1425 41.2857C25.7854 40.2143 24.2854 39.2143 22.9282 38.1429C22.4282 37.7857 21.9997 37.6429 21.4282 37.9286C20.7854 38.2143 20.1425 38.5 19.4282 38.7143C16.9282 39.7143 14.3568 40.6429 11.9282 41.7143C10.1425 42.7143 8.42823 43.7143 6.64251 44.5714Z" fill="#6A14AD"/>
<path d="M18.713 87.5714C18.8559 87.7143 18.9987 87.9286 19.1416 88.0714C19.7844 88.5714 20.4273 89.2143 21.1416 89.5714C22.0702 90.0714 23.1416 90.3572 24.1416 89.5714C24.4273 89.3572 24.713 89.2143 24.9987 89C26.1416 88.0714 27.2844 87.2857 28.3559 86.2857C29.6416 85.0714 30.8559 83.7143 32.0702 82.3572C32.8559 81.4286 33.6416 80.5 34.3559 79.4286C35.4987 77.7143 36.713 76 37.713 74.2143C38.5702 72.7143 39.3559 71.1429 40.1416 69.5714C40.6416 68.5 41.1416 67.3572 41.5702 66.2143C42.0702 65.0714 42.4987 63.8572 42.9273 62.6429C42.9273 62.5714 42.9273 62.5 42.9273 62.4286C42.8559 62.4286 42.7844 62.4286 42.713 62.4286C40.9273 62.9286 39.1416 63.3572 37.3559 63.9286C35.9987 64.3572 34.6416 64.7857 33.3559 65.2857C32.9273 65.4286 32.4987 65.5 32.213 66C31.7844 66.7143 31.3559 67.4286 30.9273 68.1429C29.3559 70.5714 27.713 73 25.8559 75.2143C24.5702 76.7143 23.2844 78.2857 21.9273 79.7857C21.4273 80.3572 20.7844 80.9286 20.213 81.4286C19.4273 82.1429 18.5702 82.7857 17.713 83.5C17.0702 84 16.9273 84.2143 17.0702 84.6429C17.4987 85.7857 17.9987 86.7143 18.713 87.5714Z" fill="#6A14AD"/>
<path d="M68.428 26.5C67.2852 26.6429 66.1423 26.7143 64.9994 26.8571C64.928 26.8571 64.8566 26.9286 64.7852 27C64.8566 27.0714 64.8566 27.1429 64.928 27.2143C65.928 28.1429 66.9994 29 67.9994 30C69.1423 31.0714 70.2137 32.2143 71.3566 33.2857C71.6423 33.5714 71.8566 33.8571 72.1423 34.0714C72.2852 34.2143 72.428 34.2857 72.5709 34.2857C73.5709 34.1429 74.5709 34 75.5709 33.8571C76.7852 33.7143 78.0709 33.5714 79.2852 33.4286C80.1423 33.3571 81.0709 33.2143 81.928 33.1429C83.2137 33.0714 84.4994 32.8571 85.7137 32.8571C88.5709 32.8571 91.428 32.7143 94.2852 33.1429C94.4994 33.2143 94.7137 33.1429 94.7852 32.8571C94.8566 32.4286 95.0709 31.9286 94.9994 31.5714C94.928 30.9286 94.7137 30.2143 94.428 29.6429C93.928 28.5 93.1423 27.5714 92.2137 26.8571C91.7137 26.4286 91.0709 26.2143 90.428 26.1429C89.2852 26.0714 88.0709 26 86.928 26C86.0709 25.9286 85.2137 25.9286 84.3566 25.9286C83.1423 25.9286 81.8566 26 80.6423 26C79.0709 26.0714 77.428 26.1429 75.8566 26.2143C74.928 26.2857 73.9994 26.3571 73.0709 26.3571C71.5709 26.3571 70.0709 26.4286 68.428 26.5Z" fill="#6A14AD"/>
<path d="M81.5 44.4286C82.0714 45.0714 82.5714 45.7857 83.1429 46.4286C83.9286 47.4286 84.6429 48.4286 85.4286 49.4286C85.9286 50.0714 86.4286 50.7143 86.9286 51.3571C87 51.4286 87.1429 51.5714 87.2143 51.5C87.9286 51.4286 88.6429 51.2143 89.3571 51.1429C90.5 51 91.6429 50.8571 92.7857 50.7857C93.3571 50.7143 93.9286 50.7857 94.5 50.7857C95.4286 50.7857 96.3571 50.8571 97.2857 51.1429C97.6429 51.2857 98.0714 51.2143 98.3571 50.9286C98.7857 50.5714 99.0714 50.0714 99.2143 49.5C99.5 48.3571 99.4286 47.2857 99.2143 46.1429C98.9286 44.7857 98.4286 43.6429 97.5714 42.5714C97.3571 42.2857 97 41.9286 96.7143 41.9286C95.7143 41.8571 94.7143 41.8571 93.6429 41.9286C92.5 42 91.3571 42.0714 90.2143 42.2143C89.4286 42.2857 88.7143 42.4286 87.9286 42.6429C86.1429 43.0714 84.3571 43.5 82.5714 44C82.2143 44.0714 81.7857 44 81.5 44.4286Z" fill="#6A14AD"/>
<path d="M51.5003 16.5C52.286 17.0714 53.0003 17.5714 53.786 18.1429C54.0003 18.2857 54.2146 18.2143 54.3574 18C54.4289 17.8571 54.5003 17.7143 54.5717 17.5C54.8574 16.2857 55.1431 15.0714 55.3574 13.7857C55.5717 12.5714 55.786 11.2857 56.0003 10C56.1431 8.92857 56.286 7.78571 56.3574 6.71429C56.4289 5.57143 56.5003 4.42857 56.5003 3.28571C56.5003 3.07143 56.4289 2.78571 56.286 2.57143C55.1431 0.928571 53.4289 0.642857 51.6431 0.5C51.1431 0.5 50.6431 0.642857 50.2146 0.785714C49.0717 1.07143 48.1431 1.71429 48.1431 3.28571C48.1431 3.57143 48.2146 3.85714 48.2146 4.21429C48.2146 6.42857 48.3574 8.71429 47.9289 10.9286C47.786 11.7143 47.7146 12.5 47.5717 13.2857C47.5003 13.6429 47.5717 13.8571 47.786 14C48.1431 14.2857 48.5003 14.5 48.9289 14.7143C49.786 15.3571 50.5717 15.9286 51.5003 16.5Z" fill="#6A14AD"/>
<path d="M75.9274 89.7143C75.8559 89.0714 75.7845 88.5 75.7131 87.8572C75.5702 86.8572 75.4274 85.8572 75.1417 84.8572C74.7131 83.3572 74.2845 81.7857 73.7131 80.2857C73.0702 78.5 72.3559 76.7143 71.4988 75C70.5702 73 69.4988 71.0714 68.4274 69.1429C67.5702 67.6429 66.7131 66.2143 65.7845 64.7857C63.9988 62 62.0702 59.3572 59.9988 56.7857C58.6417 55.0714 57.2131 53.3572 55.8559 51.6429C54.9274 50.5 53.9274 49.4286 52.9274 48.2857C51.8559 47.0714 50.7131 45.9286 49.6417 44.7857C48.3559 43.5 47.0702 42.2857 45.7845 41C45.3559 40.5714 44.9274 40.1429 44.4274 39.7143C43.0702 38.5 41.6417 37.2857 40.2131 36.0714C39.4274 35.4286 38.6417 34.7143 37.8559 34.0714C36.4988 33 35.0702 31.9286 33.6417 30.8572C32.2845 29.8572 30.9274 28.8572 29.4988 27.8572C28.2131 27 26.9274 26.1429 25.6417 25.2857C23.4988 24 21.3559 22.7143 19.2131 21.5C17.9988 20.7857 16.6417 20.2143 15.3559 19.6429C14.7131 19.3572 14.0702 19.3572 13.4988 19.6429C11.8559 20.5 10.4988 21.6429 9.4988 23.2143C8.71309 24.4286 8.14166 25.6429 8.35595 27.1429C8.42738 27.5714 8.4988 28.0714 8.92738 28.3572C9.42738 28.7143 9.9988 29.0714 10.4988 29.3572C12.1417 30.4286 13.8559 31.4286 15.4988 32.5C17.3559 33.7143 19.1417 34.9286 20.9274 36.1429C22.0702 36.9286 23.2845 37.7857 24.4274 38.6429C26.1417 39.9286 27.8559 41.2857 29.5702 42.6429C31.0702 43.7857 32.4988 45 33.9274 46.2143C34.8559 47 35.7845 47.7857 36.6417 48.5714C37.8559 49.6429 39.0702 50.7143 40.2131 51.9286C42.2845 54 44.2845 56.0714 46.2845 58.2143C47.2845 59.2857 48.2131 60.3572 49.1417 61.4286C50.2131 62.7143 51.2845 64 52.2845 65.3572C53.4988 66.9286 54.7131 68.4286 55.7845 70C57.0702 71.9286 58.2845 73.8572 59.4274 75.9286C60.4988 77.8572 61.4988 79.8572 62.4988 81.8572C63.4988 83.9286 64.3559 86.1429 64.9988 88.4286C65.3559 89.5714 65.6417 90.6429 65.9274 91.7857C66.1417 92.8572 66.2845 93.9286 66.4988 95.0714C66.5702 95.6429 66.856 96.0714 67.4274 96.1429C68.2131 96.2143 69.0702 96.3572 69.856 96.1429C71.9988 95.6429 73.8559 94.5 75.2131 92.7143C75.5702 92.2857 75.9274 91.8572 75.9274 91.2143C75.9274 90.7857 75.9274 90.2857 75.9274 89.7143Z" fill="#7F23D8"/>
<path d="M49.0705 15.7857C48.0705 15.1429 47.142 14.5714 46.142 13.9286C44.5705 13 42.9991 12 41.3563 11.1429C38.8563 9.78572 36.2134 8.57143 33.4991 7.57143C31.9277 7 30.3563 6.57143 28.642 7C26.8563 7.35714 25.3563 8.14286 23.9991 9.28572C22.9991 10.1429 22.2848 11.2857 21.4991 12.4286C21.2848 12.7857 21.4277 13.2143 21.7848 13.3571C22.4277 13.6429 23.142 13.8571 23.7848 14.1429C25.2848 14.8571 26.7848 15.5714 28.2848 16.3571C30.142 17.3571 31.9991 18.3571 33.8563 19.4286C35.8563 20.6429 37.7848 21.9286 39.7134 23.2143C41.7134 24.5714 43.642 26 45.5705 27.5C47.3563 28.8571 49.142 30.2857 50.8563 31.6429C51.9991 32.5714 53.2134 33.5714 54.2848 34.5714C55.4277 35.5714 56.4991 36.5714 57.642 37.5714C58.4991 38.3571 59.4277 39.1429 60.2134 40C62.2134 42 64.2134 44.0714 66.2134 46.0714C67.0705 46.9286 67.8563 47.7857 68.642 48.7143C69.3563 49.5 70.0705 50.3571 70.7848 51.1429C71.7848 52.2857 72.7848 53.4286 73.7134 54.6429C74.7134 55.8571 75.7134 57.0714 76.7134 58.3571C77.9277 59.9286 79.0705 61.5 80.142 63.1429C81.4277 65.0714 82.7848 67.0714 83.9277 69.0714C84.9991 70.8571 85.9277 72.7857 86.8563 74.6429C87.2134 75.2857 87.4991 76 87.7848 76.6429C88.142 77.3571 88.4277 78.1429 88.7134 78.8571C88.9277 79.3571 89.2848 79.4286 89.642 79.1429C90.4991 78.4286 91.4991 77.7857 92.142 76.7857C92.7848 75.8571 93.4991 74.9286 94.0705 73.9286C94.7134 72.8571 95.0705 71.7143 95.2848 70.5C95.4277 69.7143 95.4991 68.8571 95.2134 68.1429C94.642 66.6429 93.9991 65.1429 93.3563 63.7143C92.7134 62.2857 91.9277 60.8571 91.142 59.4286C90.3563 58.0714 89.5705 56.6429 88.7134 55.3571C87.3563 53.3571 85.9991 51.4286 84.5705 49.5C83.5705 48.1429 82.5705 46.7857 81.4991 45.5C80.7848 44.6429 80.0705 43.7857 79.3563 43C78.3563 41.8571 77.3563 40.6429 76.2848 39.5C75.4277 38.5714 74.642 37.6429 73.7134 36.7857C71.642 34.7143 69.4991 32.6429 67.3563 30.5714C66.0705 29.3571 64.7848 28.2143 63.4277 27C62.7134 26.3571 62.0705 25.7857 61.3563 25.1429C60.4277 24.3571 59.4991 23.6429 58.5705 22.9286C57.7848 22.2857 56.9991 21.6429 56.142 21C54.8563 20 53.5705 19 52.2134 18.0714C51.4277 17.3571 50.2848 16.5714 49.0705 15.7857Z" fill="#7F23D8"/>
<path d="M47.7849 77.4286C47.9278 77.1429 47.9992 76.9286 48.142 76.6429C49.142 74.5714 49.8563 72.5 50.4278 70.2857C50.7135 69.2143 50.8563 68.1429 51.0706 67.1429C51.142 66.7143 51.2849 66.2857 51.3563 65.8571C51.3563 65.7143 51.3563 65.4286 51.2849 65.3571C50.4278 64.2143 49.4992 63.1429 48.5706 62C48.3563 61.7857 48.142 61.6429 47.7849 61.7143C46.5706 61.9286 45.3563 62.1429 44.142 62.3571C43.9278 62.4286 43.5706 62.6429 43.4992 62.8571C43.142 63.7143 42.9278 64.6429 42.5706 65.5C41.9992 66.9286 41.4278 68.3571 40.8563 69.7143C40.2849 71 39.5706 72.2857 38.8563 73.5714C38.142 74.7857 37.4992 76.0714 36.7135 77.2143C35.7135 78.7143 34.642 80.2143 33.5706 81.6429C32.642 82.8571 31.7135 84 30.642 85.0714C29.8563 85.9286 28.9992 86.7143 28.142 87.5C27.142 88.3571 26.0706 89.1429 25.0706 89.9286C24.8563 90.0714 24.5706 90.2857 24.642 90.6429C24.7135 91 24.7849 91.3571 24.9278 91.7143C25.3563 92.7143 26.0706 93.5 26.9278 94.1429C27.4278 94.5 27.9992 94.9286 28.5706 95.1429C29.2849 95.4286 30.0706 95.7143 30.9278 95.7857C31.642 95.8572 32.2849 95.7857 32.8563 95.5C33.4278 95.2143 33.9278 94.7857 34.4278 94.4286C35.4992 93.5714 36.642 92.7143 37.7135 91.7857C38.642 90.9286 39.4278 90 40.2849 89C40.9278 88.2857 41.5706 87.5714 42.0706 86.7857C42.9992 85.5 43.7849 84.2143 44.642 82.9286C45.9278 81.2143 46.8563 79.3571 47.7849 77.4286Z" fill="#7F23D8"/>
<path d="M23.4284 58.1429C24.9998 57.4286 26.4998 56.7143 28.0713 56.0714C29.5713 55.4286 31.0713 54.8571 32.5713 54.2857C33.9998 53.7857 35.4998 53.4286 36.9284 53.0714C37.7141 52.8571 38.5713 52.7143 39.357 52.5C39.4284 52.5 39.5713 52.5 39.6427 52.4286C39.5713 52.3571 39.5713 52.2143 39.4998 52.1429C38.6427 51.3571 37.7856 50.5714 36.9284 49.7857C36.4284 49.2857 35.857 48.7857 35.2856 48.3571C34.2856 47.5 33.2856 46.6429 32.2856 45.7857C32.1427 45.6429 31.7856 45.5714 31.6427 45.6429C30.7856 45.9286 29.9284 46.2857 29.0713 46.6429C27.4998 47.2857 25.9998 47.8571 24.4284 48.5C22.7856 49.2143 21.2141 49.8571 19.5713 50.6429C17.9284 51.4286 16.2856 52.3571 14.6427 53.2857C13.2141 54.0714 11.7856 54.8571 10.357 55.7143C8.42842 56.8571 6.57128 58.0714 4.71414 59.2857C4.28556 59.5714 3.71414 59.8571 3.42842 60.2857C2.64271 61.2857 2.42842 62.5 2.64271 63.7143C3.14271 65.7143 4.35699 67.1429 5.92842 68.2857C6.14271 68.4286 6.42842 68.4286 6.64271 68.2143C6.85699 67.9286 7.21414 67.7143 7.49985 67.5C8.42842 66.7857 9.35699 66.0714 10.2856 65.4286C11.7856 64.4286 13.2856 63.4286 14.857 62.5C15.5713 62.0714 16.2856 61.7857 16.9998 61.4286C19.1427 60.3571 21.2856 59.2143 23.4284 58.1429Z" fill="#7F23D8"/>
<path d="M68.9275 17.2857C68.856 17.2857 68.7846 17.2857 68.7846 17.2857C67.4989 17.4286 66.1417 17.5 64.856 17.6429C64.356 17.7143 63.856 17.7857 63.356 17.8572C62.5703 18 61.7846 18.0714 60.9989 18.2143C60.2132 18.2857 59.4989 18.3572 58.7132 18.5C57.5703 18.7143 56.4275 18.9286 55.2846 19.1429C55.2132 19.1429 55.1417 19.2143 55.0703 19.2143C55.1417 19.2857 55.1417 19.3572 55.2132 19.4286C55.9989 20 56.7846 20.5714 57.4989 21.1429C58.2846 21.7857 59.0703 22.4286 59.856 23.0714C60.6417 23.7143 61.4275 24.3572 62.2846 25C62.9275 25.5714 63.5703 26.1429 64.2132 26.6429C64.356 26.7857 64.5703 26.8572 64.7132 26.8572C66.0703 26.7143 67.4275 26.5 68.7846 26.3572C70.0703 26.2143 71.356 26.1429 72.5703 26.0714C73.5703 26 74.6417 25.9286 75.6417 25.8572C76.7846 25.7857 77.9275 25.7143 79.0703 25.7143C80.2132 25.6429 81.2846 25.6429 82.4275 25.6429C83.356 25.6429 84.2132 25.7143 85.1417 25.7143C85.9989 25.7143 86.856 25.7857 87.7132 25.7857C88.7846 25.7857 89.9275 25.8572 90.9989 25.8572C91.2846 25.8572 91.4275 25.7143 91.4989 25.5C91.7846 24.7857 91.7132 24.0714 91.4989 23.3572C90.7846 21.1429 89.4989 19.3572 87.6417 18C86.856 17.4286 85.9275 17.0714 84.856 17.2143C83.9275 17.3572 82.9275 17.4286 81.9989 17.3572C80.856 17.2143 79.7132 17.1429 78.5703 17.1429C75.2846 17.2143 72.1417 17.2857 68.9275 17.2857Z" fill="#7F23D8"/>
<path d="M96.4277 35.7857C96.2849 35.5714 96.2134 35.3572 96.0706 35.2143C95.7134 34.8572 95.3563 34.3572 94.9277 34.2143C93.9992 34 93.0706 33.9286 92.142 33.9286C90.7849 33.8572 89.4277 33.9286 88.142 33.9286C87.2134 33.9286 86.2849 34 85.3563 34C84.5706 34.0714 83.7849 34.1429 82.9992 34.1429C82.0706 34.2143 81.142 34.2857 80.2849 34.4286C79.0706 34.5714 77.8563 34.6429 76.7134 34.7857C75.7134 34.9286 74.7134 35 73.7134 35.1429C73.642 35.1429 73.4992 35.2857 73.4277 35.3572L73.4992 35.5C73.9277 35.9286 74.4277 36.4286 74.8563 36.8572C75.8563 37.9286 76.8563 38.9286 77.7849 40C78.0706 40.2857 78.3563 40.6429 78.642 41C79.4992 42 80.2849 42.9286 81.0706 43.9286C81.142 44.0714 81.4277 44.1429 81.5706 44.1429C82.0706 44.0714 82.5706 43.9286 82.9992 43.7857C84.7849 43.2857 86.5706 42.7857 88.3563 42.3572C89.0706 42.2143 89.7849 42.0714 90.4992 42C91.142 41.9286 91.7849 41.8572 92.4992 41.7857C93.2849 41.7143 93.9992 41.6429 94.7849 41.6429C95.4992 41.6429 96.2849 41.7143 96.9992 41.7143C97.5706 41.7143 97.7134 41.5714 97.8563 41C97.9992 40.1429 97.9992 39.3572 97.7134 38.5714C97.3563 37.6429 96.9277 36.7143 96.4277 35.7857Z" fill="#7F23D8"/>
<path d="M3.49933 46.2143C4.57076 45.6429 5.71362 45.0714 6.78504 44.5714C7.71362 44.0714 8.64219 43.5714 9.57076 43.1429C11.285 42.2857 12.9279 41.5 14.6422 40.7143C16.285 40 17.9993 39.3572 19.7136 38.7143C20.3565 38.4286 21.0708 38.2143 21.7136 38C21.785 37.9286 21.9279 37.9286 21.9993 37.8572C21.9279 37.7857 21.8565 37.7143 21.785 37.6429C21.285 37.2857 20.785 37 20.285 36.6429C18.0708 35.1429 15.9279 33.7143 13.7136 32.2143C13.5708 32.1429 13.285 32.1429 13.1422 32.2143C12.1422 32.6429 11.1422 33.0714 10.1422 33.5C9.49933 33.7857 8.9279 34.1429 8.35647 34.4286C7.49933 34.7857 6.57076 35.1429 5.71362 35.5714C4.28504 36.2857 3.35647 37.3572 2.64219 38.7857C2.21362 39.7143 1.9279 40.6429 1.78504 41.7143C1.64219 43.0714 1.85647 44.2143 2.4279 45.4286C2.78504 45.6429 2.9279 46.1429 3.49933 46.2143Z" fill="#7F23D8"/>
<path d="M12.4283 79.1429C12.5711 79.2857 12.6426 79.4286 12.7854 79.6429C13.714 80.7857 14.714 81.9286 15.714 83.0714C15.9283 83.2857 16.214 83.6429 16.4997 83.7143C16.7854 83.7143 17.0711 83.4286 17.3569 83.2143C19.1426 81.9286 20.714 80.5 22.1426 78.8572C23.4283 77.4286 24.6426 75.9286 25.8569 74.4286C26.8569 73.1429 27.8569 71.7857 28.7854 70.5C29.714 69.2143 30.5711 67.8572 31.4997 66.5C31.4997 66.4286 31.4997 66.4286 31.5712 66.3572C31.4997 66.3572 31.4283 66.2857 31.4283 66.3572C31.2854 66.3572 31.214 66.4286 31.1426 66.4286C29.5711 67.1429 27.9997 67.7857 26.4997 68.5C24.4283 69.5714 22.2854 70.6429 20.2854 71.8572C18.7854 72.7857 17.3569 73.8572 15.8569 74.8572C14.4283 75.8572 13.214 77 12.0711 78.2857C11.9997 78.3572 11.9997 78.5 12.0711 78.5C12.0711 78.6429 12.214 78.8572 12.4283 79.1429Z" fill="#7F23D8"/>
<path d="M56.0703 13.5714C55.9989 13.8572 55.9275 14.1429 55.856 14.4286C55.5703 15.5 55.356 16.5714 55.0703 17.6429C55.0703 17.7143 55.0703 17.8572 55.0703 17.9286C55.0703 17.9286 55.2132 18 55.2846 17.9286C56.2846 17.7143 57.2846 17.5 58.2846 17.3572C59.2132 17.2143 60.2132 17.1429 61.1417 17C61.4989 16.9286 61.7846 16.7857 61.9275 16.3572C62.356 15.0714 62.856 13.7857 63.2132 12.5C63.7132 10.3572 63.9989 8.21429 64.356 6.07144C64.4275 5.71429 64.356 5.35715 64.2846 5.00001C63.9275 3.85715 62.9989 3.28572 61.9989 2.78572C61.356 2.50001 60.6417 2.35715 59.9989 2.21429C59.0703 2.00001 58.1417 2.14287 57.2846 2.57144C57.0703 2.71429 56.9275 2.85715 56.9275 3.14287C56.9275 3.78572 56.856 4.42858 56.856 5.07144C56.7846 6.42858 56.7132 7.78572 56.5703 9.14287C56.4989 9.64287 56.4989 10.1429 56.356 10.6429C56.356 11.7143 56.2132 12.6429 56.0703 13.5714Z" fill="#7F23D8"/>
<path d="M64.5712 9.85715L64.4997 9.92858C64.2854 11.4286 63.9283 12.8571 63.4283 14.2857C63.1426 15.0714 62.8569 15.8571 62.6426 16.6429C62.6426 16.7143 62.6426 16.7857 62.6426 16.8571C62.714 16.8571 62.714 16.8571 62.7854 16.8571C63.6426 16.7143 64.4283 16.5714 65.2854 16.5C66.3569 16.3571 67.4997 16.2857 68.5712 16.2143C69.214 16.2143 69.4283 15.9286 69.5712 15.4286C69.9283 14.2143 70.4283 13 70.714 11.7857C70.9997 10.3571 71.4283 8.92858 71.2854 7.42858C71.214 6.71429 70.9997 6.14286 70.4997 5.64286C69.4283 4.57144 68.1426 4.00001 66.5711 4.14286C65.9283 4.21429 65.2854 4.64286 65.214 5.28572C65.0712 5.71429 65.0712 6.14286 64.9997 6.57143C64.9283 6.92858 64.8569 7.28572 64.8569 7.64286C64.714 8.28572 64.6426 9.07143 64.5712 9.85715Z" fill="#6A14AD"/>
<path d="M56.5711 83.4286C55.5711 84.9286 54.6426 86.5 53.5711 88C52.714 89.2857 51.7854 90.5714 50.8569 91.7857C49.9997 92.8571 49.0711 93.8571 48.214 94.9286C47.3569 95.9286 46.4283 96.9286 45.2854 97.6429C45.214 97.7143 45.214 97.7143 45.1426 97.7857C45.214 97.8571 45.2854 97.8571 45.3569 97.8571C46.4283 97.9286 47.4997 98.0714 48.5711 98C50.4283 98 52.214 97.9286 54.0711 97.8571C54.7854 97.8571 55.4283 97.7857 56.1426 97.6429C57.4997 97.4286 58.7854 97.2143 60.1426 96.9286C61.7854 96.5714 63.4283 96.0714 65.1426 95.6429C65.5711 95.5714 65.5712 95.2857 65.5712 95C65.4997 94.7143 65.4283 94.3571 65.4283 94.0714C65.214 92.9286 65.0711 91.7857 64.7854 90.7143C64.3569 89.2143 63.9283 87.6429 63.3569 86.1429C62.7854 84.6429 62.214 83.1429 61.5711 81.6429C60.9997 80.3571 60.3569 79.0714 59.714 77.7857C59.714 77.7143 59.5712 77.6429 59.4997 77.6429C59.4283 77.7143 59.4283 77.7857 59.3569 77.8571C59.0711 78.5714 58.7854 79.2857 58.4997 80C57.8569 81.0714 57.214 82.2143 56.5711 83.4286Z" fill="#57208C"/>
<path d="M40.7137 9.92858C40.9994 10.0714 41.2852 10.2143 41.5709 10.3571C42.4994 10.8571 43.428 11.4286 44.3566 11.9286C45.1423 12.3571 45.8566 12.8571 46.5709 13.2857C46.7852 13.4286 46.928 13.5 46.9994 13.1429C47.2137 11.7857 47.428 10.4286 47.5709 9.00001C47.6423 8.14286 47.6423 7.21429 47.6423 6.35715C47.6423 5.35715 47.5709 4.42858 47.5709 3.42858C47.5709 3.00001 47.3566 2.78572 46.928 2.85715C46.1423 2.92858 45.2852 3.00001 44.4994 3.14286C43.5709 3.28572 42.6423 3.35715 41.7852 3.50001C40.2852 3.78572 38.8566 4.14286 37.428 4.57143C35.7852 5.07143 34.0709 5.64286 32.428 6.14286C32.3566 6.14286 32.3566 6.21429 32.2852 6.28572C32.3566 6.35715 32.428 6.42858 32.428 6.42858C32.6423 6.50001 32.928 6.50001 33.1423 6.57143C34.4994 7.14286 35.8566 7.64286 37.2137 8.21429C38.428 8.71429 39.5709 9.28572 40.7137 9.92858Z" fill="#57208C"/>
<path d="M97.2847 57.0714C97.3562 56.2857 97.499 55.5 97.5705 54.7143C97.6419 53.9286 97.7133 53.2143 97.7133 52.4286C97.7133 52.2857 97.5704 52 97.4276 52C96.6419 51.7857 95.8562 51.6429 94.999 51.5714C93.8562 51.5 92.7847 51.5714 91.6419 51.5714C91.2133 51.5714 90.7847 51.5714 90.3562 51.6429C89.4276 51.7857 88.499 51.9286 87.5704 52.0714C87.2133 52.1429 87.2847 52.2857 87.4276 52.4286C88.1419 53.5 88.8562 54.5714 89.499 55.6429C90.4276 57.2143 91.4276 58.7857 92.2847 60.4286C93.2847 62.2857 94.2133 64.1429 94.8562 66.1429C94.8562 66.2143 94.9276 66.2857 94.999 66.2857C95.0704 66.2143 95.1419 66.2143 95.1419 66.1429C95.2133 65.9286 95.2133 65.7143 95.2847 65.5C95.5704 64.5714 95.9276 63.7143 96.1419 62.7857C96.5705 60.8572 96.9276 59 97.2847 57.0714Z" fill="#57208C"/>
<path d="M70.1434 15.4286C70.0719 15.5714 70.0005 15.7143 70.0005 15.8571C70.0005 15.9286 69.9291 16.0714 70.0005 16.1429C70.0719 16.2143 70.2148 16.2143 70.2862 16.2143C70.5005 16.2143 70.7148 16.1429 70.9291 16.1429C74.0719 16.2143 77.2862 16 80.4291 16.2857C81.3576 16.3571 82.2148 16.4286 83.1434 16.4286C83.2862 16.4286 83.5005 16.3571 83.6434 16.3571C83.5005 16.2143 83.4291 16.1429 83.2862 16C83.2148 15.9286 83.1434 15.8571 83.0005 15.7143C82.3576 15.1429 81.7148 14.5 81.0719 13.9286C79.5719 12.7857 78.0719 11.5714 76.5719 10.5714C75.1434 9.64286 73.6434 8.85715 72.2148 7.92858C71.9291 7.78572 71.8576 7.85715 71.7862 8.14286C71.5719 9.42858 71.4291 10.7143 71.1434 11.9286C70.8576 13.1429 70.5005 14.2143 70.1434 15.4286Z" fill="#57208C"/>
<path d="M8.35686 28.7857C8.07115 28.5714 7.99972 28.8571 7.92829 29C7.42829 30 6.99972 30.9286 6.49972 31.9286C6.21401 32.6429 5.92829 33.3571 5.64258 34.1429C5.64258 34.2143 5.64258 34.3571 5.64258 34.4286C5.71401 34.3571 5.78544 34.3571 5.92829 34.2857C6.07115 34.2143 6.14258 34.0714 6.28544 34C6.78544 33.7857 7.28544 33.5714 7.71401 33.2857C8.85686 32.7143 9.92829 32.2143 11.0711 31.6429C11.4283 31.5 11.7854 31.4286 12.1426 31.2857C12.214 31.2857 12.214 31.2143 12.2854 31.2143C12.214 31.1429 12.214 31.0714 12.1426 31.0714C10.9997 30.2857 9.71401 29.5714 8.35686 28.7857Z" fill="#57208C"/>
<path opacity="0.2" d="M58.9286 77.7143C78.4952 77.7143 94.3571 61.8524 94.3571 42.2857C94.3571 22.7191 78.4952 6.85715 58.9286 6.85715C39.3619 6.85715 23.5 22.7191 23.5 42.2857C23.5 61.8524 39.3619 77.7143 58.9286 77.7143Z" fill="#7A48AA"/>
<path opacity="0.05" d="M68.5711 54.4286C80.9581 54.4286 90.9997 44.387 90.9997 32C90.9997 19.613 80.9581 9.57143 68.5711 9.57143C56.1842 9.57143 46.1426 19.613 46.1426 32C46.1426 44.387 56.1842 54.4286 68.5711 54.4286Z" fill="#E2D2F9"/>
</g>
<defs>
<clipPath id="clip0_829_2318">
<rect width="100" height="100" fill="white"/>
</clipPath>
</defs>
</svg>
