<svg width="100" height="100" viewBox="0 0 100 100" fill="none" xmlns="http://www.w3.org/2000/svg">
<path d="M47.5514 51.0901C47.1394 49.7421 46.7954 48.3621 46.5234 46.9541L47.5514 51.0901Z" fill="#FED56B"/>
<path d="M45.5605 46.8501C45.5605 46.8501 46.0405 50.0261 46.3725 51.0061C46.5805 51.6221 47.7125 50.5941 48.5205 49.7501C48.4005 49.2701 48.3765 48.7861 48.3725 48.3061L45.5605 46.8501Z" fill="#FED56B"/>
<path d="M48.7189 50.3472C48.9469 50.1232 49.0229 49.9192 48.8229 49.7712C47.9989 49.1512 45.1309 47.6992 45.1309 47.6992L45.2029 48.1472C46.3029 49.0432 47.8789 49.2112 48.7189 50.3472Z" fill="#FED56B"/>
<path d="M45.2793 47.8403L45.5073 49.2603C46.4353 49.8483 47.5833 49.9883 48.6033 50.2043C48.6753 50.1483 48.7393 50.0923 48.7953 50.0363C47.9513 48.9043 46.3753 48.7363 45.2793 47.8403Z" fill="#FED56B"/>
<path d="M0.9 59.5C0.308 56.424 0 53.248 0 50C0 22.384 22.384 0 50 0C77.616 0 100 22.384 100 50C100 77.616 77.616 100 50 100C27.492 100 8.456 85.124 2.188 64.668" fill="#FED56B"/>
<path opacity="0.5" d="M17.7467 11.7871C17.7467 11.7871 29.7667 1.73106 43.2547 0.451061C56.7427 -0.828939 58.2667 8.96706 53.3027 13.2951C48.3427 17.6191 39.6907 27.4191 49.1027 32.3791C58.5147 37.3391 74.9307 46.5031 73.1467 54.2631C71.3667 62.0231 50.2467 70.8031 38.5427 58.8431C26.8387 46.8831 19.0787 70.9311 27.9827 79.1991C36.8867 87.4671 24.6107 93.0871 24.6107 93.0871C24.6107 93.0871 -6.75325 71.5671 8.13475 50.8311C23.0227 30.0951 2.35475 30.0311 8.00675 22.8431C13.6587 15.6551 17.7467 11.7871 17.7467 11.7871Z" fill="#E88439"/>
<path opacity="0.3" d="M97.8111 51.9401C97.8111 51.9401 92.5951 64.5681 79.2351 63.1681C65.8751 61.7681 53.8231 79.5441 58.7511 88.4881C63.6791 97.4321 81.2311 87.1881 81.2311 87.1881C81.2311 87.1881 96.5391 74.6841 97.8111 51.9401Z" fill="#E88439"/>
<path opacity="0.3" d="M56.5668 83.0071C78.7598 83.0071 96.7508 65.0161 96.7508 42.8231C96.7508 20.6301 78.7598 2.63909 56.5668 2.63909C34.3738 2.63909 16.3828 20.6301 16.3828 42.8231C16.3828 65.0161 34.3738 83.0071 56.5668 83.0071Z" fill="#FFE45E"/>
<path opacity="0.3" d="M65.5994 57.3154C79.539 57.3154 90.8394 46.0151 90.8394 32.0754C90.8394 18.1357 79.539 6.8354 65.5994 6.8354C51.6597 6.8354 40.3594 18.1357 40.3594 32.0754C40.3594 46.0151 51.6597 57.3154 65.5994 57.3154Z" fill="#FFEF92"/>
</svg>
