<svg width="100" height="100" viewBox="0 0 100 100" fill="none" xmlns="http://www.w3.org/2000/svg">
<g clip-path="url(#clip0_829_2294)">
<path opacity="0.05" d="M50 99.7143C77.6142 99.7143 100 77.3925 100 49.8571C100 22.3218 77.6142 0 50 0C22.3858 0 0 22.3218 0 49.8571C0 77.3925 22.3858 99.7143 50 99.7143Z" fill="#B25603"/>
<path d="M50 100C77.6142 100 100 77.6142 100 50C100 22.3858 77.6142 0 50 0C22.3858 0 0 22.3858 0 50C0 77.6142 22.3858 100 50 100Z" fill="#CB730F"/>
<path opacity="0.3" d="M53.8577 89.9286C77.4087 89.9286 96.5006 70.2931 96.5006 46.0714C96.5006 21.8498 77.4087 2.21429 53.8577 2.21429C30.3067 2.21429 11.2148 21.8498 11.2148 46.0714C11.2148 70.2931 30.3067 89.9286 53.8577 89.9286Z" fill="#DD8D4B"/>
<path opacity="0.25" d="M56.7866 72.3571C74.3019 72.3571 88.5008 57.7424 88.5008 39.7143C88.5008 21.6861 74.3019 7.07143 56.7866 7.07143C39.2712 7.07143 25.0723 21.6861 25.0723 39.7143C25.0723 57.7424 39.2712 72.3571 56.7866 72.3571Z" fill="#E8A572"/>
<path d="M95.2149 30.5C88.3577 12.3571 69.4292 0 49.2149 0C29.2863 0 12.072 12.2143 4.21488 29.8571C3.71488 30.8571 3.21488 31.8571 2.71488 33C0.714881 37.5 -0.213691 42.1429 0.643452 46.5714C4.71488 67.4286 27.072 55.1429 27.072 55.1429C27.072 55.1429 41.072 48.1429 45.572 62.7143C50.1435 77.2857 60.7149 77.9286 64.3577 71.2857C69.572 59.6429 71.3577 55.1429 74.7149 54.2857C80.5006 53.0714 89.6434 61 97.2863 53.2857C101.286 49.2857 99.0006 40.1429 95.2149 30.5Z" fill="#7A2F11"/>
<path d="M95.786 29.0714C87.786 11.7857 70.5717 -0.285708 49.5003 6.56862e-06C29.5003 6.56862e-06 12.2146 11.6429 4.35743 28.5C3.85743 29.4286 3.35743 30.4286 2.85743 31.5C0.786002 35.8571 -0.142569 40.2857 0.714574 44.5C4.85743 64.4286 27.2146 52.6429 27.2146 52.6429C27.2146 52.6429 41.2146 46 45.786 59.9286C50.3574 73.8571 61.0003 74.4286 64.6432 68.1429C69.8574 57.0714 71.6432 52.7143 75.0003 51.9286C80.786 50.7857 89.9289 58.3571 97.6432 50.9286C101.786 47 98.7146 35.3571 95.786 29.0714Z" fill="#893D18"/>
<path opacity="0.1" d="M88.9091 41.0706C95.2393 30.286 88.76 14.7282 74.4373 6.3212C60.1146 -2.08577 43.3721 -0.158333 37.0419 10.6262C30.7117 21.4108 37.1909 36.9686 51.5137 45.3756C65.8364 53.7826 82.5789 51.8551 88.9091 41.0706Z" fill="#C67844"/>
<path opacity="0.1" d="M87.356 33.0882C91.8738 25.3566 86.2311 13.6517 74.7529 6.94478C63.2746 0.237815 50.3072 1.0685 45.7895 8.80016C41.2717 16.5318 46.9144 28.2366 58.3926 34.9436C69.8709 41.6506 82.8383 40.8199 87.356 33.0882Z" fill="#B76F3D"/>
<path d="M92.6431 38.5C89.4288 36.6429 85.5716 37.3571 83.9288 40.0714C82.2859 42.7857 83.6431 46.5714 86.8573 48.3571C90.0716 50.2143 93.9288 49.5 95.5716 46.7857C97.2145 44.0714 95.8573 40.3571 92.6431 38.5ZM88.0002 46.5714C86.0002 45.4286 85.1431 43.0714 86.1431 41.3571C87.1431 39.6429 89.5716 39.2143 91.5716 40.3571C93.5716 41.5 94.4288 43.8571 93.4288 45.5714C92.4288 47.2857 90.0002 47.7143 88.0002 46.5714Z" fill="url(#paint0_linear_829_2294)"/>
<path d="M72.0708 13.4286C68.8565 11.5714 64.9994 12.2857 63.3565 15C61.7137 17.7143 63.0708 21.5 66.2851 23.2857C69.4994 25.1429 73.3565 24.4286 74.9994 21.7143C76.6422 19 75.2137 15.2857 72.0708 13.4286ZM67.3565 21.5C65.3565 20.3571 64.4994 18 65.4994 16.2857C66.4994 14.5714 68.9279 14.1429 70.9279 15.2857C72.9279 16.4286 73.7851 18.7857 72.7851 20.5C71.7851 22.2143 69.3565 22.6429 67.3565 21.5Z" fill="url(#paint1_linear_829_2294)"/>
<path d="M28.1431 19.4286C24.9288 17.5714 21.0716 18.2857 19.4288 21C17.7859 23.7143 19.1431 27.5 22.3573 29.2857C25.5716 31.1429 29.4288 30.4286 31.0716 27.7143C32.7145 25 31.3573 21.2857 28.1431 19.4286ZM23.5002 27.5C21.5002 26.3571 20.6431 24 21.6431 22.2857C22.6431 20.5714 25.0716 20.1429 27.0716 21.2857C29.0716 22.4286 29.9288 24.7857 28.9288 26.5C27.9288 28.2143 25.5002 28.6429 23.5002 27.5Z" fill="url(#paint2_linear_829_2294)"/>
<path d="M69.6431 34.2857C66.4288 32.4286 62.5716 33.1429 60.9288 35.8572C59.2859 38.5714 60.6431 42.3572 63.8573 44.1429C67.0716 45.9286 70.9288 45.2857 72.5716 42.5714C74.2145 39.8572 72.8573 36.1429 69.6431 34.2857ZM64.9288 42.3572C62.9288 41.2143 62.0716 38.8572 63.0716 37.1429C64.0716 35.4286 66.5002 35 68.5002 36.1429C70.5002 37.2857 71.3573 39.6429 70.3573 41.3572C69.4288 43.0714 66.9288 43.5 64.9288 42.3572Z" fill="url(#paint3_linear_829_2294)"/>
<path d="M47.2856 7.42857C44.0714 5.57143 40.2142 6.28572 38.5714 9C36.9285 11.7143 38.2856 15.5 41.4999 17.2857C44.7142 19.0714 48.5714 18.4286 50.2142 15.7143C51.8571 13 50.4999 9.28572 47.2856 7.42857ZM42.6428 15.5C40.6428 14.3571 39.7856 12 40.7856 10.2857C41.7856 8.57143 44.2142 8.14286 46.2142 9.28572C48.2142 10.4286 49.0714 12.7857 48.0714 14.5C47.0714 16.2143 44.6428 16.7143 42.6428 15.5Z" fill="url(#paint4_linear_829_2294)"/>
<path d="M83.3567 24.4286C82.571 24.6429 81.7138 24.1429 81.4995 23.3571L80.2138 18.6429C79.9995 17.8571 80.4995 17 81.2853 16.7857C82.071 16.5714 82.9281 17.0714 83.1424 17.8571L84.4281 22.5714C84.571 23.4286 84.1424 24.2143 83.3567 24.4286Z" fill="#78A022"/>
<path d="M54.0004 28C53.0718 27.5714 52.7147 26.5714 53.0718 25.6429L55.4289 20.3571C55.8575 19.4286 56.8575 19.0714 57.7861 19.4286C58.7147 19.8571 59.0718 20.8571 58.7146 21.7857L56.3575 27.0714C55.9289 28 54.8575 28.4286 54.0004 28Z" fill="#78A022"/>
<path d="M25.4999 12.9286C24.9999 12.0714 25.2857 11 26.1428 10.5L31.1428 7.57143C31.9999 7.07143 33.0714 7.35714 33.5714 8.21428C34.0714 9.07143 33.7857 10.1429 32.9285 10.6429L27.9285 13.5714C27.0714 14.0714 25.9999 13.7857 25.4999 12.9286Z" fill="#78A022"/>
<path d="M7.92767 29.3571C7.42767 28.5 7.71339 27.4286 8.57053 26.9286L13.5705 24C14.4277 23.5 15.4991 23.7857 15.9991 24.6429C16.4991 25.5 16.2134 26.5714 15.3562 27.0714L10.3562 30C9.4991 30.5 8.42767 30.2143 7.92767 29.3571Z" fill="#78A022"/>
<path d="M40.9994 31C40.1423 31 39.4994 30.3571 39.428 29.5714L39.2852 24.6429C39.2852 23.7857 39.928 23.1429 40.7137 23.0714C41.5709 23.0714 42.2137 23.7143 42.2852 24.5L42.4994 29.3571C42.4994 30.2143 41.8566 30.9286 40.9994 31Z" fill="#78A022"/>
<path d="M61.6429 11.7143C61 12.2143 60.0714 12.1429 59.5 11.5L56.5 7.78571C56 7.14285 56.0714 6.21428 56.7143 5.64285C57.3571 5.14285 58.2857 5.21428 58.8571 5.85714L61.8571 9.57142C62.3571 10.2143 62.2857 11.1429 61.6429 11.7143Z" fill="#78A022"/>
<path d="M46.3578 42.8571C45.4292 42.5 45.0006 41.4286 45.3578 40.5714L47.4292 35.2143C47.7863 34.2857 48.8578 33.8572 49.7149 34.2143C50.6435 34.5714 51.072 35.6429 50.7149 36.5L48.6435 41.8571C48.2863 42.7857 47.2863 43.2143 46.3578 42.8571Z" fill="#78A022"/>
<path d="M79.5724 35.9286C78.6438 36.2143 77.6438 35.7143 77.3581 34.7857L75.5724 29.2857C75.2867 28.3571 75.7867 27.3571 76.7153 27.0714C77.6438 26.7857 78.6438 27.2857 78.9295 28.2143L80.7153 33.7143C81.001 34.6429 80.501 35.6429 79.5724 35.9286Z" fill="#78A022"/>
</g>
<defs>
<linearGradient id="paint0_linear_829_2294" x1="83.2898" y1="43.4314" x2="96.2578" y2="43.4314" gradientUnits="userSpaceOnUse">
<stop stop-color="#5C771B"/>
<stop offset="1" stop-color="#007034"/>
</linearGradient>
<linearGradient id="paint1_linear_829_2294" x1="62.6865" y1="18.3612" x2="75.6545" y2="18.3612" gradientUnits="userSpaceOnUse">
<stop stop-color="#5C771B"/>
<stop offset="1" stop-color="#007034"/>
</linearGradient>
<linearGradient id="paint2_linear_829_2294" x1="18.7778" y1="24.3609" x2="31.7457" y2="24.3609" gradientUnits="userSpaceOnUse">
<stop stop-color="#5C771B"/>
<stop offset="1" stop-color="#007034"/>
</linearGradient>
<linearGradient id="paint3_linear_829_2294" x1="60.2635" y1="39.2017" x2="73.2315" y2="39.2017" gradientUnits="userSpaceOnUse">
<stop stop-color="#5C771B"/>
<stop offset="1" stop-color="#007034"/>
</linearGradient>
<linearGradient id="paint4_linear_829_2294" x1="37.9257" y1="12.3458" x2="50.8936" y2="12.3458" gradientUnits="userSpaceOnUse">
<stop stop-color="#5C771B"/>
<stop offset="1" stop-color="#007034"/>
</linearGradient>
<clipPath id="clip0_829_2294">
<rect width="100" height="100" fill="white"/>
</clipPath>
</defs>
</svg>
