<svg width="108" height="128" viewBox="0 0 108 128" fill="none" xmlns="http://www.w3.org/2000/svg">
<path d="M66.4 109.4H41.6V119.7H66.4V109.4Z" fill="#E88439"/>
<path d="M80.3168 78.4957L70.4881 88.3243L91.6304 109.467L101.459 99.6379L80.3168 78.4957Z" fill="#E88439"/>
<path d="M15.4 119.7H5.89996V128H15.4V119.7Z" fill="#E88439"/>
<path d="M97.9 88.1H88.4V92.9H97.9V88.1Z" fill="#EEEDEA"/>
<path d="M27.7016 78.4245L6.55933 99.5668L16.388 109.395L37.5303 88.2532L27.7016 78.4245Z" fill="#E88439"/>
<path d="M54.1 0C54.1 0 44.2 4.1 36.5 18.6C48.3 18.6 59.8 18.6 71.4 18.6C67.5 11.3 61.9 4.6 54.1 0Z" fill="#E88439"/>
<path d="M72 20C60.1 22.5 47.3 19.7 35.4 20.7C47.3 19.7 60.1 22.4 72 20C71.8 19.5 71.5 19.1 71.3 18.6C59.7 18.6 48.2 18.6 36.4 18.6C31.4 28 27.2 41.6 27.2 61.3V111.5H80.8V61.3C80.8 61.3 81.7 39 72 20Z" fill="white"/>
<path d="M10.6 70.2C10.6 70.2 4.9 73.2 2 84.7C7.9 84.7 13.2 84.7 19.1 84.7C17.7 79.2 15.2 73.5 10.6 70.2Z" fill="#E88439"/>
<path d="M19.1 84.6C13.2 84.6 7.89999 84.6 1.99999 84.6C0.999988 88.3 0.299988 93 0.299988 98.9V121.7H20.9V99C20.9 99 21.2 92 19.1 84.6Z" fill="white"/>
<path d="M92.6413 128.042L102.141 128.042L102.141 119.742L92.6413 119.742L92.6413 128.042Z" fill="#E88439"/>
<path d="M97.4 70.2C97.4 70.2 103.1 73.2 106 84.7C100.1 84.7 94.8 84.7 88.9 84.7C90.3 79.2 92.8 73.5 97.4 70.2Z" fill="#E88439"/>
<path d="M88.9 84.6C94.8 84.6 100.1 84.6 106 84.6C107 88.3 107.7 93 107.7 98.9V121.7H87.1V99C87.1 99 86.8 92 88.9 84.6Z" fill="white"/>
<path d="M53.9 61.9C63.0127 61.9 70.4 54.5127 70.4 45.4C70.4 36.2873 63.0127 28.9 53.9 28.9C44.7873 28.9 37.4 36.2873 37.4 45.4C37.4 54.5127 44.7873 61.9 53.9 61.9Z" fill="#E88439"/>
<path d="M53.9 82.6C58.4839 82.6 62.2 78.884 62.2 74.3C62.2 69.716 58.4839 66 53.9 66C49.316 66 45.6 69.716 45.6 74.3C45.6 78.884 49.316 82.6 53.9 82.6Z" fill="#E88439"/>
<path d="M53.9 55.7C59.5885 55.7 64.2 51.0885 64.2 45.4C64.2 39.7114 59.5885 35.1 53.9 35.1C48.2114 35.1 43.6 39.7114 43.6 45.4C43.6 51.0885 48.2114 55.7 53.9 55.7Z" fill="#2870AF"/>
<path opacity="0.5" d="M58 45.4001C60.2643 45.4001 62.1 43.5644 62.1 41.3001C62.1 39.0357 60.2643 37.2001 58 37.2001C55.7356 37.2001 53.9 39.0357 53.9 41.3001C53.9 43.5644 55.7356 45.4001 58 45.4001Z" fill="#A2C0DD"/>
<path d="M53.9 78.4001C56.1644 78.4001 58 76.5644 58 74.3001C58 72.0357 56.1644 70.2001 53.9 70.2001C51.6356 70.2001 49.8 72.0357 49.8 74.3001C49.8 76.5644 51.6356 78.4001 53.9 78.4001Z" fill="#2870AF"/>
</svg>
