<svg width="221" height="70" viewBox="0 0 221 70" fill="none" xmlns="http://www.w3.org/2000/svg">
<rect width="221" height="50" rx="25" fill="#E88439"/>
<path d="M59.9577 12.076H60.9537V17.86H59.9577V12.076ZM60.6777 14.62H62.5497V15.448H60.6777V14.62ZM53.0337 16.672H53.8737C54.6177 16.672 55.2697 16.664 55.8297 16.648C56.3897 16.632 56.9057 16.596 57.3777 16.54C57.8497 16.484 58.3257 16.408 58.8057 16.312L58.9257 17.128C58.4217 17.224 57.9257 17.3 57.4377 17.356C56.9577 17.412 56.4337 17.452 55.8657 17.476C55.2977 17.492 54.6337 17.5 53.8737 17.5H53.0337V16.672ZM53.0337 12.796H57.7977V13.6H54.0177V17.236H53.0337V12.796ZM54.1137 18.448H55.0977V19.78H59.9577V18.448H60.9537V22.756H54.1137V18.448ZM55.0977 20.584V21.94H59.9577V20.584H55.0977ZM66.2448 13.24H67.0608V14.116C67.0608 14.788 66.9328 15.408 66.6768 15.976C66.4288 16.544 66.0768 17.04 65.6208 17.464C65.1728 17.888 64.6408 18.212 64.0248 18.436L63.5208 17.644C64.0648 17.452 64.5408 17.18 64.9488 16.828C65.3568 16.468 65.6728 16.056 65.8968 15.592C66.1288 15.128 66.2448 14.636 66.2448 14.116V13.24ZM66.4248 13.24H67.2408V14.116C67.2408 14.588 67.3488 15.036 67.5648 15.46C67.7808 15.884 68.0848 16.256 68.4768 16.576C68.8688 16.896 69.3288 17.148 69.8568 17.332L69.3888 18.112C68.7808 17.904 68.2568 17.604 67.8168 17.212C67.3768 16.82 67.0328 16.36 66.7848 15.832C66.5448 15.296 66.4248 14.724 66.4248 14.116V13.24ZM63.8208 12.88H69.6288V13.696H63.8208V12.88ZM70.9968 12.076H71.9928V18.616H70.9968V12.076ZM71.7168 14.836H73.5888V15.664H71.7168V14.836ZM68.5368 18.916C69.2728 18.916 69.9048 18.996 70.4328 19.156C70.9688 19.308 71.3808 19.532 71.6688 19.828C71.9568 20.124 72.1008 20.484 72.1008 20.908C72.1008 21.332 71.9568 21.692 71.6688 21.988C71.3808 22.284 70.9688 22.512 70.4328 22.672C69.9048 22.832 69.2728 22.912 68.5368 22.912C67.8008 22.912 67.1648 22.832 66.6288 22.672C66.0928 22.512 65.6808 22.284 65.3928 21.988C65.1048 21.692 64.9608 21.332 64.9608 20.908C64.9608 20.484 65.1048 20.124 65.3928 19.828C65.6808 19.532 66.0928 19.308 66.6288 19.156C67.1648 18.996 67.8008 18.916 68.5368 18.916ZM68.5368 19.708C68.0008 19.708 67.5368 19.756 67.1448 19.852C66.7608 19.948 66.4648 20.084 66.2568 20.26C66.0488 20.436 65.9448 20.652 65.9448 20.908C65.9448 21.164 66.0488 21.384 66.2568 21.568C66.4648 21.744 66.7608 21.88 67.1448 21.976C67.5368 22.072 68.0008 22.12 68.5368 22.12C69.0728 22.12 69.5328 22.072 69.9168 21.976C70.3008 21.88 70.5968 21.744 70.8048 21.568C71.0128 21.384 71.1168 21.164 71.1168 20.908C71.1168 20.652 71.0128 20.436 70.8048 20.26C70.5968 20.084 70.3008 19.948 69.9168 19.852C69.5328 19.756 69.0728 19.708 68.5368 19.708ZM82.4918 12.076H83.4878V22.948H82.4918V12.076ZM77.7638 12.916C78.2998 12.916 78.7718 13.072 79.1798 13.384C79.5958 13.688 79.9198 14.124 80.1518 14.692C80.3918 15.26 80.5118 15.928 80.5118 16.696C80.5118 17.464 80.3918 18.132 80.1518 18.7C79.9198 19.268 79.5958 19.708 79.1798 20.02C78.7718 20.332 78.2998 20.488 77.7638 20.488C77.2278 20.488 76.7518 20.332 76.3358 20.02C75.9198 19.708 75.5918 19.268 75.3518 18.7C75.1198 18.132 75.0038 17.464 75.0038 16.696C75.0038 15.928 75.1198 15.26 75.3518 14.692C75.5918 14.124 75.9198 13.688 76.3358 13.384C76.7518 13.072 77.2278 12.916 77.7638 12.916ZM77.7638 13.804C77.4038 13.804 77.0878 13.924 76.8158 14.164C76.5518 14.396 76.3438 14.732 76.1918 15.172C76.0398 15.604 75.9638 16.112 75.9638 16.696C75.9638 17.28 76.0398 17.792 76.1918 18.232C76.3438 18.664 76.5518 19 76.8158 19.24C77.0878 19.48 77.4038 19.6 77.7638 19.6C78.1158 19.6 78.4238 19.48 78.6878 19.24C78.9598 19 79.1718 18.664 79.3238 18.232C79.4758 17.792 79.5518 17.28 79.5518 16.696C79.5518 16.112 79.4758 15.604 79.3238 15.172C79.1718 14.732 78.9598 14.396 78.6878 14.164C78.4238 13.924 78.1158 13.804 77.7638 13.804ZM89.4539 13.168H94.4339V20.176H89.4539V13.168ZM93.4499 13.96H90.4259V19.372H93.4499V13.96ZM96.3659 12.076H97.3619V22.936H96.3659V12.076ZM97.1339 16.408H99.1379V17.248H97.1339V16.408ZM104.957 12.316C105.741 12.316 106.417 12.4 106.985 12.568C107.561 12.728 108.001 12.96 108.305 13.264C108.617 13.568 108.773 13.94 108.773 14.38C108.773 14.804 108.617 15.172 108.305 15.484C108.001 15.788 107.561 16.02 106.985 16.18C106.417 16.34 105.741 16.42 104.957 16.42C104.181 16.42 103.505 16.34 102.929 16.18C102.361 16.02 101.921 15.788 101.609 15.484C101.297 15.172 101.141 14.804 101.141 14.38C101.141 13.94 101.297 13.568 101.609 13.264C101.921 12.96 102.361 12.728 102.929 12.568C103.505 12.4 104.181 12.316 104.957 12.316ZM104.957 13.108C104.389 13.108 103.893 13.16 103.469 13.264C103.053 13.36 102.729 13.504 102.497 13.696C102.273 13.88 102.161 14.108 102.161 14.38C102.161 14.636 102.273 14.86 102.497 15.052C102.729 15.236 103.053 15.38 103.469 15.484C103.893 15.58 104.389 15.628 104.957 15.628C105.533 15.628 106.029 15.58 106.445 15.484C106.869 15.38 107.193 15.236 107.417 15.052C107.641 14.86 107.753 14.636 107.753 14.38C107.753 14.108 107.641 13.88 107.417 13.696C107.193 13.504 106.869 13.36 106.445 13.264C106.029 13.16 105.533 13.108 104.957 13.108ZM101.261 19.216H108.665V22.792H101.261V19.216ZM107.693 20.02H102.233V21.976H107.693V20.02ZM100.061 17.344H109.865V18.16H100.061V17.344ZM115.504 16.3H117.544V17.116H115.504V16.3ZM119.368 12.076H120.328V22.936H119.368V12.076ZM117.208 12.304H118.156V22.384H117.208V12.304ZM113.536 12.988C114.008 12.988 114.416 13.14 114.76 13.444C115.112 13.748 115.384 14.184 115.576 14.752C115.768 15.32 115.864 15.988 115.864 16.756C115.864 17.532 115.768 18.204 115.576 18.772C115.384 19.34 115.112 19.78 114.76 20.092C114.416 20.396 114.008 20.548 113.536 20.548C113.08 20.548 112.676 20.396 112.324 20.092C111.98 19.78 111.712 19.34 111.52 18.772C111.328 18.204 111.232 17.532 111.232 16.756C111.232 15.988 111.328 15.32 111.52 14.752C111.712 14.184 111.98 13.748 112.324 13.444C112.676 13.14 113.08 12.988 113.536 12.988ZM113.536 13.912C113.256 13.912 113.012 14.028 112.804 14.26C112.596 14.492 112.436 14.82 112.324 15.244C112.212 15.668 112.156 16.172 112.156 16.756C112.156 17.34 112.212 17.848 112.324 18.28C112.436 18.704 112.596 19.032 112.804 19.264C113.012 19.496 113.256 19.612 113.536 19.612C113.824 19.612 114.072 19.496 114.28 19.264C114.496 19.032 114.66 18.704 114.772 18.28C114.884 17.848 114.94 17.34 114.94 16.756C114.94 16.172 114.884 15.668 114.772 15.244C114.66 14.82 114.496 14.492 114.28 14.26C114.072 14.028 113.824 13.912 113.536 13.912ZM125.514 16.612H135.33V17.416H125.514V16.612ZM126.822 14.932H134.154V15.736H126.822V14.932ZM126.822 12.436H134.046V13.24H127.806V15.568H126.822V12.436ZM126.702 18.364H134.058V20.908H127.698V22.276H126.726V20.164H133.086V19.144H126.702V18.364ZM126.726 22.012H134.382V22.804H126.726V22.012ZM139.325 18.688H140.105V19.324C140.105 19.796 140.009 20.264 139.817 20.728C139.625 21.184 139.345 21.592 138.977 21.952C138.617 22.312 138.173 22.592 137.645 22.792L137.153 22.048C137.609 21.88 137.997 21.652 138.317 21.364C138.645 21.068 138.893 20.744 139.061 20.392C139.237 20.032 139.325 19.676 139.325 19.324V18.688ZM139.541 18.688H140.285V19.324C140.285 19.692 140.357 20.06 140.501 20.428C140.645 20.788 140.861 21.12 141.149 21.424C141.437 21.72 141.801 21.96 142.241 22.144L141.809 22.888C141.289 22.68 140.861 22.388 140.525 22.012C140.189 21.636 139.941 21.216 139.781 20.752C139.621 20.28 139.541 19.804 139.541 19.324V18.688ZM143.333 18.688H144.077V19.324C144.077 19.748 143.997 20.196 143.837 20.668C143.677 21.132 143.429 21.564 143.093 21.964C142.757 22.364 142.329 22.672 141.809 22.888L141.389 22.144C141.821 21.936 142.181 21.672 142.469 21.352C142.757 21.032 142.973 20.692 143.117 20.332C143.261 19.972 143.333 19.636 143.333 19.324V18.688ZM143.537 18.688H144.305V19.324C144.305 19.7 144.389 20.068 144.557 20.428C144.733 20.788 144.981 21.108 145.301 21.388C145.629 21.668 146.025 21.888 146.489 22.048L145.985 22.792C145.457 22.6 145.009 22.328 144.641 21.976C144.281 21.624 144.005 21.22 143.813 20.764C143.629 20.308 143.537 19.828 143.537 19.324V18.688ZM141.893 14.8H144.761V15.616H141.893V14.8ZM139.517 12.688C140.045 12.688 140.517 12.796 140.933 13.012C141.357 13.228 141.689 13.528 141.929 13.912C142.169 14.296 142.289 14.736 142.289 15.232C142.289 15.736 142.169 16.18 141.929 16.564C141.689 16.94 141.357 17.236 140.933 17.452C140.517 17.668 140.045 17.776 139.517 17.776C138.981 17.776 138.501 17.668 138.077 17.452C137.661 17.236 137.333 16.94 137.093 16.564C136.853 16.18 136.733 15.736 136.733 15.232C136.733 14.736 136.853 14.296 137.093 13.912C137.333 13.528 137.661 13.228 138.077 13.012C138.501 12.796 138.981 12.688 139.517 12.688ZM139.517 13.528C139.165 13.528 138.849 13.6 138.569 13.744C138.297 13.888 138.081 14.092 137.921 14.356C137.761 14.612 137.681 14.904 137.681 15.232C137.681 15.568 137.761 15.864 137.921 16.12C138.081 16.376 138.297 16.58 138.569 16.732C138.849 16.876 139.165 16.948 139.517 16.948C139.861 16.948 140.169 16.876 140.441 16.732C140.721 16.58 140.941 16.376 141.101 16.12C141.261 15.864 141.341 15.568 141.341 15.232C141.341 14.904 141.261 14.612 141.101 14.356C140.941 14.092 140.721 13.888 140.441 13.744C140.169 13.6 139.861 13.528 139.517 13.528ZM144.485 12.076H145.481V18.268H144.485V12.076ZM154.936 12.076H155.932V22.948H154.936V12.076ZM155.704 16.36H157.708V17.188H155.704V16.36ZM148.06 19.396H148.912C149.576 19.396 150.184 19.388 150.736 19.372C151.296 19.348 151.832 19.308 152.344 19.252C152.864 19.196 153.392 19.12 153.928 19.024L154.048 19.876C153.488 19.972 152.944 20.048 152.416 20.104C151.896 20.16 151.352 20.196 150.784 20.212C150.216 20.228 149.592 20.236 148.912 20.236H148.06V19.396ZM148.06 13.132H153.088V13.948H149.044V19.78H148.06V13.132ZM163.839 13.984H166.863V14.812H163.839V13.984ZM163.839 16.312H166.887V17.128H163.839V16.312ZM159.135 13.024H164.079V18.1H159.135V13.024ZM163.107 13.828H160.107V17.308H163.107V13.828ZM166.563 12.088H167.559V20.008H166.563V12.088ZM160.587 21.88H167.811V22.696H160.587V21.88ZM160.587 19.3H161.583V22.252H160.587V19.3ZM58.2878 27.076H59.2838V32.86H58.2878V27.076ZM59.0078 29.62H60.8798V30.448H59.0078V29.62ZM51.3638 31.672H52.2038C52.9478 31.672 53.5998 31.664 54.1598 31.648C54.7198 31.632 55.2358 31.596 55.7078 31.54C56.1798 31.484 56.6558 31.408 57.1358 31.312L57.2558 32.128C56.7518 32.224 56.2558 32.3 55.7678 32.356C55.2878 32.412 54.7638 32.452 54.1958 32.476C53.6278 32.492 52.9638 32.5 52.2038 32.5H51.3638V31.672ZM51.3638 27.796H56.1278V28.6H52.3478V32.236H51.3638V27.796ZM52.4438 33.448H53.4278V34.78H58.2878V33.448H59.2838V37.756H52.4438V33.448ZM53.4278 35.584V36.94H58.2878V35.584H53.4278ZM62.2588 34.48H62.9428C63.5668 34.48 64.1788 34.464 64.7788 34.432C65.3868 34.392 66.0468 34.312 66.7588 34.192L66.8428 35.008C66.1068 35.136 65.4308 35.22 64.8148 35.26C64.2068 35.292 63.5828 35.308 62.9428 35.308H62.2588V34.48ZM62.2348 28.264H65.9788V32.056H63.2188V34.756H62.2588V31.252H65.0188V29.08H62.2348V28.264ZM70.1548 27.076H71.1028V37.936H70.1548V27.076ZM66.5788 29.908H68.4748V30.724H66.5788V29.908ZM67.9948 27.292H68.9428V37.372H67.9948V27.292ZM66.5788 32.608H68.4748V33.424H66.5788V32.608ZM72.9259 32.116H82.7659V32.884H72.9259V32.116ZM74.1019 33.748H81.5419V36.064H75.1099V37.336H74.1259V35.38H80.5579V34.468H74.1019V33.748ZM74.1259 37.072H81.8899V37.792H74.1259V37.072ZM74.1739 27.4H81.5059V29.656H75.1819V30.832H74.1979V28.984H80.5219V28.108H74.1739V27.4ZM74.1979 30.592H81.6979V31.312H74.1979V30.592ZM94.78 27.076H95.776V33.616H94.78V27.076ZM95.5 29.956H97.372V30.796H95.5V29.956ZM88.96 34.228H95.776V37.792H88.96V34.228ZM94.792 35.032H89.932V36.976H94.792V35.032ZM87.376 28.228H93.784V29.032H87.376V28.228ZM90.58 29.572C91.1 29.572 91.552 29.652 91.936 29.812C92.328 29.972 92.632 30.2 92.848 30.496C93.064 30.784 93.172 31.12 93.172 31.504C93.172 31.896 93.064 32.236 92.848 32.524C92.632 32.812 92.328 33.036 91.936 33.196C91.552 33.356 91.1 33.436 90.58 33.436C90.06 33.436 89.604 33.356 89.212 33.196C88.828 33.036 88.524 32.812 88.3 32.524C88.084 32.236 87.976 31.896 87.976 31.504C87.976 31.12 88.084 30.784 88.3 30.496C88.524 30.2 88.828 29.972 89.212 29.812C89.604 29.652 90.06 29.572 90.58 29.572ZM90.58 30.34C90.084 30.34 89.684 30.444 89.38 30.652C89.084 30.86 88.936 31.144 88.936 31.504C88.936 31.864 89.084 32.152 89.38 32.368C89.684 32.576 90.084 32.68 90.58 32.68C91.068 32.68 91.464 32.576 91.768 32.368C92.072 32.152 92.224 31.864 92.224 31.504C92.224 31.144 92.072 30.86 91.768 30.652C91.472 30.444 91.076 30.34 90.58 30.34ZM90.088 26.992H91.084V28.636H90.088V26.992ZM100.203 28.384H101.055C101.055 28.96 101.027 29.552 100.971 30.16C100.923 30.76 100.831 31.36 100.695 31.96C100.567 32.552 100.379 33.136 100.131 33.712C99.891 34.288 99.575 34.84 99.183 35.368L98.403 34.912C98.779 34.432 99.083 33.932 99.315 33.412C99.555 32.892 99.739 32.36 99.867 31.816C99.995 31.264 100.083 30.708 100.131 30.148C100.179 29.58 100.203 29.016 100.203 28.456V28.384ZM98.631 28.384H100.695V29.2H98.631V28.384ZM102.591 28.384H103.443C103.443 28.952 103.423 29.56 103.383 30.208C103.351 30.856 103.275 31.52 103.155 32.2C103.043 32.88 102.863 33.548 102.615 34.204C102.367 34.86 102.027 35.48 101.595 36.064L100.815 35.608C101.143 35.176 101.415 34.724 101.631 34.252C101.855 33.772 102.031 33.284 102.159 32.788C102.287 32.284 102.383 31.788 102.447 31.3C102.511 30.804 102.551 30.316 102.567 29.836C102.583 29.356 102.591 28.896 102.591 28.456V28.384ZM101.403 28.384H103.119V29.2H101.403V28.384ZM106.695 27.076H107.655V37.936H106.695V27.076ZM102.939 31.336H104.895V32.164H102.939V31.336ZM104.691 27.364H105.627V37.384H104.691V27.364ZM112.805 35.728H122.645V36.556H112.805V35.728ZM117.209 33.124H118.193V35.968H117.209V33.124ZM113.957 27.844H114.953V29.776H120.473V27.844H121.457V33.4H113.957V27.844ZM114.953 30.592V32.584H120.473V30.592H114.953ZM132.076 27.076H133.036V37.936H132.076V27.076ZM130.264 31.492H132.352V32.32H130.264V31.492ZM129.616 27.316H130.552V37.372H129.616V27.316ZM124.372 28.384H125.368V34.648H124.372V28.384ZM124.372 34.252H125.056C125.624 34.252 126.22 34.232 126.844 34.192C127.468 34.144 128.132 34.048 128.836 33.904L128.956 34.78C128.22 34.924 127.532 35.02 126.892 35.068C126.252 35.108 125.64 35.128 125.056 35.128H124.372V34.252ZM134.883 35.728H144.723V36.556H134.883V35.728ZM139.287 33.124H140.271V35.968H139.287V33.124ZM136.035 27.844H137.031V29.776H142.551V27.844H143.535V33.4H136.035V27.844ZM137.031 30.592V32.584H142.551V30.592H137.031ZM150.194 30.964H152.282V31.792H150.194V30.964ZM148.178 28.096H148.958V30.172C148.958 30.732 148.898 31.284 148.778 31.828C148.666 32.372 148.498 32.884 148.274 33.364C148.058 33.844 147.794 34.276 147.482 34.66C147.17 35.044 146.818 35.356 146.426 35.596L145.802 34.852C146.17 34.628 146.502 34.348 146.798 34.012C147.094 33.676 147.342 33.3 147.542 32.884C147.75 32.46 147.906 32.02 148.01 31.564C148.122 31.1 148.178 30.636 148.178 30.172V28.096ZM148.37 28.096H149.138V30.136C149.138 30.568 149.186 31.004 149.282 31.444C149.386 31.876 149.53 32.292 149.714 32.692C149.906 33.084 150.142 33.444 150.422 33.772C150.702 34.1 151.018 34.372 151.37 34.588L150.806 35.356C150.414 35.116 150.066 34.812 149.762 34.444C149.458 34.068 149.202 33.648 148.994 33.184C148.786 32.712 148.63 32.216 148.526 31.696C148.422 31.176 148.37 30.656 148.37 30.136V28.096ZM154.19 27.076H155.15V37.936H154.19V27.076ZM151.982 27.304H152.918V37.384H151.982V27.304ZM159.373 32.668H160.357V35.908H159.373V32.668ZM163.381 32.668H164.377V35.908H163.381V32.668ZM156.961 35.716H166.801V36.544H156.961V35.716ZM161.857 27.76C162.625 27.76 163.305 27.876 163.897 28.108C164.489 28.34 164.953 28.664 165.289 29.08C165.633 29.496 165.805 29.988 165.805 30.556C165.805 31.116 165.633 31.608 165.289 32.032C164.953 32.448 164.489 32.772 163.897 33.004C163.305 33.228 162.625 33.34 161.857 33.34C161.097 33.34 160.417 33.228 159.817 33.004C159.225 32.772 158.761 32.448 158.425 32.032C158.089 31.608 157.921 31.116 157.921 30.556C157.921 29.988 158.089 29.496 158.425 29.08C158.761 28.664 159.225 28.34 159.817 28.108C160.417 27.876 161.097 27.76 161.857 27.76ZM161.857 28.552C161.281 28.552 160.769 28.636 160.321 28.804C159.873 28.972 159.521 29.208 159.265 29.512C159.009 29.808 158.881 30.156 158.881 30.556C158.881 30.956 159.009 31.308 159.265 31.612C159.521 31.908 159.873 32.14 160.321 32.308C160.769 32.476 161.281 32.56 161.857 32.56C162.441 32.56 162.957 32.476 163.405 32.308C163.853 32.14 164.205 31.908 164.461 31.612C164.717 31.308 164.845 30.956 164.845 30.556C164.845 30.156 164.717 29.808 164.461 29.512C164.205 29.208 163.853 28.972 163.405 28.804C162.957 28.636 162.441 28.552 161.857 28.552ZM169.65 28.2727L169.565 34.5455H168.577L168.491 28.2727H169.65ZM169.071 37.0682C168.861 37.0682 168.68 36.9929 168.53 36.8423C168.379 36.6918 168.304 36.5114 168.304 36.3011C168.304 36.0909 168.379 35.9105 168.53 35.7599C168.68 35.6094 168.861 35.5341 169.071 35.5341C169.281 35.5341 169.461 35.6094 169.612 35.7599C169.763 35.9105 169.838 36.0909 169.838 36.3011C169.838 36.4403 169.802 36.5682 169.731 36.6847C169.663 36.8011 169.571 36.8949 169.454 36.9659C169.341 37.0341 169.213 37.0682 169.071 37.0682Z" fill="black"/>
<path d="M110 70L95.2776 49.75L124.722 49.75L110 70Z" fill="#E88439"/>
</svg>